<?xml version="1.0" encoding="utf-8"?>
<!-- Generator: Adobe Illustrator 19.2.0, SVG Export Plug-In . SVG Version: 6.00 Build 0)  -->
<!DOCTYPE svg PUBLIC "-//W3C//DTD SVG 1.1//EN" "http://www.w3.org/Graphics/SVG/1.1/DTD/svg11.dtd">
<svg version="1.1" id="Refs" xmlns="http://www.w3.org/2000/svg" xmlns:xlink="http://www.w3.org/1999/xlink" x="0px" y="0px"
	 viewBox="0 0 200 60" style="enable-background:new 0 0 200 60;" xml:space="preserve">
<g id="Ammerland">
	<g>
		<polygon id="_x35__3_" points="93.2,43.4 94,45.8 96.5,45.8 94.4,47.3 95.2,49.7 93.2,48.2 91.2,49.7 91.9,47.3 89.9,45.8 
			92.4,45.8 		"/>
		<polygon id="_x35__1_" points="101,43.4 101.8,45.8 104.3,45.8 102.2,47.3 103,49.7 101,48.2 99,49.7 99.7,47.3 97.7,45.8 
			100.2,45.8 		"/>
		<polygon id="_x35__2_" points="108.8,43.4 109.6,45.8 112.1,45.8 110,47.3 110.8,49.7 108.8,48.2 106.8,49.7 107.5,47.3 
			105.5,45.8 108,45.8 		"/>
		<polygon id="_x35__4_" points="116.6,43.4 117.4,45.8 119.9,45.8 117.8,47.3 118.6,49.7 116.6,48.2 114.6,49.7 115.3,47.3 
			113.3,45.8 115.8,45.8 		"/>
	</g>
	<path d="M47.2,1.6l4,48.5h35l5.4-43.2L47.2,1.6z M81.9,17.3h0.8v6c0,0.3,0.1,0.5,0.4,0.5c0.2,0,0.4,0,0.6-0.1v0.7
		c-0.2,0.1-0.5,0.1-0.8,0.1c-0.6,0-1-0.3-1-1.1V17.3z M76.6,19.5c1.4,0,2,1,2,2.3c0,0.1,0,0.3,0,0.3h-3.2c0,1.1,0.5,1.6,1.4,1.6
		c0.7,0,1.2-0.2,1.6-0.3v0.7c-0.4,0.2-0.9,0.3-1.6,0.3c-1.4,0-2.2-0.9-2.2-2.5C74.5,20.6,75.2,19.5,76.6,19.5z M63.6,19.5
		c1.6,0,2.2,1.1,2.2,2.5c0,1.4-0.6,2.5-2.2,2.5c-1.6,0-2.2-1.1-2.2-2.5C61.3,20.6,62,19.5,63.6,19.5z M54.2,17.3H55v2.7
		c0.4-0.3,0.9-0.5,1.5-0.5c1.1,0,1.7,0.5,1.7,1.6v3.4h-0.8v-3.2c0-0.7-0.4-1-1-1c-0.5,0-0.9,0.1-1.3,0.4v3.8h-0.8V17.3z M65.3,40.3
		l-1.4-8.4L61,40.3h-2.2L56,31.9l-1.5,8.4H52L54.3,27h2.5l3.1,9.3L63,27h2.5l2.2,13.3H65.3z M69.3,23.1v-2.8h-0.8v-0.7h0.8v-1.5h0.8
		v1.5h1.7v0.7h-1.7v2.7c0,0.6,0.3,0.8,0.8,0.8c0.4,0,0.7-0.1,0.9-0.1v0.7c-0.3,0.1-0.7,0.2-1.1,0.2C69.8,24.6,69.3,24.2,69.3,23.1z
		 M83.2,40.3l-1.4-8.4L79,40.3h-2.2l-2.8-8.4l-1.5,8.4H70L72.3,27h2.5l3.1,9.3L81,27h2.5l2.2,13.3H83.2z"/>
	<g>
		<path d="M36.8,40.2l5.3-13.3h1.9l5.2,13.3h-2l-1.5-3.7H40l-1.5,3.7H36.8z M40.6,35.2h4.5l-2.3-5.7L40.6,35.2z"/>
		<path d="M90.5,40.2V26.9h7.5v1.4h-5.6v4.3H97V34h-4.7v4.8h6v1.4H90.5z"/>
		<path d="M100.8,40.2V26.9h4c1.5,0,2.5,0.3,3.1,1c0.6,0.7,0.9,1.4,0.9,2.3c0,0.5-0.1,1-0.3,1.5c-0.2,0.5-0.5,0.9-0.9,1.3
			c-0.4,0.4-0.9,0.7-1.5,1l4.4,6.2h-2.3l-3.8-5.6h-1.8v5.6H100.8z M102.6,33.2h0.6c1.4,0,2.3-0.3,2.8-0.9c0.5-0.6,0.7-1.2,0.7-1.9
			c0-0.4-0.1-0.8-0.3-1.1c-0.2-0.3-0.5-0.5-0.9-0.7c-0.4-0.2-1-0.3-1.9-0.3h-1.2V33.2z"/>
		<path d="M112.4,40.2V26.9h1.9v11.9h5.9v1.4H112.4z"/>
		<path d="M121,40.2l5.3-13.3h1.9l5.2,13.3h-2l-1.5-3.7h-5.6l-1.5,3.7H121z M124.7,35.2h4.5l-2.3-5.7L124.7,35.2z"/>
		<path d="M136.2,40.2V26.9h1.9l6.7,10.3V26.9h1.6v13.3h-1.9L137.8,30v10.3H136.2z"/>
		<path d="M150.1,40.2V26.9h4.4c1.7,0,3,0.2,3.9,0.7c0.9,0.5,1.6,1.2,2.1,2.2c0.5,1,0.8,2.1,0.8,3.4c0,1.3-0.2,2.4-0.7,3.5
			c-0.5,1.1-1.2,1.9-2.1,2.5c-0.9,0.6-2.2,1-3.9,1H150.1z M152,38.8h2.4c1.3,0,2.2-0.2,2.8-0.6s1.1-1,1.5-1.9
			c0.4-0.9,0.5-1.8,0.5-2.9c0-0.9-0.2-1.8-0.5-2.6c-0.3-0.8-0.8-1.4-1.5-1.9c-0.7-0.5-1.9-0.7-3.7-0.7H152V38.8z"/>
	</g>
	<g>
		<path d="M51,58.8v-4.1h0.6v4.1H51z"/>
		<path d="M53.1,58.8v-4.1h0.6v1.7h2v-1.7h0.6v4.1h-0.6v-1.9h-2v1.9H53.1z"/>
		<path d="M57.7,58.8v-4.1h1.2c0.5,0,0.8,0.1,1,0.3c0.2,0.2,0.3,0.4,0.3,0.7c0,0.2,0,0.3-0.1,0.5s-0.2,0.3-0.3,0.4s-0.3,0.2-0.5,0.3
			l1.4,1.9H60l-1.2-1.7h-0.5v1.7H57.7z M58.3,56.6h0.2c0.4,0,0.7-0.1,0.9-0.3s0.2-0.4,0.2-0.6c0-0.1,0-0.2-0.1-0.3
			c-0.1-0.1-0.1-0.2-0.3-0.2c-0.1-0.1-0.3-0.1-0.6-0.1h-0.4V56.6z"/>
		<path d="M64,58.8v-4.1H65c0.5,0,0.8,0.1,1,0.3c0.2,0.2,0.3,0.4,0.3,0.6c0,0.2-0.1,0.4-0.2,0.6c-0.1,0.2-0.3,0.4-0.7,0.5
			c0.3,0.1,0.5,0.2,0.6,0.3c0.1,0.1,0.2,0.2,0.3,0.4c0.1,0.1,0.1,0.3,0.1,0.5c0,0.2,0,0.4-0.1,0.5s-0.2,0.3-0.4,0.4
			c-0.2,0.1-0.4,0.1-0.8,0.1H64z M64.5,56.5h0.2c0.3,0,0.6-0.1,0.8-0.2c0.2-0.1,0.2-0.3,0.2-0.6c0-0.2-0.1-0.3-0.2-0.4
			c-0.1-0.1-0.4-0.2-0.7-0.2h-0.2V56.5z M64.5,58.4h0.1c0.4,0,0.7,0,0.8-0.1c0.1,0,0.2-0.1,0.3-0.2c0.1-0.1,0.1-0.2,0.1-0.4
			c0-0.2-0.1-0.4-0.3-0.6c-0.2-0.2-0.5-0.2-0.8-0.2h-0.2V58.4z"/>
		<path d="M69.4,58.9c-0.4,0-0.7-0.1-1-0.3s-0.5-0.4-0.7-0.8c-0.2-0.3-0.2-0.7-0.2-1.1c0-0.4,0.1-0.8,0.2-1.1
			c0.2-0.3,0.4-0.6,0.7-0.8c0.3-0.2,0.6-0.3,1-0.3s0.7,0.1,1,0.3c0.3,0.2,0.5,0.4,0.7,0.8c0.2,0.3,0.2,0.7,0.2,1.1
			c0,0.4-0.1,0.8-0.2,1.1c-0.1,0.3-0.4,0.6-0.7,0.8C70.1,58.8,69.8,58.9,69.4,58.9z M69.4,58.5c0.4,0,0.7-0.2,1-0.5
			c0.2-0.3,0.3-0.7,0.3-1.3c0-0.5-0.1-1-0.3-1.3c-0.2-0.3-0.6-0.5-1-0.5c-0.4,0-0.7,0.2-1,0.5c-0.2,0.3-0.3,0.7-0.3,1.3
			c0,0.5,0.1,1,0.3,1.3C68.6,58.3,68.9,58.5,69.4,58.5z"/>
		<path d="M72.5,54.7h0.6v2.6c0,0.5,0.1,0.8,0.3,0.9c0.2,0.2,0.4,0.3,0.7,0.3c0.2,0,0.4,0,0.5-0.1c0.1-0.1,0.2-0.2,0.3-0.3
			s0.1-0.4,0.1-0.7v-2.6h0.5v2.6c0,0.4-0.1,0.8-0.2,1c-0.1,0.2-0.3,0.4-0.5,0.5c-0.2,0.1-0.5,0.2-0.8,0.2c-0.4,0-0.6-0.1-0.9-0.2
			c-0.2-0.1-0.4-0.3-0.5-0.5c-0.1-0.2-0.2-0.5-0.2-1V54.7z"/>
		<path d="M77.9,58.8v-3.7h-1.5v-0.4h3.5v0.4h-1.5v3.7H77.9z"/>
		<path d="M80.9,58.8v-4.1h0.6v4.1H80.9z"/>
		<path d="M86.7,59.6c-0.6-0.2-1.2-0.5-1.6-0.7c-0.2,0-0.3,0-0.4,0c-0.3,0-0.7-0.1-1-0.3c-0.3-0.2-0.5-0.4-0.7-0.8
			c-0.2-0.3-0.2-0.7-0.2-1.1c0-0.4,0.1-0.8,0.2-1.1c0.2-0.3,0.4-0.6,0.7-0.8c0.3-0.2,0.6-0.3,1-0.3c0.4,0,0.7,0.1,1,0.3
			c0.3,0.2,0.5,0.4,0.7,0.8c0.1,0.3,0.2,0.7,0.2,1.1c0,0.4-0.1,0.8-0.2,1.2c-0.2,0.3-0.4,0.6-0.8,0.8c0.5,0.2,1,0.4,1.5,0.4
			L86.7,59.6z M84.7,58.5c0.4,0,0.7-0.2,1-0.5c0.2-0.3,0.3-0.7,0.3-1.3c0-0.5-0.1-1-0.3-1.3c-0.2-0.3-0.6-0.5-1-0.5
			c-0.4,0-0.7,0.2-1,0.5c-0.2,0.3-0.3,0.7-0.3,1.3c0,0.5,0.1,1,0.3,1.3C84,58.3,84.3,58.5,84.7,58.5z"/>
		<path d="M87.9,54.7h0.6v2.6c0,0.5,0.1,0.8,0.3,0.9c0.2,0.2,0.4,0.3,0.7,0.3c0.2,0,0.4,0,0.5-0.1c0.1-0.1,0.2-0.2,0.3-0.3
			s0.1-0.4,0.1-0.7v-2.6h0.5v2.6c0,0.4-0.1,0.8-0.2,1c-0.1,0.2-0.3,0.4-0.5,0.5c-0.2,0.1-0.5,0.2-0.8,0.2c-0.4,0-0.6-0.1-0.9-0.2
			c-0.2-0.1-0.4-0.3-0.5-0.5c-0.1-0.2-0.2-0.5-0.2-1V54.7z"/>
		<path d="M92.3,58.8v-4.1h2.3v0.4h-1.7v1.3h1.4v0.4h-1.4v1.5h1.8v0.4H92.3z"/>
		<path d="M98,58.8v-4.1h0.6v1.7h2v-1.7h0.6v4.1h-0.6v-1.9h-2v1.9H98z"/>
		<path d="M104.3,58.9c-0.4,0-0.7-0.1-1-0.3c-0.3-0.2-0.5-0.4-0.7-0.8c-0.2-0.3-0.2-0.7-0.2-1.1c0-0.4,0.1-0.8,0.2-1.1
			c0.2-0.3,0.4-0.6,0.7-0.8c0.3-0.2,0.6-0.3,1-0.3c0.4,0,0.7,0.1,1,0.3c0.3,0.2,0.5,0.4,0.7,0.8c0.2,0.3,0.2,0.7,0.2,1.1
			c0,0.4-0.1,0.8-0.2,1.1c-0.1,0.3-0.4,0.6-0.7,0.8C105.1,58.8,104.7,58.9,104.3,58.9z M104.3,58.5c0.4,0,0.7-0.2,1-0.5
			c0.2-0.3,0.3-0.7,0.3-1.3c0-0.5-0.1-1-0.3-1.3c-0.2-0.3-0.6-0.5-1-0.5c-0.4,0-0.7,0.2-1,0.5c-0.2,0.3-0.3,0.7-0.3,1.3
			c0,0.5,0.1,1,0.3,1.3C103.6,58.3,103.9,58.5,104.3,58.5z"/>
		<path d="M108.5,58.8v-3.7H107v-0.4h3.5v0.4h-1.5v3.7H108.5z"/>
		<path d="M111.5,58.8v-4.1h2.3v0.4h-1.7v1.3h1.4v0.4h-1.4v1.5h1.8v0.4H111.5z"/>
		<path d="M115.1,58.8v-4.1h0.6v3.7h1.8v0.4H115.1z"/>
		<path d="M120.8,58.8v-4.1h0.6v4.1H120.8z"/>
		<path d="M122.8,58.8v-4.1h0.6l2.1,3.2v-3.2h0.5v4.1h-0.6l-2.1-3.2v3.2H122.8z"/>
		<path d="M130.6,58.7c-0.4,0.1-0.6,0.2-0.8,0.2c-0.2,0-0.3,0-0.5,0c-0.5,0-0.9-0.1-1.2-0.3c-0.3-0.2-0.5-0.4-0.6-0.8
			c-0.1-0.3-0.2-0.7-0.2-1.1c0-0.6,0.2-1.2,0.5-1.6c0.3-0.4,0.8-0.6,1.5-0.6c0.4,0,0.8,0.1,1.3,0.2v0.5c-0.4-0.1-0.7-0.2-0.9-0.3
			c-0.2,0-0.3,0-0.4,0c-0.5,0-0.9,0.2-1.1,0.5c-0.2,0.3-0.3,0.7-0.3,1.2c0,0.3,0,0.6,0.1,0.8c0.1,0.3,0.3,0.5,0.5,0.6
			c0.2,0.2,0.5,0.3,0.9,0.3c0.1,0,0.2,0,0.3,0c0.1,0,0.2,0,0.4-0.1V57h0.6V58.7z"/>
		<path d="M133.7,58.9c-0.4,0-0.7-0.1-1-0.3c-0.3-0.2-0.5-0.4-0.7-0.8c-0.2-0.3-0.2-0.7-0.2-1.1c0-0.4,0.1-0.8,0.2-1.1
			c0.2-0.3,0.4-0.6,0.7-0.8c0.3-0.2,0.6-0.3,1-0.3s0.7,0.1,1,0.3c0.3,0.2,0.5,0.4,0.7,0.8c0.2,0.3,0.2,0.7,0.2,1.1
			c0,0.4-0.1,0.8-0.2,1.1c-0.1,0.3-0.4,0.6-0.7,0.8C134.5,58.8,134.1,58.9,133.7,58.9z M133.7,58.5c0.4,0,0.7-0.2,1-0.5
			c0.2-0.3,0.3-0.7,0.3-1.3c0-0.5-0.1-1-0.3-1.3c-0.2-0.3-0.6-0.5-1-0.5c-0.4,0-0.7,0.2-1,0.5c-0.2,0.3-0.3,0.7-0.3,1.3
			c0,0.5,0.1,1,0.3,1.3C133,58.3,133.3,58.5,133.7,58.5z"/>
		<path d="M136.9,58.8v-4.1h0.6v3.7h1.8v0.4H136.9z"/>
		<path d="M140.1,58.7v-0.6c0.3,0.2,0.6,0.2,0.7,0.3c0.2,0,0.3,0,0.4,0c0.2,0,0.4-0.1,0.6-0.2c0.1-0.1,0.2-0.3,0.2-0.5
			c0-0.1,0-0.3-0.1-0.4c-0.1-0.1-0.3-0.3-0.5-0.4l-0.3-0.2c-0.4-0.2-0.6-0.4-0.8-0.6c-0.1-0.2-0.2-0.4-0.2-0.6
			c0-0.2,0.1-0.4,0.2-0.5c0.1-0.2,0.2-0.3,0.4-0.4c0.2-0.1,0.4-0.1,0.7-0.1c0.3,0,0.7,0.1,1,0.2v0.5c-0.3-0.1-0.5-0.2-0.6-0.2
			c-0.1,0-0.2,0-0.3,0c-0.2,0-0.4,0.1-0.5,0.2c-0.1,0.1-0.2,0.3-0.2,0.4c0,0.1,0,0.2,0.1,0.3c0.1,0.1,0.1,0.2,0.2,0.2
			c0.1,0.1,0.2,0.1,0.4,0.2l0.3,0.2c0.4,0.2,0.6,0.4,0.8,0.6c0.1,0.2,0.2,0.4,0.2,0.6c0,0.3-0.1,0.6-0.4,0.8
			c-0.2,0.2-0.6,0.4-1.1,0.4c-0.1,0-0.3,0-0.4,0C140.6,58.9,140.4,58.8,140.1,58.7z"/>
		<path d="M144.8,58.8v-3.7h-1.5v-0.4h3.5v0.4h-1.5v3.7H144.8z"/>
		<path d="M147.4,58.8l1.6-4.1h0.6l1.6,4.1h-0.6l-0.5-1.1h-1.7l-0.5,1.1H147.4z M148.6,57.2h1.4l-0.7-1.8L148.6,57.2z"/>
		<path d="M152.3,58.8v-4.1h1.4c0.5,0,0.9,0.1,1.2,0.2c0.3,0.2,0.5,0.4,0.6,0.7c0.2,0.3,0.2,0.6,0.2,1.1c0,0.4-0.1,0.8-0.2,1.1
			c-0.1,0.3-0.4,0.6-0.6,0.8s-0.7,0.3-1.2,0.3H152.3z M152.9,58.4h0.7c0.4,0,0.7-0.1,0.9-0.2c0.2-0.1,0.3-0.3,0.5-0.6
			c0.1-0.3,0.2-0.6,0.2-0.9c0-0.3,0-0.6-0.1-0.8c-0.1-0.2-0.2-0.4-0.5-0.6c-0.2-0.1-0.6-0.2-1.2-0.2h-0.5V58.4z"/>
		<path d="M157.9,58.8v-3.7h-1.5v-0.4h3.5v0.4h-1.5v3.7H157.9z"/>
	</g>
	<path d="M63.6,23.9c1,0,1.4-0.7,1.4-1.8c0-1.1-0.3-1.8-1.4-1.8c-1,0-1.4,0.8-1.4,1.8C62.2,23.1,62.5,23.9,63.6,23.9z"/>
	<path d="M76.6,20.2c-0.7,0-1.1,0.5-1.2,1.3h2.4C77.7,20.7,77.3,20.2,76.6,20.2z"/>
</g>
</svg>
