<?xml version="1.0" encoding="utf-8"?>
<!-- Generator: Adobe Illustrator 19.1.0, SVG Export Plug-In . SVG Version: 6.00 Build 0)  -->
<svg version="1.1" id="Refs" xmlns="http://www.w3.org/2000/svg" xmlns:xlink="http://www.w3.org/1999/xlink" x="0px" y="0px"
	 viewBox="0 0 200 60" style="enable-background:new 0 0 200 60;" xml:space="preserve">
<style type="text/css">
	.st0{fill:#878787;}
</style>
<g id="Desboroughs">
	<path d="M167.5,2.9v29h6.1V9.8c0,0,11.5-0.5,11.4,12.5c0.1,5.1-3,8.9-6.7,9.9c-3.6,1-20.2,1.9-20.2,1.9l19.3,21.1
		c0,0,19.6-6.7,20.2-25.3C196.8-0.5,167.5,2.9,167.5,2.9z"/>
	<path class="st0" d="M169.1,31.9V4.7c0,0,23.9-3.1,24.5,23.1c0,16.4-21.8,21.2-21.8,21.2l-6.9-7.6c0,0,11-1,16.7-4.4
		c2-1.3,9.3-4.7,6-19.6c-4.6-11.3-15.9-10.1-15.9-10.1l0,24.6H169.1z"/>
	<g>
		<path d="M3.8,45.7c0.2-1.8,0.3-3.2,0.4-4.3c0.1-1.6,0.2-3.7,0.3-6.2c0.1-1.9,0.1-3.3,0.1-4.2v-1.4c0.9,0,1.7,0,2.4,0
			c0.6,0,1.5,0,2.5-0.1c1,0,2-0.1,2.9-0.1c1,0,2,0.1,2.7,0.2c0.8,0.1,1.5,0.4,2.2,0.8s1.3,0.9,1.7,1.5s0.8,1.4,1.1,2.2
			c0.2,0.8,0.4,1.7,0.4,2.6c0,0.9-0.1,1.7-0.3,2.5c-0.2,0.8-0.4,1.5-0.8,2.2s-0.7,1.2-1.2,1.7c-0.4,0.5-1,0.9-1.5,1.2
			c-0.4,0.2-0.9,0.4-1.3,0.6c-0.4,0.1-1,0.3-1.8,0.3c-0.8,0.1-1.8,0.1-2.9,0.1l-4.7,0C5.6,45.7,4.8,45.7,3.8,45.7z M8.9,42.2
			c0.4,0,0.9,0.1,1.3,0.1c0.8,0,1.5-0.1,2.1-0.2c0.6-0.1,1.2-0.4,1.6-0.9s0.8-1.1,1-1.8c0.2-0.7,0.3-1.5,0.3-2.2
			c0-0.9-0.2-1.7-0.5-2.3c-0.3-0.6-0.8-1.1-1.3-1.3c-0.6-0.2-1.3-0.4-2.3-0.4c-0.6,0-1.2,0-2,0.1L8.9,42.2z"/>
		<path d="M32.8,42.2c-0.1,0.5-0.3,1.6-0.6,3.4c-0.9,0.2-1.7,0.3-2.3,0.4S28.7,46,28.1,46c-0.9,0-1.8-0.1-2.6-0.2s-1.5-0.4-2-0.7
			s-1-0.7-1.4-1.2c-0.4-0.5-0.7-1.1-0.9-1.7c-0.2-0.7-0.3-1.4-0.3-2.1c0-1,0.2-2,0.6-2.9c0.4-1,0.9-1.7,1.5-2.2
			c0.6-0.5,1.4-0.9,2.2-1.1s1.7-0.3,2.5-0.3c0.9,0,1.7,0.1,2.5,0.3c0.8,0.2,1.5,0.6,2.1,1.1s1,1.1,1.2,1.7c0.2,0.6,0.4,1.3,0.4,2.1
			c0,0.4-0.1,0.9-0.2,1.5l-8.2,0c0,0.1,0,0.2,0,0.3c0,0.8,0.3,1.5,0.9,1.9c0.6,0.4,1.3,0.6,2.2,0.6c0.5,0,1.1-0.1,1.8-0.2
			C31.1,42.7,31.9,42.5,32.8,42.2z M25.6,38.4h3.9c0-0.1,0-0.2,0-0.3c0-0.4-0.1-0.8-0.2-1c-0.1-0.3-0.4-0.5-0.6-0.6
			c-0.3-0.1-0.6-0.2-0.9-0.2c-0.2,0-0.5,0-0.7,0.1c-0.2,0.1-0.4,0.2-0.6,0.3c-0.2,0.1-0.3,0.3-0.4,0.5c-0.1,0.2-0.2,0.4-0.3,0.5
			C25.7,37.9,25.7,38.1,25.6,38.4z"/>
		<path d="M34.4,45.5c0-0.3-0.1-0.7-0.1-1.1c0-0.4-0.1-0.9-0.2-1.6L34,42c0.8,0.3,1.4,0.5,1.9,0.7c0.5,0.1,1,0.2,1.5,0.2
			c0.4,0,0.7,0,0.9-0.1s0.4-0.2,0.5-0.3s0.2-0.3,0.2-0.4c0-0.1,0-0.2-0.1-0.4s-0.3-0.3-0.6-0.5c-0.6-0.5-1.2-0.9-1.7-1.3
			c-0.5-0.4-0.9-0.7-1.1-1c-0.2-0.3-0.4-0.6-0.6-1c-0.1-0.3-0.2-0.7-0.2-1.1c0-0.6,0.2-1.3,0.6-1.8c0.4-0.6,0.9-1,1.6-1.2
			c0.7-0.3,1.6-0.4,2.6-0.4c1.1,0,2.5,0.1,4.2,0.4l0.2,3.3c-0.9-0.4-1.9-0.6-2.7-0.6c-0.6,0-1.1,0.1-1.3,0.2
			c-0.3,0.1-0.4,0.3-0.4,0.6c0,0.1,0,0.2,0,0.2c0,0.1,0.1,0.2,0.2,0.2c0.1,0.1,0.2,0.2,0.3,0.3c0.1,0.1,0.4,0.3,0.9,0.6
			c0.5,0.3,0.8,0.6,1.1,0.8c0.4,0.3,0.8,0.7,1,1c0.2,0.3,0.4,0.6,0.5,0.9c0.1,0.3,0.2,0.7,0.2,1c0,0.6-0.1,1.1-0.4,1.5
			s-0.7,0.9-1.2,1.2s-1.1,0.5-1.8,0.6s-1.3,0.2-2,0.2c-0.5,0-1,0-1.7-0.1C36.1,45.8,35.3,45.7,34.4,45.5z"/>
		<path d="M45,45.7c0.2-2.5,0.4-5.3,0.6-8.6c0.2-3.3,0.2-5.7,0.2-7.4c0.9,0,1.8,0,2.5,0c0.8,0,1.5,0,2.3,0c-0.2,1.2-0.3,2.6-0.4,4
			c0.7-0.1,1.3-0.2,1.6-0.2s0.8-0.1,1.1-0.1c1.2,0,2.2,0.2,3.1,0.6c0.9,0.4,1.5,1,2.1,1.9c0.5,0.9,0.8,2,0.8,3.3
			c0,1.3-0.3,2.5-0.8,3.6s-1.2,1.9-2,2.4c-0.8,0.5-1.8,0.8-3,0.8c-0.4,0-0.8,0-1.2-0.1c-0.4-0.1-0.7-0.2-1-0.4
			c-0.3-0.2-0.6-0.3-0.8-0.5c-0.2-0.2-0.5-0.4-0.7-0.8l0,1.5c-0.8,0-1.5,0-2.1,0C46.9,45.7,46.1,45.7,45,45.7z M50,37.1
			c-0.1,1.3-0.1,2.1-0.1,2.4c0,0.7,0.1,1.3,0.2,1.7c0.1,0.4,0.4,0.8,0.7,1c0.4,0.3,0.8,0.4,1.2,0.4c0.5,0,0.9-0.1,1.2-0.4
			c0.4-0.3,0.6-0.6,0.8-1.1c0.2-0.5,0.3-1,0.3-1.6c0-0.8-0.2-1.5-0.7-2c-0.4-0.5-1.1-0.7-1.9-0.7C51.3,36.8,50.7,36.9,50,37.1z"/>
		<path d="M66.8,33.5c1,0,1.9,0.1,2.8,0.4c0.9,0.3,1.6,0.7,2.3,1.3c0.6,0.6,1.1,1.2,1.4,2c0.3,0.7,0.4,1.5,0.4,2.4
			c0,0.8-0.1,1.6-0.4,2.4c-0.3,0.8-0.7,1.5-1.3,2.1s-1.4,1.2-2.4,1.5c-1,0.3-2,0.5-3.1,0.5c-1,0-1.9-0.1-2.9-0.4
			c-0.9-0.3-1.7-0.7-2.3-1.3c-0.6-0.6-1.1-1.2-1.4-2s-0.5-1.6-0.5-2.4c0-0.8,0.1-1.7,0.5-2.4c0.3-0.8,0.8-1.5,1.4-2.1
			c0.7-0.6,1.5-1.1,2.4-1.4C64.7,33.6,65.7,33.5,66.8,33.5z M66.7,36.9c-0.5,0-0.9,0.1-1.3,0.4c-0.4,0.3-0.7,0.6-0.9,1.1
			c-0.2,0.5-0.3,1-0.3,1.6c0,0.9,0.2,1.5,0.6,2c0.4,0.5,1,0.7,1.6,0.7c0.5,0,0.9-0.1,1.3-0.4c0.4-0.3,0.7-0.6,0.9-1.2
			s0.3-1.1,0.3-1.6c0-0.5-0.1-0.9-0.2-1.3c-0.2-0.4-0.4-0.7-0.8-0.9S67.2,36.9,66.7,36.9z"/>
		<path d="M74.4,45.7l0.4-5.2l0.1-3c0-0.5,0-1.1,0-1.7c0-0.6,0-1.3,0-2.1c0.9,0,1.7,0,2.2,0c0.6,0,1.4,0,2.2,0l0,1.3
			c0.3-0.3,0.6-0.6,0.7-0.8c0.2-0.2,0.4-0.3,0.7-0.5c0.2-0.1,0.5-0.2,0.8-0.3c0.3-0.1,0.6-0.1,0.9-0.1c0.3,0,0.6,0,0.9,0.1
			c0,0.8,0,1.6,0.1,2.1l0.1,1.8c-0.4-0.1-0.8-0.2-1.2-0.2c-0.5,0-0.9,0.1-1.2,0.2c-0.3,0.1-0.6,0.3-0.9,0.6c-0.3,0.3-0.5,0.6-0.6,1
			c-0.2,0.4-0.3,1.1-0.3,2C79.1,42,79,43.1,79,44.2c0,0.4,0,0.9,0,1.5c-0.8,0-1.5,0-2.3,0C76.1,45.7,75.2,45.7,74.4,45.7z"/>
		<path d="M90.7,33.5c1,0,1.9,0.1,2.8,0.4c0.9,0.3,1.6,0.7,2.3,1.3c0.6,0.6,1.1,1.2,1.4,2c0.3,0.7,0.4,1.5,0.4,2.4
			c0,0.8-0.1,1.6-0.4,2.4c-0.3,0.8-0.7,1.5-1.3,2.1s-1.4,1.2-2.4,1.5c-1,0.3-2,0.5-3.1,0.5c-1,0-1.9-0.1-2.9-0.4
			c-0.9-0.3-1.7-0.7-2.3-1.3c-0.6-0.6-1.1-1.2-1.4-2s-0.5-1.6-0.5-2.4c0-0.8,0.1-1.7,0.5-2.4c0.3-0.8,0.8-1.5,1.4-2.1
			c0.7-0.6,1.5-1.1,2.4-1.4C88.7,33.6,89.6,33.5,90.7,33.5z M90.6,36.9c-0.5,0-0.9,0.1-1.3,0.4c-0.4,0.3-0.7,0.6-0.9,1.1
			c-0.2,0.5-0.3,1-0.3,1.6c0,0.9,0.2,1.5,0.6,2c0.4,0.5,1,0.7,1.6,0.7c0.5,0,0.9-0.1,1.3-0.4c0.4-0.3,0.7-0.6,0.9-1.2
			s0.3-1.1,0.3-1.6c0-0.5-0.1-0.9-0.2-1.3c-0.2-0.4-0.4-0.7-0.8-0.9S91.1,36.9,90.6,36.9z"/>
		<path d="M111.4,45.7c-0.9,0-1.6,0-2.2,0c-0.7,0-1.5,0-2.2,0l0-1.6c-0.3,0.4-0.5,0.6-0.7,0.8c-0.2,0.2-0.4,0.3-0.6,0.5
			s-0.5,0.2-0.8,0.3s-0.6,0.2-1,0.2c-0.4,0.1-0.7,0.1-1.1,0.1c-0.6,0-1.2-0.1-1.7-0.2s-1-0.4-1.5-0.7c-0.4-0.3-0.7-0.7-0.9-1.2
			c-0.2-0.4-0.2-0.9-0.2-1.5c0-0.1,0-0.4,0-0.7l0.2-2.7c0.1-1,0.1-2.1,0.2-3.2c0-0.7,0-1.4,0-2.1c1,0,1.8,0,2.5,0c0.7,0,1.4,0,2.3,0
			l-0.4,4.5c-0.1,0.7-0.1,1.1-0.1,1.4c0,0.2,0,0.4,0,0.5c0,0.8,0.2,1.4,0.5,1.7c0.3,0.3,0.7,0.4,1.2,0.4c0.2,0,0.4,0,0.6-0.1
			c0.2-0.1,0.4-0.1,0.5-0.2c0.1-0.1,0.3-0.2,0.4-0.4c0.1-0.1,0.2-0.3,0.4-0.5c0.1-0.3,0.2-0.5,0.3-0.8c0.1-0.4,0.2-0.9,0.2-1.6
			c0-0.5,0.1-1.3,0.1-2.4l0.1-2.4c1,0,1.8,0,2.5,0c0.7,0,1.5,0,2.2,0c-0.2,2-0.3,3.9-0.4,5.7C111.5,41.2,111.5,43.3,111.4,45.7z"/>
		<path d="M114,47.2c1,0.3,1.9,0.6,2.7,0.7c0.8,0.1,1.4,0.2,2,0.2c0.4,0,0.8,0,1.1-0.1c0.3-0.1,0.6-0.2,0.8-0.3
			c0.2-0.1,0.4-0.3,0.5-0.5c0.1-0.2,0.3-0.4,0.3-0.7c0.1-0.2,0.1-0.5,0.2-0.9c0-0.3,0.1-0.8,0.1-1.4c-0.3,0.3-0.6,0.5-0.8,0.7
			c-0.2,0.2-0.5,0.3-0.8,0.5c-0.3,0.2-0.7,0.3-1.1,0.4c-0.4,0.1-0.8,0.1-1.2,0.1c-1,0-1.9-0.2-2.7-0.7s-1.4-1.1-1.8-1.9
			c-0.4-0.8-0.6-1.7-0.6-2.7c0-1.1,0.2-2.2,0.6-3.1c0.4-0.9,1-1.7,1.8-2.3c0.8-0.6,1.6-1.1,2.6-1.3c0.9-0.2,2-0.4,3.2-0.4
			c0.7,0,1.4,0,2.3,0.1c0.9,0.1,2,0.3,3.5,0.5l-0.3,3.9l-0.2,4.2c0,0.3,0,0.6,0,0.7l-0.1,3.8c0,0.5-0.1,0.9-0.2,1.4
			c-0.1,0.4-0.2,0.8-0.4,1.1c-0.2,0.3-0.5,0.6-0.7,0.9c-0.3,0.3-0.7,0.5-1.1,0.7c-0.4,0.2-0.9,0.3-1.5,0.4c-0.6,0.1-1.2,0.2-1.9,0.2
			c-0.4,0-0.8,0-1.4-0.1s-1.1-0.1-1.7-0.2s-1.1-0.1-1.5-0.2c-0.4-0.1-0.9-0.2-1.6-0.3l-0.1-1.5C114.1,48.8,114.1,48.2,114,47.2z
			 M122.1,37.1c-0.5-0.1-0.9-0.1-1.3-0.1c-0.7,0-1.3,0.1-1.8,0.4s-0.9,0.7-1.2,1.2c-0.3,0.5-0.4,1.1-0.4,1.7c0,0.4,0.1,0.8,0.2,1.2
			s0.4,0.6,0.7,0.9c0.3,0.2,0.7,0.3,1.1,0.3c0.6,0,1.1-0.2,1.5-0.6c0.4-0.4,0.7-1,0.9-1.7C121.9,39.6,122,38.5,122.1,37.1z"/>
		<path d="M127.9,45.7c0.1-1.2,0.2-2.1,0.3-2.9c0.1-1.6,0.2-3.4,0.3-5.5c0.1-1.4,0.1-2.7,0.2-4s0.1-2.5,0.1-3.7c1,0,1.8,0,2.4,0
			c0.8,0,1.6,0,2.4,0l-0.2,2.8c0,0.5-0.1,1.4-0.2,2.8c0.3-0.3,0.5-0.6,0.6-0.7c0.2-0.2,0.3-0.3,0.5-0.4c0.2-0.1,0.4-0.3,0.6-0.3
			s0.4-0.2,0.7-0.2c0.3-0.1,0.6-0.1,0.9-0.2s0.7-0.1,1-0.1c0.7,0,1.3,0.1,1.9,0.2c0.6,0.1,1.1,0.4,1.6,0.8s0.7,0.8,0.9,1.2
			s0.2,1,0.2,1.5c0,0.2,0,0.5,0,0.8c0,0.3,0,0.8-0.1,1.3l-0.3,3.9c0,0.5,0,0.9-0.1,1.2c0,0.3,0,0.7,0,1.2c-0.8,0-1.6,0-2.3,0
			c-0.8,0-1.7,0-2.5,0c0.1-1,0.2-2.2,0.3-3.6c0.1-1.4,0.2-2.4,0.2-3c0-0.7-0.2-1.2-0.5-1.5c-0.3-0.3-0.7-0.4-1.2-0.4
			c-0.5,0-0.9,0.1-1.2,0.3c-0.3,0.2-0.6,0.4-0.8,0.8c-0.2,0.3-0.4,0.7-0.5,1.3c-0.2,0.7-0.3,1.6-0.4,2.9c0,0.7-0.1,1.8-0.1,3.4
			c-0.8,0-1.5,0-2.2,0C129.7,45.7,128.8,45.7,127.9,45.7z"/>
		<path d="M143.2,45.5c0-0.3-0.1-0.7-0.1-1.1c0-0.4-0.1-0.9-0.2-1.6l-0.1-0.8c0.8,0.3,1.4,0.5,1.9,0.7c0.5,0.1,1,0.2,1.5,0.2
			c0.4,0,0.7,0,0.9-0.1s0.4-0.2,0.5-0.3s0.2-0.3,0.2-0.4c0-0.1,0-0.2-0.1-0.4s-0.3-0.3-0.6-0.5c-0.6-0.5-1.2-0.9-1.7-1.3
			c-0.5-0.4-0.9-0.7-1.1-1c-0.2-0.3-0.4-0.6-0.6-1c-0.1-0.3-0.2-0.7-0.2-1.1c0-0.6,0.2-1.3,0.6-1.8c0.4-0.6,0.9-1,1.6-1.2
			c0.7-0.3,1.6-0.4,2.6-0.4c1.1,0,2.5,0.1,4.2,0.4l0.2,3.3c-0.9-0.4-1.9-0.6-2.7-0.6c-0.6,0-1.1,0.1-1.3,0.2
			c-0.3,0.1-0.4,0.3-0.4,0.6c0,0.1,0,0.2,0,0.2c0,0.1,0.1,0.2,0.2,0.2c0.1,0.1,0.2,0.2,0.3,0.3c0.1,0.1,0.4,0.3,0.9,0.6
			c0.5,0.3,0.8,0.6,1.1,0.8c0.4,0.3,0.8,0.7,1,1c0.2,0.3,0.4,0.6,0.5,0.9c0.1,0.3,0.2,0.7,0.2,1c0,0.6-0.1,1.1-0.4,1.5
			s-0.7,0.9-1.2,1.2s-1.1,0.5-1.8,0.6s-1.3,0.2-2,0.2c-0.5,0-1,0-1.7-0.1C144.9,45.8,144.1,45.7,143.2,45.5z"/>
	</g>
</g>
</svg>
