<?xml version="1.0" encoding="utf-8"?>
<!-- Generator: Adobe Illustrator 19.2.0, SVG Export Plug-In . SVG Version: 6.00 Build 0)  -->
<!DOCTYPE svg PUBLIC "-//W3C//DTD SVG 1.1//EN" "http://www.w3.org/Graphics/SVG/1.1/DTD/svg11.dtd">
<svg version="1.1" id="Refs" xmlns="http://www.w3.org/2000/svg" xmlns:xlink="http://www.w3.org/1999/xlink" x="0px" y="0px"
	 viewBox="0 0 200 60" style="enable-background:new 0 0 200 60;" xml:space="preserve">
<g id="Elfinger">
	<path d="M104.4,1.1c-1.4,0-2.7,0-4.1,0l0,0C101.7,1.1,103.1,1.1,104.4,1.1L104.4,1.1z"/>
	<path d="M124.6,27.4c-0.1,0-0.2,0-0.2-0.1C124.5,27.3,124.6,27.4,124.6,27.4L124.6,27.4L124.6,27.4z"/>
	<path d="M100.3,1.1c-1.4,0-2.8,0-4.2,0C97.5,1.1,98.9,1.1,100.3,1.1L100.3,1.1L100.3,1.1z"/>
	<path d="M84,7c0.1,0.1,0.2,0.2,0.4,0.3c5.1,4.2,10.2,8.4,15.2,12.5c0.7,0.6,0.7,0.6,1.4,0c5.2-4.3,10.3-8.5,15.5-12.8
		c0.5-0.4,0.5-0.5,0-0.9c-2.3-1.6-4.5-3.2-6.8-4.8c-0.3-0.2-0.7-0.3-1.1-0.3c-1.4,0-2.7,0-4.1,0c-1.4,0-2.7,0-4.1,0l0,0l0,0
		c-1.4,0-2.8,0-4.2,0c-1.4,0-2.8,0-4.2,0c-0.3,0-0.7,0.1-1,0.3c-2.4,1.6-4.7,3.3-7,5C83.6,6.5,83.6,6.8,84,7L84,7z M99.2,6.5
		c-0.7,0-1.3,0-2,0c-0.4,0-0.9,0-1.3,0c-1.6,0-1.6,0-1.1-1.5c0.1-0.3,0.2-0.7,0.3-1c0.1-0.4,0.3-0.4,0.6-0.2
		c1.2,0.9,2.3,1.7,3.5,2.6C99.3,6.3,99.3,6.4,99.2,6.5L99.2,6.5z M99.4,6.9c0.3,0,0.5,0.1,0.4,0.5c-0.5,2.7-1,5.3-1.6,8
		c-0.1,0-0.1,0-0.2,0.1c-1.2-2.8-2.5-5.6-3.8-8.5C96.1,6.9,97.8,6.9,99.4,6.9L99.4,6.9z M93.9,6.1c0,0.1-0.2,0.2-0.3,0.2
		c-1.2,0-2.4,0-3.6-0.1c1.5-0.9,3.1-1.8,4.6-2.7c0,0,0.1,0.1,0.1,0.1C94.5,4.5,94.2,5.3,93.9,6.1L93.9,6.1z M93.5,6.9
		c0.2,0,0.4,0.2,0.5,0.4c1.1,2.5,2.2,5,3.3,7.5c0,0,0,0.1,0,0.2c-2.6-2.7-5.3-5.3-7.9-8C90.7,6.9,92.1,6.9,93.5,6.9L93.5,6.9z
		 M91.3,9.8c0.1,0.1,0.3,0.2,0.4,0.3c1.9,1.9,3.9,3.7,5.8,5.6c1,0.9,1.4,2.2,2,3.4C95.6,16.9,93.7,13.1,91.3,9.8L91.3,9.8z M93,13.6
		c-2.3-2.2-4.6-4.4-7-6.6c0,0,0.1-0.1,0.1-0.1c0.8,0,1.5,0,2.3,0c0.1,0,0.2,0.1,0.3,0.2C90.2,9.3,91.7,11.4,93,13.6L93,13.6z
		 M100.4,19.5c-0.1,0-0.1,0-0.2,0c-0.5-1.1-1.1-2.1-1.5-3.2c-0.2-0.4,0.1-1,0.2-1.5c0.4-2.3,0.9-4.6,1.4-6.9c0.1,0.5,0.2,1,0.3,1.6
		c0.4,2,0.8,4,1.2,6c0.1,0.5,0,1-0.2,1.4C101.3,17.8,100.8,18.6,100.4,19.5L100.4,19.5z M110.5,6.3c-1.2,0-2.4,0-3.5,0
		c-0.1,0-0.3-0.1-0.3-0.2c-0.3-0.8-0.6-1.7-0.9-2.5c0,0,0.1-0.1,0.1-0.1c1.5,0.9,3.1,1.8,4.6,2.7C110.5,6.3,110.5,6.3,110.5,6.3
		L110.5,6.3z M111.1,6.9c-2.6,2.7-5.3,5.3-8,8c0.1-0.2,0.1-0.4,0.2-0.6c1-2.3,2.1-4.6,3.1-6.9c0.2-0.4,0.4-0.6,0.9-0.6
		C108.6,6.9,109.9,6.9,111.1,6.9L111.1,6.9z M106,5.9c0,0.1-0.1,0.5-0.2,0.5c-1.5,0-3,0-4.7,0c0.4-0.4,0.7-0.6,1-0.8
		c0.8-0.6,1.6-1.2,2.3-1.8c0.6-0.5,0.7-0.4,0.9,0.3C105.6,4.7,105.8,5.3,106,5.9L106,5.9z M101.1,6.9c1.7,0,3.3,0,5.1,0
		c-1.3,2.9-2.5,5.7-3.8,8.5c-0.1,0-0.1,0-0.2,0c-0.2-1-0.4-2.1-0.6-3.1c-0.3-1.6-0.6-3.2-0.9-4.8C100.7,7,100.8,6.9,101.1,6.9
		L101.1,6.9z M101.4,19.2c-0.1-0.1-0.2-0.1-0.2-0.1c0.5-1.3,1-2.5,2-3.5c1.9-1.8,3.8-3.6,5.7-5.5c0.1-0.1,0.3-0.3,0.4-0.4
		c0,0,0.1,0.1,0.1,0.1c-1.5,2-2.9,4.2-4.5,6.1C103.9,17.1,102.6,18.1,101.4,19.2L101.4,19.2z M111.9,10.4
		C111.9,10.4,111.8,10.4,111.9,10.4c0-0.2,0.1-0.3,0.1-0.3c1-1,1.9-1.9,2.9-2.8c0.3-0.3,0.6-0.6,1.1-0.2
		C114.6,8.1,113.2,9.3,111.9,10.4L111.9,10.4z M115.9,6.3c-0.7,0.2-1.2-0.1-2-1.4C114.6,5.4,115.2,5.8,115.9,6.3L115.9,6.3z
		 M111.9,3.9c0.8,0.8,1.5,1.7,2.3,2.5c-0.6,0-1.3,0-1.9,0c-0.1,0-0.4-0.3-0.4-0.4c-0.1-0.7-0.1-1.3-0.2-2
		C111.8,4,111.9,3.9,111.9,3.9L111.9,3.9z M112.9,6.9c0.5,0.1,1,0,1.5,0c0,0,0.1,0.1,0.1,0.2c-2.3,2.2-4.7,4.4-7,6.6
		c0,0-0.1-0.1-0.1-0.1c1.4-2,2.8-3.9,4.1-5.9C111.8,7,112.2,6.8,112.9,6.9L112.9,6.9z M107.7,2c1,0.4,2,0.6,3,0.9
		c0.4,0.1,0.6,0.3,0.6,0.8c0,0.7,0.1,1.5,0.1,2.3c-0.3-0.1-0.4-0.2-0.6-0.3c-1.5-0.8-3-1.7-4.4-2.5c-0.5-0.3-0.5-0.4-0.1-0.9
		C106.6,1.8,107,1.7,107.7,2L107.7,2z M106,1.6c-0.5,1-0.7,1.1-1.7,0.7c-0.5-0.2-1.1-0.4-1.6-0.6c0,0,0,0-0.1-0.1
		C103.8,1.6,104.9,1.6,106,1.6L106,1.6z M101.7,2c1,0.4,2,0.7,3,1c-0.2,0.2-0.3,0.3-0.4,0.4c-1.2,0.9-2.5,1.9-3.7,2.8
		c-0.1,0.1-0.4,0.2-0.5,0.1c-1.4-1-2.8-2.1-4.1-3.1c0,0,0-0.1,0-0.2c1-0.3,2-0.6,2.9-1C99.8,1.6,100.7,1.6,101.7,2L101.7,2z
		 M94.5,1.6c1.1,0,2.2,0,3.3,0c0,0.1,0,0.1,0,0.2c-0.8,0.3-1.5,0.6-2.3,0.8c-0.3,0-0.7-0.5-1.1-0.8C94.4,1.7,94.5,1.6,94.5,1.6
		L94.5,1.6z M89.3,3.5c0-0.2,0.3-0.5,0.5-0.5c1.2-0.4,2.4-0.8,3.6-1.1c0.4-0.1,1.3,0.6,1.2,1c0,0.1-0.1,0.2-0.2,0.3
		c-1.6,0.9-3.2,1.9-4.9,2.8c-0.1,0-0.2,0-0.3,0.1C89.2,5.1,89.2,4.3,89.3,3.5L89.3,3.5z M88.6,6.1c0,0.2-0.3,0.4-0.5,0.4
		c-0.6,0-1.2,0-1.8,0c0.9-0.9,1.6-1.7,2.6-2.6C88.7,4.7,88.7,5.4,88.6,6.1L88.6,6.1z M86.6,4.9c0,0,0.1,0.1,0.1,0.1
		c-0.6,0.4-0.9,1.4-1.9,1.3c0-0.1-0.1-0.1-0.1-0.2C85.3,5.8,86,5.4,86.6,4.9L86.6,4.9z M84.7,6.8c0.2,0.1,0.5,0,0.7,0.2
		c1.2,1.2,2.4,2.5,3.7,3.7c-1.5-1.2-2.9-2.4-4.4-3.7C84.6,7,84.7,6.9,84.7,6.8L84.7,6.8z"/>
	<path d="M57.7,53.7c1.1-0.7,2.2-1.4,3.3-2.1c0.4-0.3,0.7-0.9,0.9-1.4c0.2-0.4,0.1-0.8-0.3-1.1c-0.3,0.6-0.6,1.2-0.9,1.8
		c-0.1,0.3-0.4,0.5-0.7,0.6c-0.3,0.2-0.6,0.1-0.5-0.4c0.1-0.4,0.2-0.8,0.4-1.2c0.7-1.6,1.4-3.1,2-4.6c0.7-1.6,1.3-3.3,1.9-5
		c0.1-0.3,0.1-0.7,0.1-1.1c-1,0.4-2,0.7-2.9,1.1c0.1,0.7,0.7,0.4,1,0.6c-0.1,0.3-0.2,0.6-0.3,0.8c-0.8,1.9-1.7,3.9-2.5,5.8
		c-0.7,1.6-1.5,3.2-1.4,5c-1.4-0.1-2.5-0.7-3.6-1.5c1.2-1.5,1.6-3.2,0.7-5.1c0.5,0,0.9,0,1.4,0c0.1-0.4,0.2-0.9,0.3-1.4
		c-1.3,0-2.4,0-3.6,0c0.5-1.4,1-2.8,1.5-4.1c1,0,2.1,0,3.2,0c0.3,0,0.4,0.2,0.4,0.5c0,0.3,0,0.6,0,0.9c0,0,0.1,0.1,0.1,0.1
		c0.2-0.1,0.4-0.2,0.5-0.4c0.3-0.7,0.5-1.5,0.7-2.3c-0.2,0-0.4,0-0.5,0c-2.4-0.1-4.9-0.1-7.3-0.2c-2.6-0.1-5.2,0.2-7.5,1.4
		c-2,1-3.8,2.3-5,4.3c-1.9,3.3-0.8,7.2,3.3,8.3c1.1,0.3,2.2,0.5,3.3,0.5c2.5,0.2,5-0.2,7.2-1.4c0.2-0.1,0.4,0,0.6,0
		c1.2,0.5,2.4,1,3.6,1.5C57.2,53.8,57.5,53.8,57.7,53.7L57.7,53.7z M48.8,52.8c-1.6,0.3-3.2,0.3-4.9-0.1c-4.3-1.2-5.7-6-2.8-9.4
		c1.6-1.8,3.6-2.6,5.9-2.8c1.8-0.2,3.7-0.1,5.5-0.1c0.1,0,0.1,0,0.3,0.1c-0.3,1.7-0.8,3.3-1.8,4.6c-1.3,1.7-3.2,2-5.2,1.8
		c0,0-0.1,0-0.1,0c-1.5-0.3-1.9-0.1-2.7,1.4c3.6-0.4,6.4,1.3,9.2,3.3C51.1,52.2,50,52.5,48.8,52.8L48.8,52.8z M48.7,47.5
		c1.6-0.5,3-1.3,4-2.7c2,0.6,2.4,3.7,0.7,5.5C51.9,49.3,50.3,48.4,48.7,47.5L48.7,47.5z"/>
	<path d="M130.1,50.2c-0.6,0.7-1.3,1.2-2.2,1.4c-0.7,0.1-0.9-0.1-0.9-0.7c0-1.4,0.6-2.5,1.2-3.6c0.4,0.1,0.7,0.3,1,0.3
		c1.2,0.1,3.5-1.4,4-2.6c0.3-0.6,0.1-1.1-0.6-1.2c-0.5,0-1.1,0-1.6,0.2c-2.1,0.8-3.7,2.2-4.8,4.2c-0.1,0.1-0.2,0.3-0.3,0.5
		c-0.7-0.8-1.5-0.7-2.3-0.3c-0.7,0.3-1.2,0.2-1.8-0.2c-1.4-0.9-3-1.5-4.7-1.1c-0.7,0.2-1.5,0.4-2.2,0.6c0.7-0.8,1.4-1.6,2.2-2.3
		c0.1-0.1,0.3-0.2,0.4-0.2c0.9,0.1,1.9,0.1,2.8,0.2c0.1,0.4,0.1,0.7,0.2,1.2c0.2-0.2,0.5-0.2,0.5-0.4c0.2-0.7,0.4-1.4,0.6-2.2
		c-1.1,0-2.1,0-3.1,0c0-0.1,0-0.1,0-0.2c0.6-0.7,1.2-1.3,2.2-1.2c0.3,0,0.6-0.1,0.9-0.2c1-0.3,2-0.7,2.5-1.7c0.2-0.3,0.2-1,0-1.2
		c-0.2-0.2-0.8-0.3-1.2-0.1c-0.6,0.2-1.2,0.6-1.7,1c-0.6,0.4-1.1,0.9-1.7,1.4c-1.2-1-2.4-2-3.6-3c-0.2,0.9-0.4,1.8-0.6,2.6
		c-0.1,0.5,0.1,0.7,0.5,0.7c0.1-0.3,0.2-0.6,0.3-1c0.7,0.6,1.4,1.1,2,1.6c-0.5,1-1.2,1.3-2.2,1.2c-1.3,0-2.7,0.1-4,0.4
		c-3.3,0.6-4.9,2.7-4.6,5.8c0.2,2.7,2.5,4.7,5.4,4.8c1.8,0.1,3.4-0.6,4.8-1.6c1.3-0.9,2.5-1.8,3.8-2.8c0.3-0.3,0.6-0.2,1,0
		c1.2,0.7,2.3,1.4,3.5,2c0.4,0.2,1,0.3,1.4,0.2c1.9-0.5,3.3-1.7,4.3-3.3c0.3-0.5,0.4-1,0.1-1.5C131.1,48.7,130.6,49.5,130.1,50.2
		L130.1,50.2z M130.7,45c0.3-0.1,0.6,0.1,0.9,0.2c-0.1,0.3-0.2,0.7-0.4,0.9c-0.7,0.7-1.7,0.8-2.7,0.8C129.1,46,129.6,45.2,130.7,45
		L130.7,45z M122.6,40.7c0.1,0.8-0.6,1.2-2,1.2C121.3,41.3,121.8,40.8,122.6,40.7L122.6,40.7z M116.2,53c-1.7,0.8-3.6,0.8-5.4,0.1
		c-1.9-0.8-2.9-2.6-2.6-4.6c0.2-1.4,1.1-2.2,2.3-2.7c1.4-0.6,3.9-0.9,5.8-0.5c-2.3,2.2-4.4,4.4-6.6,6.6c0.1,0.1,0.2,0.3,0.4,0.5
		c0.9-0.7,1.7-1.5,2.6-2.1c0.8-0.5,1.6-1,2.4-1.4c1-0.5,2.1-0.6,3.2-0.2c1,0.3,2,0.8,3,1.2c0,0.1,0,0.2,0,0.3
		C119.5,51.1,118,52.2,116.2,53L116.2,53z M125.4,50.3c0,0.1,0,0.1-0.1,0.2c-0.6-0.4-1.2-0.7-1.8-1.1c0-0.1,0-0.1,0-0.2
		c0.7-0.1,1.4-0.1,2.2-0.2C125.6,49.5,125.5,49.9,125.4,50.3L125.4,50.3z"/>
	<path d="M84.5,26.8L84.5,26.8c0,0,0,0.1,0,0.1C84.5,26.9,84.5,26.8,84.5,26.8L84.5,26.8L84.5,26.8z"/>
	<path d="M73.6,37.9c2.4-0.2,4.4-1.3,6.2-2.9c3.1-2.8,5.1-6.4,6.6-10.3c0.7-1.9,1.2-3.8,1.4-5.9c-1.3,0-2.5-0.2-3.7,0.2
		c-2.7,0.8-3.7,3.9-1.9,6c0.4,0.4,0.7,0.9,1,1.3c0.2,0.3,0.4,0.6,0.1,1c-0.3,0.4-0.7,0.5-1.1,0.3c-0.3-0.2-0.6-0.4-0.9-0.6
		c-0.2,0.5,0,1,0.4,1.3c0.5,0.4,1.1,0.4,1.6,0c0.5-0.4,0.8-0.9,1.2-1.4c0.3-0.9-0.1-1.6-0.7-2.3c-0.3-0.4-0.7-0.8-1-1.2
		c-0.5-0.6-0.8-1.3-0.5-2.2c0.3-0.8,1-1.1,1.7-1.2c0.7-0.1,1.5,0,2.4,0c-0.2,1-0.3,1.9-0.5,2.8c-0.4,1.4-0.9,2.7-1.3,4.1h0
		c0,0,0,0.1,0,0.1c0,0,0,0.1,0,0.1c-1,2.3-2.2,4.5-4,6.4c-2.4,2.5-5.2,3.9-8.7,3.3c-2.1-0.4-3.8-1.4-4.9-3.2c-1.5-2.4-0.2-5.5,2.6-6
		c1.1-0.2,2.2-0.1,3.3,0c2.6,0.4,5,1.4,7.2,2.8c0.3,0.2,0.6,0.2,0.9,0c0.2-0.2,0.5-0.3,0.7-0.5c-0.2-0.2-0.4-0.3-0.5-0.5
		c-2-1.5-4.3-2.4-6.7-2.9c-1.6-0.4-3.2-0.3-4.7,0.1c-4.1,1.2-5.5,6-2.6,8.9C68.8,37.4,71,38.2,73.6,37.9L73.6,37.9z"/>
	<path d="M97.9,35.3c1.5-1.2,3-2.4,4.5-3.6c1.7-1.4,2.9-3,3.7-5.1c0.1-0.2,0.1-0.4,0.2-0.7c-1.4,0-2.6,0-3.9,0
		c-0.1,0-0.3,0.1-0.3,0.2c-0.3,0.7-0.7,1.5-1,2.2c0,0.1,0.1,0.1,0.1,0.2c0.2-0.1,0.4-0.2,0.5-0.4c0.3-0.2,0.5-0.7,0.7-0.7
		c0.8-0.1,1.5,0,2.4,0c-1,2.7-3.1,4.3-5.4,5.8c0.5-2.5,1.2-4.9,1.5-7.5c-2.4,1.3-3.5,3.7-5,5.7c0.2-0.8,0.4-1.5,0.5-2.3
		c0.1-0.9,0.1-1.7,0-2.6c-0.1-0.7-0.7-0.9-1.3-0.4c-0.4,0.3-0.7,0.5-1.1,0.8c-0.3,0.2-0.3,0.4-0.1,0.5c0.3-0.1,0.6-0.1,0.8-0.2
		c0.1,0.3,0.1,0.5,0.2,0.8c0,0,0,0.1,0,0.1c0,2.1-0.7,4-1.4,5.9c-0.2,0.4-0.3,0.9-0.5,1.3c2.8-1.5,4-4.2,5.7-6.6
		c-0.4,2.2-0.8,4.4-1.2,6.6C97.8,35.2,97.8,35.2,97.9,35.3L97.9,35.3z"/>
	<path d="M84.9,45.7c-0.1,0.3-0.2,0.4-0.2,0.6c-0.7,1.9-1.8,3.6-3.4,4.9c-0.4,0.3-0.9,0.7-1.4,0.4c-0.5-0.3-0.3-0.9-0.2-1.4
		c0.7-2.4,2.4-3.8,4.7-4.6c1.3-0.4,2.6-0.4,3.9-0.4c0.4,0,0.6-0.1,0.7-0.5c0.1-0.4,0-0.7-0.4-0.8c-0.3-0.1-0.6-0.1-0.9-0.1
		c-4.1,0.3-7.1,2.5-9.1,6c-0.3,0.5-0.4,1.3-0.4,1.9c0,1,0.7,1.5,1.7,1.2c0.6-0.2,1.1-0.5,1.6-0.9c0.7-0.4,1.3-0.9,2-1.5
		c-0.1,0.2-0.1,0.4-0.1,0.5c-0.6,1.8-1.1,3.6-2.3,5.2c-0.6,0.9-1.4,1.5-2.5,1.8c-1,0.2-1.8-0.1-2.6-0.7c-0.3,1.3,0.1,1.8,1.3,1.8
		c2.1-0.1,3.6-1.1,4.9-2.6c1.4-1.6,2.4-3.6,3-5.6c0.2-0.6,0.3-1.2,0.5-1.9c-0.4,0.1-0.6,0.1-0.9,0.2C85.4,47.5,85.5,46.8,84.9,45.7
		L84.9,45.7z"/>
	<path d="M74.3,51.7c-0.2,0.4-0.2,0.8-0.3,1.4c1.1-0.4,1.9-0.8,2.8-1.1c0.5-0.2,0.6-0.5,0.2-0.9c-0.3,0.1-0.7,0.2-1.1,0.3
		c0.2-0.5,0.3-0.8,0.4-1.1c0.7-1.3,1.3-2.5,2-3.8c0.3-0.6,0.6-1.2,0.8-1.8c0.2-0.7-0.2-1.1-0.9-1c-0.5,0.1-1,0.2-1.4,0.5
		c-1,0.7-1.9,1.5-2.9,2.2c-0.1,0.1-0.2,0.2-0.4,0.4c0.3-1.1,0.8-2.1,0.6-3.2c-1,0.4-2,0.8-3.1,1.1c0.1,0.2,0.3,0.4,0.3,0.4
		c0.3,0,0.6,0,0.8,0c0,0.2,0,0.5,0,0.7c0,0.2-0.1,0.3-0.2,0.5c-0.9,2-1.7,4-2.6,6c-0.1,0.1-0.1,0.3-0.2,0.5c1.5-0.3,1.5-0.3,2.2-1.5
		c1.2-2.2,2.8-4.1,4.7-5.6c0.3-0.2,0.6-0.4,1-0.6c-0.1,0.6-0.4,1.1-0.6,1.6C75.8,48.5,75,50.1,74.3,51.7L74.3,51.7z"/>
	<path d="M146,51.5c0.2-0.5,0.3-0.8,0.4-1.1c0.7-1.3,1.4-2.6,2-3.9c0.3-0.6,0.6-1.1,0.7-1.8c0.2-0.7-0.2-1.2-0.9-1
		c-0.7,0.2-1.5,0.6-2.1,1c-0.9,0.6-1.7,1.3-2.5,2c0.3-1,0.8-2,0.5-3.2c-1,0.4-2,0.8-3.1,1.1c0.1,0.2,0.2,0.4,0.3,0.4
		c0.3,0,0.6,0,0.8,0c0,0.3,0,0.5,0,0.8c-0.2,0.5-0.3,1-0.6,1.5c-0.8,1.8-1.6,3.6-2.4,5.4c1-0.2,1.7-0.4,2.2-1.4
		c1.1-2.3,2.7-4.1,4.7-5.7c0.3-0.3,0.7-0.4,1.1-0.7c-0.1,0.6-0.4,1-0.6,1.5c-0.8,1.7-1.5,3.3-2.2,5c-0.2,0.4-0.2,0.8-0.2,1.2
		c0.1,0,0.1,0.1,0.2,0.1c0.9-0.3,1.8-0.7,2.7-1c0.5-0.2,0.5-0.5,0.2-0.8C146.8,51.3,146.5,51.4,146,51.5L146,51.5z"/>
	<path d="M67,45.4c0.4,0.1,0.5-0.2,0.4-0.5c-0.2,0-0.4,0-0.6-0.1c-0.7-0.1-0.7-0.2-0.5-0.8c0.4-1.1,1.1-2.2,2.1-2.8
		c0.5-0.3,1.2-0.4,1.8-0.6c0.2,0,0.5,0.2,0.8,0.3c-0.2,0.2-0.4,0.3-0.5,0.4c-0.1,0.3-0.3,0.7-0.2,0.8c0.2,0.2,0.6,0.3,0.9,0.2
		c0.2-0.1,0.4-0.4,0.5-0.7c0.1-0.5,0.1-1,0.2-1.4c0.1-0.6,0-0.9-0.6-0.9c-0.5,0-1,0.1-1.4,0.3c-2.1,0.8-3.9,1.9-4.8,4.1
		c-0.2,0.5-0.5,1-1.2,1c-0.5,0-0.4,0.3-0.4,0.6c0.3,0,0.5,0,0.8,0.1c-0.9,2.4-1.8,4.8-2.8,7c-0.5,1.2-1.3,2.3-2,3.4
		c-0.6,0.8-1.5,1.3-2.5,1.4c-0.3,0-0.6,0-0.9,0c0.4,0.9,1.1,1.2,2,1c1-0.2,1.7-0.9,2.3-1.8c0.5-0.9,1-1.8,1.6-2.6
		c0.2-0.4,0.5-0.7,0.8-1c0.2-0.2,0.4-0.4,0.5-0.6c0.7-1.9,1.5-3.9,2.2-5.8C65.7,45.8,66,45.2,67,45.4L67,45.4z"/>
	<path d="M94,26c-1.2,0-1.5,0.2-1.9,1c-1,2.2-2.3,4.1-3.9,5.7c-0.4,0.4-0.9,0.7-1.3,1c-0.2,0.1-0.5,0.1-0.8,0.1c0-0.3-0.1-0.6,0-0.8
		c0.2-0.6,0.5-1.1,0.8-1.7c0.7-1.5,1.4-2.9,2.1-4.4c0.2-0.4,0.2-0.9,0.4-1.5c-1.1,0.4-1.9,0.7-2.8,1c0,0.1,0,0.1,0,0.2
		c0.2,0.1,0.4,0.2,0.5,0.2c0.4,0,0.4,0.2,0.3,0.5c-0.1,0.2-0.1,0.4-0.2,0.6c-0.6,1.3-1.3,2.6-1.9,4c-0.3,0.7-0.6,1.4-0.7,2.1
		c-0.1,0.8,0.4,1.3,1.2,1c0.6-0.2,1.1-0.5,1.6-0.8c0.9-0.7,1.7-1.4,2.5-2c-0.2,0.9-0.4,1.9-0.6,3c1-0.4,1.9-0.7,2.7-1.1
		c0.2-0.1,0.2-0.3,0.4-0.6c-0.6,0.1-1,0.1-1.6,0.1c0.6-1.4,1.1-2.7,1.7-3.9C92.8,28.5,93.4,27.3,94,26L94,26z"/>
	<path d="M91.3,50c-0.6,0.8-1.3,1.3-2.2,1.6c-0.9,0.2-1.2-0.1-1.1-1c0.1-1.2,0.6-2.3,1.2-3.3c0.4,0.1,0.7,0.3,1.1,0.3
		c1.2,0,3.5-1.5,4-2.6c0.3-0.6,0.1-1.1-0.6-1.1c-0.6-0.1-1.2,0-1.7,0.2c-2.2,0.9-3.9,2.3-4.9,4.4c-0.4,0.8-0.6,1.8-0.7,2.7
		c-0.1,1.3,0.7,1.9,1.9,1.5c1.8-0.5,3.2-1.7,4.2-3.2c0.3-0.5,0.4-1,0.1-1.6C92.2,48.7,91.8,49.3,91.3,50L91.3,50z M91.3,45.2
		c0.4-0.3,1-0.4,1.3,0.1c0.3,0.5-0.2,0.9-0.6,1.1c-0.7,0.5-1.5,0.6-2.4,0.6c0-0.1-0.1-0.1-0.1-0.2C90.1,46.2,90.7,45.6,91.3,45.2
		L91.3,45.2z"/>
	<path d="M152.6,50.1c-0.5,0.6-1.2,1.1-1.9,1.4c-1,0.4-1.4,0-1.2-1c0.1-1.2,0.6-2.2,1.2-3.1c0.4,0.1,0.8,0.3,1.1,0.3
		c1.7-0.2,3-1.1,4-2.6c0.4-0.6,0.1-1.1-0.6-1.2c-0.6-0.1-1.2,0-1.7,0.2c-2.2,0.8-3.8,2.3-4.9,4.3c-0.4,0.8-0.6,1.8-0.7,2.7
		c-0.1,1.3,0.7,1.9,2,1.6c1.8-0.5,3.1-1.7,4.2-3.2c0.3-0.5,0.5-1,0.1-1.6C153.6,48.7,153.2,49.5,152.6,50.1L152.6,50.1z M152.8,45.1
		c0.4-0.2,1-0.3,1.2,0.1c0.2,0.5-0.2,0.8-0.6,1c-0.7,0.5-1.6,0.7-2.5,0.6C151.5,46.1,152,45.4,152.8,45.1L152.8,45.1z"/>
	<path d="M120.5,34.9c1.8-0.5,3.1-1.7,4.1-3.2c0.3-0.5,0.5-1.1,0.1-1.7c-0.4,0.6-0.7,1.2-1.1,1.7c-0.6,0.9-1.4,1.7-2.6,1.9
		c-0.8,0.2-1,0-1-0.8c0-1.3,0.6-2.4,1.3-3.5c0.7,0.5,1,0.6,1.8,0.3c1.2-0.4,2.1-1.1,2.9-2c0.3-0.4,0.6-0.8,0.3-1.3
		C126,26,125.5,26,125,26c-1.5,0.2-2.7,1-3.8,2c-1.6,1.4-2.7,3-2.8,5.2C118.3,34.6,119.1,35.3,120.5,34.9L120.5,34.9z M123.7,27.2
		c0.2,0,0.5,0,0.7,0.1c0.1,0,0.2,0,0.2,0.1l0,0c0,0.1-0.1,0.2-0.1,0.2c-0.1,0.2-0.1,0.5-0.3,0.6c-0.7,0.7-1.7,0.8-2.8,0.9
		C122.1,28.2,122.7,27.4,123.7,27.2L123.7,27.2z"/>
	<path d="M110.2,31.7c0.3-0.5,0.4-1,0-1.5c-0.5,0.7-0.9,1.4-1.4,2.1c-0.5,0.7-1.2,1.2-2,1.4c-1,0.3-1.3,0-1.2-1.1
		c0.1-1.2,0.6-2.2,1.3-3.2c0.6,0.5,0.8,0.5,1.5,0.4c1.3-0.3,2.4-1.1,3.3-2.2c0.1-0.1,0.2-0.3,0.2-0.4c0.2-0.5,0-1-0.5-1.1
		c-0.2-0.1-0.5-0.1-0.8,0c-2,0.3-3.5,1.5-4.8,3c-1.1,1.2-1.8,2.7-1.8,4.4c0,1.3,0.7,1.9,1.9,1.5C107.8,34.5,109.2,33.3,110.2,31.7
		L110.2,31.7z M108.5,27.6c0.3-0.2,0.7-0.3,1.1-0.4c0.2,0,0.5,0.1,0.6,0.3c0.1,0.2,0,0.5-0.2,0.6c-0.3,0.3-0.7,0.6-1.1,0.7
		c-0.5,0.2-1.1,0.3-1.7,0.4c0-0.1-0.1-0.2-0.1-0.2C107.5,28.5,108,28,108.5,27.6L108.5,27.6z"/>
	<path d="M138.1,51.5c-0.4,0.2-0.6,0-0.5-0.4c0-0.2,0.1-0.4,0.2-0.6c0.5-1.2,1-2.3,1.5-3.5c0.9-2.2,1.8-4.4,2.6-6.6
		c0.1-0.3,0.1-0.8,0.2-1.2c-1.1,0.4-2,0.8-2.9,1.1c0.1,0.8,0.7,0.3,1.1,0.6c-0.6,1.4-1.2,2.7-1.7,4.1c-0.8,1.9-1.6,3.8-2.3,5.8
		c-0.2,0.4-0.2,0.9-0.2,1.4c0,0.8,0.5,1.1,1.2,0.7c0.7-0.3,1.3-0.7,2-1.1c-0.1-0.2-0.2-0.4-0.3-0.6
		C138.5,51.3,138.3,51.4,138.1,51.5L138.1,51.5z"/>
	<path d="M134.4,51.4c-0.2,0.1-0.4,0.1-0.7,0.2c0-0.2-0.1-0.5,0-0.7c0.4-1,0.8-2,1.2-3c1-2.3,2-4.7,2.9-7c0.2-0.5,0.2-1,0.3-1.7
		c-1.1,0.4-2,0.8-2.9,1.1c0.1,0.8,0.7,0.3,1,0.6c-0.3,0.8-0.6,1.5-0.9,2.3c-1,2.4-2,4.8-3,7.2c-0.2,0.6-0.3,1.2-0.3,1.9
		c0,0.7,0.5,1,1.1,0.7c0.6-0.3,1.2-0.7,1.8-1.1c0,0,0.1-0.1,0.1-0.2c-0.1-0.1-0.2-0.3-0.3-0.5C134.6,51.2,134.5,51.3,134.4,51.4
		L134.4,51.4z"/>
	<path d="M113.5,30c1-2.4,2-4.9,3-7.3c0.2-0.4,0.2-0.8,0.2-1.3c-1.1,0.4-2,0.8-2.9,1.1c0,0.8,0.7,0.4,1,0.6
		c-0.1,0.2-0.1,0.5-0.2,0.7c-0.4,1-0.9,2-1.3,3.1c-0.8,1.9-1.6,3.9-2.4,5.9c-0.2,0.6-0.3,1.2-0.2,1.8c0,0.6,0.5,0.9,1.1,0.6
		c0.7-0.3,1.3-0.8,2-1.2c-0.2-0.3-0.3-0.4-0.3-0.6c-0.4,0.2-0.7,0.3-1.3,0.6c0.1-0.5,0.1-0.7,0.2-1C112.7,31.9,113.1,30.9,113.5,30
		L113.5,30z"/>
	<path d="M161.7,43.8c-0.5,0.2-1,0.4-1.4,0.7c-0.6,0.4-1.2,0.9-1.7,1.4c0.1-0.7,0.2-1.4,0.4-2.2c-0.9,0.4-1.7,0.8-2.4,1.3
		c-0.1,0.1-0.1,0.3-0.2,0.6c0.4-0.1,0.7-0.2,1.1-0.3c-0.9,2.6-1.8,5.1-2.7,7.6c0.9-0.1,1.5-0.4,1.7-1.3c0.5-1.7,1.2-3.3,2.3-4.8
		c0.8-1,1.6-1.9,3-1.8c0.3,0,0.7-0.6,0.6-0.9C162.3,43.7,161.9,43.7,161.7,43.8L161.7,43.8z"/>
	<path d="M101.1,44.1c-0.2-0.1-0.5-0.4-0.7-0.3c-0.4,0.1-0.8,0.2-1.1,0.5c-0.7,0.5-1.4,1.1-2.1,1.6c0.1-0.7,0.2-1.4,0.4-2.1
		c-0.9,0.4-1.7,0.8-2.4,1.3c-0.1,0.1-0.1,0.3-0.3,0.6c0.5-0.1,0.7-0.2,1.1-0.3c-0.9,2.6-1.8,5.1-2.7,7.7c0.3-0.1,0.4-0.1,0.6-0.2
		c0.6-0.1,0.9-0.5,1.1-1c0.6-1.6,1.3-3.1,2.1-4.6c0.7-1.2,1.7-2.2,3.3-2.2C100.7,45,100.9,44.4,101.1,44.1L101.1,44.1z"/>
	<path d="M125,35.1c1.4-0.3,1.4-0.3,1.8-1.5c0.6-1.7,1.3-3.3,2.3-4.7c0.7-1,1.6-1.8,3-1.7c0.3,0,0.7-0.6,0.7-0.9
		c-0.1-0.4-0.4-0.5-0.7-0.4c-0.4,0.1-0.9,0.3-1.2,0.6c-0.7,0.5-1.3,1-1.9,1.5c0.1-0.7,0.2-1.4,0.4-2.3c-0.9,0.6-1.7,1-2.4,1.5
		c-0.1,0.1-0.1,0.3-0.2,0.6c0.4-0.1,0.6-0.2,1-0.3C126.8,30.1,125.9,32.6,125,35.1L125,35.1z"/>
	<path d="M67.9,50.7c0.5-0.9,1.1-1.8,1.6-2.7c0.5-0.9,0.9-1.8,1.3-2.7c0.2-0.5,0.2-1,0.3-1.7c-1.2,0.5-2.2,0.9-3.3,1.3
		c0.2,1,0.9,0,1.3,0.5c-0.3,0.6-0.5,1.3-0.9,2c-0.6,1.2-1.3,2.4-1.9,3.6c-0.3,0.6-0.4,1.3-0.6,2.1c1-0.4,1.8-0.6,2.5-0.9
		c0.1,0,0.1-0.3,0.3-0.5c-0.5,0.1-0.7,0.1-1.2,0.2C67.6,51.3,67.7,50.9,67.9,50.7L67.9,50.7z"/>
	<path d="M119.2,28c0.3-0.6,0.4-1.4,0.6-2.1c-0.1,0-0.1-0.1-0.2-0.1c-1,0.4-1.9,0.8-2.8,1.2c-0.1,0.1-0.1,0.4-0.2,0.6
		c0.5-0.1,0.8-0.2,1.1-0.2c0.1,0,0.1,0.1,0.2,0.1c-0.3,0.7-0.6,1.4-0.9,2.1c-0.6,1.3-1.3,2.5-1.9,3.8c-0.3,0.5-0.3,1.2-0.5,1.9
		c1-0.4,1.9-0.7,2.8-1c-0.2-0.8-0.8-0.1-1.1-0.5c0.2-0.5,0.5-1.1,0.8-1.6C117.7,30.7,118.5,29.4,119.2,28L119.2,28z"/>
	<path d="M104.8,47.9c-0.7,0.4-1.4,0.1-2.1-0.1c-1.4-0.2-2.2,0.1-2.9,1.5c0.3,0,0.5-0.1,0.7-0.1c0.5-0.1,1-0.2,1.5-0.2
		c0.5,0,0.9,0.2,1.4,0.2c0.9,0.1,1.5-0.4,1.9-1.3C105.1,48,104.9,47.9,104.8,47.9L104.8,47.9z"/>
	<path d="M119.5,24.6c0.5,0,0.8-0.3,0.8-0.7c0-0.4-0.2-0.7-0.6-0.7c-0.4,0-0.9,0.4-0.9,0.8C118.9,24.4,119.1,24.6,119.5,24.6
		L119.5,24.6z"/>
	<path d="M106,1.6c-1.1,0-2.2,0-3.4,0c0.1,0.1,0.1,0.1,0.1,0.1"/>
	<path d="M85.3,7c-0.1-0.1-0.4-0.1-0.7-0.2c0,0.1-0.1,0.2-0.1,0.2"/>
	<path d="M112,10.1c-0.1,0.1-0.1,0.2-0.2,0.3c0,0,0.1,0,0.1,0.1"/>
	<path d="M116,7c-0.5-0.3-0.8,0-1.1,0.2"/>
	<path d="M86.7,5.1c0,0-0.1-0.1-0.1-0.1c-0.6,0.4-1.3,0.9-1.9,1.3c0,0.1,0.1,0.1,0.1,0.2"/>
	<path d="M84.5,26.8C84.5,26.8,84.5,26.8,84.5,26.8L84.5,26.8C84.5,26.8,84.5,26.8,84.5,26.8L84.5,26.8z"/>
</g>
</svg>
