<?xml version="1.0" encoding="utf-8"?>
<!-- Generator: Adobe Illustrator 19.2.0, SVG Export Plug-In . SVG Version: 6.00 Build 0)  -->
<!DOCTYPE svg PUBLIC "-//W3C//DTD SVG 1.1//EN" "http://www.w3.org/Graphics/SVG/1.1/DTD/svg11.dtd">
<svg version="1.1" id="Refs" xmlns="http://www.w3.org/2000/svg" xmlns:xlink="http://www.w3.org/1999/xlink" x="0px" y="0px"
	 viewBox="0 0 200 60" style="enable-background:new 0 0 200 60;" xml:space="preserve">
<g id="Global_Spot">
	<g>
		<path d="M21,30.6c0,1.7-0.2,3.1-0.7,4.2c-0.5,1.1-1.1,2-2,2.7c-0.9,0.7-1.9,1.1-3.1,1.4c-1.2,0.3-2.6,0.4-4.1,0.4
			c-1.2,0-2.4-0.1-3.6-0.2c-1.2-0.1-2.2-0.3-3.1-0.5v-4.4h0.7c0.7,0.3,1.5,0.5,2.5,0.7c1,0.2,1.9,0.3,2.7,0.3c1,0,1.9-0.1,2.6-0.3
			c0.7-0.2,1.2-0.5,1.5-0.8c0.3-0.3,0.6-0.8,0.7-1.3c0.1-0.5,0.2-1.2,0.2-1.9v-0.3c-0.7,0.6-1.4,1-2.3,1.3c-0.8,0.3-1.8,0.5-2.8,0.5
			c-2.5,0-4.4-0.7-5.7-2.2c-1.3-1.5-2-3.8-2-6.8c0-1.5,0.2-2.7,0.6-3.8c0.4-1.1,1-2,1.7-2.8C5.5,16,6.4,15.4,7.4,15
			c1-0.4,2.1-0.6,3.1-0.6c1,0,1.8,0.1,2.6,0.3s1.5,0.5,2.1,0.9l0.2-0.8H21V30.6z M15.3,27v-8c-0.3-0.1-0.7-0.2-1.2-0.3
			c-0.5-0.1-0.9-0.1-1.3-0.1c-1.5,0-2.6,0.4-3.4,1.3c-0.7,0.9-1.1,2.1-1.1,3.6c0,1.7,0.3,2.9,1,3.6c0.6,0.7,1.6,1,2.8,1
			c0.6,0,1.1-0.1,1.7-0.3C14.3,27.6,14.8,27.3,15.3,27z"/>
		<path d="M32,32.6h-5.7V8.1H32V32.6z"/>
	</g>
	<g>
		<path d="M82,23.5c0,2.8-0.8,5.1-2.3,6.8C78.2,32.1,76.3,33,74,33c-1,0-1.9-0.1-2.6-0.3c-0.7-0.2-1.5-0.5-2.1-0.9L69,32.6h-5.5V8.1
			h5.7v8.7c0.9-0.7,1.8-1.3,2.7-1.7c0.9-0.4,2-0.6,3.1-0.6c2.2,0,4,0.8,5.2,2.4C81.4,18.4,82,20.7,82,23.5z M76.2,23.6
			c0-1.6-0.3-2.8-0.8-3.6c-0.5-0.9-1.5-1.3-2.9-1.3c-0.5,0-1.1,0.1-1.7,0.2c-0.6,0.2-1.1,0.4-1.6,0.7v8.9c0.4,0.1,0.8,0.2,1.2,0.3
			c0.4,0.1,0.8,0.1,1.3,0.1c1.5,0,2.6-0.4,3.4-1.3C75.8,26.7,76.2,25.4,76.2,23.6z"/>
		<path d="M96.8,30.7c-0.3,0.2-0.7,0.5-1.1,0.8c-0.5,0.3-0.9,0.6-1.3,0.8c-0.6,0.3-1.1,0.4-1.7,0.6c-0.6,0.1-1.3,0.2-2,0.2
			c-1.7,0-3.1-0.5-4.2-1.6c-1.1-1-1.7-2.4-1.7-4c0-1.3,0.3-2.4,0.9-3.2c0.6-0.8,1.4-1.5,2.5-1.9c1.1-0.5,2.4-0.8,3.9-1
			c1.6-0.2,3.2-0.3,4.8-0.4v-0.1c0-1-0.4-1.7-1.2-2c-0.8-0.4-2-0.6-3.5-0.6c-0.9,0-1.9,0.2-3,0.5c-1.1,0.3-1.8,0.6-2.3,0.8h-0.5
			v-4.3c0.6-0.2,1.6-0.3,2.9-0.6c1.4-0.2,2.7-0.3,4.1-0.3c3.2,0,5.6,0.5,7,1.5c1.4,1,2.2,2.6,2.2,4.7v12.1h-5.6V30.7z M96.8,28v-3.7
			c-0.8,0.1-1.6,0.1-2.5,0.3c-0.9,0.1-1.6,0.2-2,0.4c-0.6,0.2-1,0.4-1.3,0.8c-0.3,0.3-0.4,0.8-0.4,1.3c0,0.4,0,0.7,0.1,0.9
			c0.1,0.2,0.2,0.5,0.5,0.7c0.2,0.2,0.5,0.4,0.9,0.5c0.3,0.1,0.9,0.1,1.6,0.1c0.6,0,1.1-0.1,1.7-0.3S96.4,28.4,96.8,28z"/>
		<path d="M113.4,32.6h-5.7V8.1h5.7V32.6z"/>
	</g>
	<g>
		<path d="M137,27.5c0,1.6-0.7,2.9-2,4c-1.3,1-3.1,1.5-5.4,1.5c-1.3,0-2.5-0.2-3.6-0.5c-1.1-0.3-2-0.6-2.7-1v-3.3h0.2
			c0.9,0.7,2,1.3,3.1,1.7c1.1,0.4,2.2,0.6,3.3,0.6c1.3,0,2.3-0.2,3.1-0.6c0.7-0.4,1.1-1.1,1.1-2c0-0.7-0.2-1.2-0.6-1.6
			c-0.4-0.4-1.2-0.7-2.3-0.9c-0.4-0.1-1-0.2-1.6-0.3c-0.7-0.1-1.3-0.3-1.9-0.4c-1.5-0.4-2.6-1-3.3-1.8c-0.6-0.8-1-1.8-1-2.9
			c0-0.7,0.1-1.4,0.4-2.1c0.3-0.6,0.8-1.2,1.4-1.7c0.6-0.5,1.3-0.9,2.2-1.2s1.9-0.4,3.1-0.4c1.1,0,2.1,0.1,3.2,0.4s2,0.6,2.7,0.9
			v3.2h-0.2c-0.8-0.6-1.7-1-2.8-1.4c-1.1-0.4-2.1-0.6-3.2-0.6c-1.1,0-2,0.2-2.7,0.6c-0.7,0.4-1.1,1-1.1,1.9c0,0.7,0.2,1.3,0.7,1.6
			c0.4,0.4,1.2,0.7,2.1,0.9c0.5,0.1,1.2,0.3,1.8,0.4c0.7,0.1,1.2,0.2,1.7,0.3c1.4,0.3,2.4,0.9,3.2,1.6C136.6,25.2,137,26.3,137,27.5
			z"/>
		<path d="M156.7,23.6c0,1.4-0.2,2.7-0.6,3.9c-0.4,1.2-1,2.2-1.7,3c-0.7,0.8-1.5,1.4-2.5,1.8c-0.9,0.4-1.9,0.6-3,0.6
			c-0.9,0-1.7-0.1-2.5-0.3c-0.7-0.2-1.5-0.5-2.3-0.9v7.4h-3V15h3v1.8c0.8-0.7,1.7-1.2,2.7-1.7c1-0.4,2-0.7,3.1-0.7
			c2.1,0,3.8,0.8,5,2.4C156.1,18.5,156.7,20.7,156.7,23.6z M153.7,23.7c0-2.1-0.4-3.7-1.1-4.8s-1.8-1.6-3.3-1.6
			c-0.9,0-1.7,0.2-2.6,0.6c-0.9,0.4-1.7,0.9-2.5,1.5v10c0.8,0.4,1.6,0.6,2.2,0.8c0.6,0.1,1.3,0.2,2.1,0.2c1.7,0,2.9-0.6,3.9-1.7
			C153.2,27.5,153.7,25.9,153.7,23.7z"/>
	</g>
	<g>
		<path d="M197.2,32.5c-0.6,0.1-1.2,0.3-1.8,0.4c-0.7,0.1-1.2,0.1-1.8,0.1c-1.8,0-3.2-0.5-4.1-1.5c-0.9-1-1.4-2.5-1.4-4.7v-9.4h-2
			V15h2V9.9h3V15h6.1v2.5h-6.1v8c0,0.9,0,1.6,0.1,2.2c0,0.5,0.2,1,0.4,1.5c0.2,0.4,0.5,0.7,1,0.9c0.4,0.2,1,0.3,1.9,0.3
			c0.5,0,1-0.1,1.5-0.2c0.5-0.1,0.9-0.3,1.1-0.4h0.2V32.5z"/>
	</g>
	<g>
		<g>
			<g>
				<g>
					<g>
						<g>
							<g>
								<path d="M57.6,18.2c0.6,1.5,1.1,3.5,0.9,5.7c-0.2,2-0.8,3.7-1.6,5.1c-0.7,1.2-1.6,2.2-2.7,3.1c-0.2,0.1-0.3,0.3-0.5,0.4
									c0,0,0,0,0,0c1.1-1.3,1.9-2.8,2.4-4.7c0.1-0.4,0.2-0.8,0.2-1.2c0.1-0.8,0.1-1.7,0.1-2.7c-0.1-0.9-0.2-1.7-0.4-2.4
									c-0.5-1.8-1.4-3.3-2.5-4.6c-1.1-1.3-2.4-2.3-4.1-3c-1-0.4-2.1-0.7-3.4-0.8c-0.4,0-0.9-0.1-1.3,0c-1.8,0.1-3.3,0.5-4.5,1.1
									c-1.3,0.6-2.4,1.4-3.3,2.3c0,0,0,0,0,0c1.3-2,3.1-3.6,5.5-4.5c0.8-0.3,1.7-0.6,2.6-0.7c1-0.1,2.1-0.2,3.1-0.1
									c1,0.1,1.9,0.3,2.7,0.6c1.6,0.6,3,1.5,4.1,2.5C56,15.4,57,16.7,57.6,18.2"/>
								<path d="M53.9,23.8c0.1,0.8,0,1.8-0.1,2.6c-0.3,1.6-0.9,2.9-1.8,3.9c-0.6,0.8-1.4,1.4-2.3,2c-0.9,0.5-1.9,0.9-3.1,1.1
									c-0.8,0.1-1.6,0.2-2.5,0.1c-1.7-0.2-3-0.7-4.2-1.3c0,0,0,0-0.1,0c0,0,0,0,0,0c0.6,0.2,1.3,0.3,2.1,0.3c0.8,0,1.5,0,2.2-0.1
									c1.3-0.2,2.5-0.7,3.4-1.4c0.9-0.6,1.8-1.4,2.4-2.4c0.6-0.9,1.1-2,1.4-3.4c0.3-1.4,0.1-3-0.2-4.2c-0.7-2.4-2.2-4.2-4.1-5.4
									c-1-0.6-2.1-1.1-3.3-1.4c0,0,0,0,0,0c1.8,0.1,3.2,0.5,4.5,1.2c1.2,0.7,2.3,1.5,3.2,2.5c0.9,1,1.6,2.2,2.1,3.6
									C53.6,22.2,53.8,23,53.9,23.8"/>
								<path d="M45.5,22.7c0.1,0.6,0.1,1.3,0.1,1.9c0,0,0,0,0-0.1c-0.3-1.8-1.1-3.2-2.2-4.3c-0.7-0.7-1.6-1.2-2.8-1.3
									c-0.7-0.1-1.4,0.2-2,0.4c-1,0.6-1.7,1.6-2.1,2.8c-0.3,0.8-0.4,1.9-0.3,2.9c0.1,1.5,0.6,2.7,1.2,3.7
									c-0.3-0.4-0.6-0.9-0.9-1.3c-0.3-0.5-0.5-1-0.7-1.5c-0.4-1.1-0.7-2.3-0.7-3.5c0-1.2,0.2-2.5,0.6-3.6c0.4-1,1-1.9,2-2.5
									c0.5-0.3,1-0.5,1.6-0.6c0.3,0,0.6,0,0.9,0c0.3,0,0.6,0.1,0.9,0.2c1,0.4,1.9,1.1,2.5,1.9C44.6,19.3,45.3,20.8,45.5,22.7"/>
							</g>
						</g>
					</g>
				</g>
			</g>
		</g>
	</g>
	<g>
		<path d="M95.3,45.3l-2.1,7.6H92l-2.1-5.9l-2,5.9h-1.2l-2.1-7.6h1.4l1.5,5.9l2-5.9h1.1l2.1,5.9l1.4-5.9H95.3z"/>
		<path d="M104,49.3h-5.9c0,0.5,0.1,0.9,0.2,1.2c0.1,0.3,0.4,0.6,0.6,0.9c0.2,0.2,0.5,0.4,0.9,0.5s0.7,0.2,1.1,0.2
			c0.5,0,1.1-0.1,1.6-0.3c0.6-0.2,0.9-0.4,1.2-0.6h0.1v1.4c-0.5,0.2-0.9,0.3-1.4,0.5c-0.5,0.1-1,0.2-1.5,0.2c-1.3,0-2.4-0.3-3.1-1
			c-0.7-0.7-1.1-1.7-1.1-2.9c0-1.2,0.4-2.2,1.1-3c0.7-0.7,1.7-1.1,2.8-1.1c1.1,0,1.9,0.3,2.5,0.9c0.6,0.6,0.9,1.4,0.9,2.6V49.3z
			 M102.7,48.3c0-0.7-0.2-1.2-0.5-1.6c-0.4-0.4-0.9-0.6-1.6-0.6c-0.7,0-1.3,0.2-1.7,0.6c-0.4,0.4-0.7,0.9-0.7,1.5H102.7z"/>
	</g>
	<g>
		<path d="M117.4,52.9h-1.3v-0.8c-0.1,0.1-0.3,0.2-0.5,0.3c-0.2,0.1-0.4,0.2-0.6,0.3c-0.2,0.1-0.5,0.2-0.8,0.3s-0.6,0.1-1,0.1
			c-0.7,0-1.3-0.2-1.8-0.7c-0.5-0.5-0.8-1-0.8-1.7c0-0.6,0.1-1,0.4-1.4c0.3-0.4,0.6-0.6,1.1-0.8c0.5-0.2,1.1-0.3,1.8-0.4
			c0.7-0.1,1.4-0.1,2.2-0.2v-0.2c0-0.3-0.1-0.5-0.2-0.7c-0.1-0.2-0.3-0.3-0.5-0.4c-0.2-0.1-0.4-0.2-0.7-0.2c-0.3,0-0.5-0.1-0.8-0.1
			c-0.4,0-0.7,0-1.2,0.1c-0.4,0.1-0.9,0.2-1.3,0.4h-0.1v-1.3c0.3-0.1,0.6-0.1,1.1-0.2c0.5-0.1,1-0.1,1.5-0.1c0.6,0,1.1,0,1.5,0.1
			c0.4,0.1,0.8,0.2,1.1,0.5c0.3,0.2,0.5,0.5,0.7,0.8c0.2,0.3,0.2,0.7,0.2,1.2V52.9z M116.1,51.1v-2.1c-0.4,0-0.9,0.1-1.5,0.1
			c-0.6,0-1,0.1-1.3,0.2c-0.4,0.1-0.7,0.3-0.9,0.5c-0.2,0.2-0.4,0.5-0.4,0.9c0,0.4,0.1,0.8,0.4,1c0.3,0.2,0.7,0.3,1.3,0.3
			c0.5,0,0.9-0.1,1.3-0.3S115.7,51.3,116.1,51.1z"/>
		<path d="M125,46.7L125,46.7c-0.3,0-0.5-0.1-0.7-0.1c-0.2,0-0.4,0-0.7,0c-0.4,0-0.8,0.1-1.2,0.3s-0.8,0.4-1.1,0.7v5.4H120v-7.6h1.3
			v1.1c0.5-0.4,1-0.7,1.4-0.9c0.4-0.2,0.8-0.3,1.3-0.3c0.2,0,0.4,0,0.5,0c0.1,0,0.3,0,0.5,0.1V46.7z"/>
		<path d="M133,49.3h-5.9c0,0.5,0.1,0.9,0.2,1.2c0.1,0.3,0.4,0.6,0.6,0.9c0.2,0.2,0.5,0.4,0.9,0.5c0.3,0.1,0.7,0.2,1.1,0.2
			c0.5,0,1.1-0.1,1.6-0.3c0.6-0.2,0.9-0.4,1.2-0.6h0.1v1.4c-0.5,0.2-0.9,0.3-1.4,0.5s-1,0.2-1.5,0.2c-1.3,0-2.4-0.3-3.1-1
			c-0.7-0.7-1.1-1.7-1.1-2.9c0-1.2,0.4-2.2,1.1-3c0.7-0.7,1.7-1.1,2.8-1.1c1.1,0,1.9,0.3,2.5,0.9c0.6,0.6,0.9,1.4,0.9,2.6V49.3z
			 M131.7,48.3c0-0.7-0.2-1.2-0.5-1.6c-0.4-0.4-0.9-0.6-1.6-0.6c-0.7,0-1.3,0.2-1.7,0.6c-0.4,0.4-0.7,0.9-0.7,1.5H131.7z"/>
	</g>
	<g>
		<path d="M145.9,50.7c0,0.7-0.3,1.3-0.9,1.7c-0.6,0.4-1.4,0.7-2.5,0.7c-0.6,0-1.1-0.1-1.6-0.2c-0.5-0.1-0.9-0.3-1.2-0.4V51h0.1
			c0.4,0.3,0.9,0.5,1.4,0.7c0.5,0.2,1,0.3,1.5,0.3c0.6,0,1.1-0.1,1.4-0.3c0.3-0.2,0.5-0.5,0.5-0.9c0-0.3-0.1-0.5-0.3-0.7
			c-0.2-0.2-0.5-0.3-1-0.4c-0.2,0-0.4-0.1-0.7-0.1c-0.3-0.1-0.6-0.1-0.8-0.2c-0.7-0.2-1.2-0.4-1.5-0.8c-0.3-0.3-0.4-0.8-0.4-1.3
			c0-0.3,0.1-0.6,0.2-0.9c0.1-0.3,0.3-0.5,0.6-0.7c0.3-0.2,0.6-0.4,1-0.5c0.4-0.1,0.9-0.2,1.4-0.2c0.5,0,1,0.1,1.5,0.2
			s0.9,0.2,1.2,0.4v1.4h-0.1c-0.3-0.2-0.8-0.4-1.3-0.6c-0.5-0.2-1-0.2-1.4-0.2c-0.5,0-0.9,0.1-1.2,0.3c-0.3,0.2-0.5,0.4-0.5,0.8
			c0,0.3,0.1,0.5,0.3,0.7c0.2,0.2,0.5,0.3,1,0.4c0.2,0.1,0.5,0.1,0.8,0.2c0.3,0.1,0.6,0.1,0.8,0.1c0.6,0.1,1.1,0.4,1.4,0.7
			C145.8,49.7,145.9,50.2,145.9,50.7z"/>
		<path d="M154.9,49c0,0.6-0.1,1.2-0.3,1.7c-0.2,0.5-0.4,0.9-0.8,1.3c-0.3,0.3-0.7,0.6-1.1,0.8c-0.4,0.2-0.9,0.3-1.4,0.3
			c-0.4,0-0.8,0-1.1-0.1s-0.7-0.2-1-0.4v3.2h-1.3V45.3h1.3v0.8c0.4-0.3,0.8-0.5,1.2-0.7c0.4-0.2,0.9-0.3,1.4-0.3c1,0,1.7,0.3,2.3,1
			C154.7,46.9,154.9,47.8,154.9,49z M153.5,49.1c0-0.9-0.2-1.6-0.5-2.1c-0.3-0.5-0.8-0.7-1.5-0.7c-0.4,0-0.8,0.1-1.2,0.2
			s-0.8,0.4-1.1,0.6v4.3c0.4,0.2,0.7,0.3,1,0.3c0.3,0.1,0.6,0.1,0.9,0.1c0.8,0,1.3-0.2,1.8-0.7C153.3,50.7,153.5,50,153.5,49.1z"/>
		<path d="M163.9,49.1c0,1.2-0.3,2.2-1,2.9c-0.7,0.7-1.6,1.1-2.7,1.1c-1.1,0-2-0.4-2.7-1.1c-0.7-0.7-1-1.7-1-2.9
			c0-1.2,0.3-2.2,1-2.9c0.7-0.7,1.6-1.1,2.7-1.1c1.1,0,2,0.4,2.7,1.1C163.5,46.9,163.9,47.9,163.9,49.1z M162.5,49.1
			c0-1-0.2-1.7-0.6-2.2c-0.4-0.5-1-0.7-1.7-0.7c-0.7,0-1.3,0.2-1.7,0.7s-0.6,1.2-0.6,2.2c0,1,0.2,1.7,0.6,2.2c0.4,0.5,1,0.7,1.7,0.7
			c0.7,0,1.3-0.2,1.7-0.7C162.3,50.8,162.5,50.1,162.5,49.1z"/>
		<path d="M170.1,52.9c-0.3,0.1-0.5,0.1-0.8,0.2s-0.6,0.1-0.8,0.1c-0.8,0-1.4-0.2-1.9-0.6c-0.4-0.4-0.6-1.1-0.6-2v-4h-0.9v-1.1h0.9
			v-2.2h1.3v2.2h2.8v1.1h-2.8v3.5c0,0.4,0,0.7,0,0.9c0,0.2,0.1,0.4,0.2,0.6c0.1,0.2,0.2,0.3,0.4,0.4c0.2,0.1,0.5,0.1,0.8,0.1
			c0.2,0,0.4,0,0.7-0.1c0.2-0.1,0.4-0.1,0.5-0.2h0.1V52.9z"/>
	</g>
	<g>
		<path d="M183.7,49.1c0,1.2-0.3,2.2-1,2.9c-0.7,0.7-1.6,1.1-2.7,1.1c-1.1,0-2-0.4-2.7-1.1c-0.7-0.7-1-1.7-1-2.9
			c0-1.2,0.3-2.2,1-2.9c0.7-0.7,1.6-1.1,2.7-1.1c1.1,0,2,0.4,2.7,1.1C183.4,46.9,183.7,47.9,183.7,49.1z M182.4,49.1
			c0-1-0.2-1.7-0.6-2.2c-0.4-0.5-1-0.7-1.7-0.7c-0.7,0-1.3,0.2-1.7,0.7c-0.4,0.5-0.6,1.2-0.6,2.2c0,1,0.2,1.7,0.6,2.2
			c0.4,0.5,1,0.7,1.7,0.7c0.7,0,1.3-0.2,1.7-0.7C182.1,50.8,182.4,50.1,182.4,49.1z"/>
		<path d="M192.5,52.9h-1.3v-4.3c0-0.3,0-0.7-0.1-1c0-0.3-0.1-0.5-0.2-0.7c-0.1-0.2-0.3-0.3-0.5-0.4c-0.2-0.1-0.5-0.1-0.9-0.1
			c-0.4,0-0.8,0.1-1.2,0.3c-0.4,0.2-0.8,0.4-1.2,0.7v5.7h-1.3v-7.6h1.3v0.8c0.4-0.3,0.9-0.6,1.3-0.8c0.4-0.2,0.9-0.3,1.4-0.3
			c0.9,0,1.5,0.2,2,0.7c0.5,0.5,0.7,1.2,0.7,2.1V52.9z"/>
		<path d="M197.5,42.8l-0.2,7.3h-1.2l-0.2-7.3H197.5z M197.4,52.9H196v-1.4h1.5V52.9z"/>
	</g>
	<g>
		<g>
			<g>
				<g>
					<g>
						<g>
							<g>
								<path d="M182,18.2c0.6,1.5,1.1,3.5,0.9,5.7c-0.2,2-0.8,3.7-1.6,5.1c-0.7,1.2-1.6,2.2-2.7,3.1c-0.2,0.1-0.3,0.3-0.5,0.4
									c0,0,0,0,0,0c1.1-1.3,1.9-2.8,2.4-4.7c0.1-0.4,0.2-0.8,0.2-1.2c0.1-0.8,0.1-1.7,0.1-2.7c-0.1-0.9-0.2-1.7-0.4-2.4
									c-0.5-1.8-1.4-3.3-2.5-4.6c-1.1-1.3-2.4-2.3-4.1-3c-1-0.4-2.1-0.7-3.4-0.8c-0.4,0-0.9-0.1-1.3,0c-1.8,0.1-3.3,0.5-4.5,1.1
									c-1.3,0.6-2.4,1.4-3.3,2.3c0,0,0,0,0,0c1.3-2,3.1-3.6,5.5-4.5c0.8-0.3,1.7-0.6,2.6-0.7c1-0.1,2.1-0.2,3.1-0.1
									c1,0.1,1.9,0.3,2.7,0.6c1.6,0.6,3,1.5,4.1,2.5C180.4,15.4,181.3,16.7,182,18.2"/>
								<path d="M178.2,23.8c0.1,0.8,0,1.8-0.1,2.6c-0.3,1.6-0.9,2.9-1.8,3.9c-0.6,0.8-1.4,1.4-2.3,2c-0.9,0.5-1.9,0.9-3.1,1.1
									c-0.8,0.1-1.6,0.2-2.5,0.1c-1.7-0.2-3-0.7-4.2-1.3c0,0,0,0-0.1,0c0,0,0,0,0,0c0.6,0.2,1.3,0.3,2,0.3c0.8,0,1.5,0,2.2-0.1
									c1.3-0.2,2.5-0.7,3.4-1.4c0.9-0.6,1.8-1.4,2.4-2.4c0.6-0.9,1.1-2,1.4-3.4c0.3-1.4,0.1-3-0.2-4.2c-0.7-2.4-2.2-4.2-4.1-5.4
									c-1-0.6-2.1-1.1-3.3-1.4c0,0,0,0,0,0c1.8,0.1,3.2,0.5,4.5,1.2c1.2,0.7,2.3,1.5,3.2,2.5c0.9,1,1.6,2.2,2.1,3.6
									C178,22.2,178.1,23,178.2,23.8"/>
								<path d="M169.9,22.7c0.1,0.6,0.1,1.3,0.1,1.9c0,0,0,0,0-0.1c-0.3-1.8-1.1-3.2-2.2-4.3c-0.7-0.7-1.6-1.2-2.8-1.3
									c-0.7-0.1-1.4,0.2-2,0.4c-1,0.6-1.7,1.6-2.1,2.8c-0.3,0.8-0.4,1.9-0.3,2.9c0.1,1.5,0.6,2.7,1.2,3.7
									c-0.3-0.4-0.7-0.9-0.9-1.3c-0.3-0.5-0.5-1-0.7-1.5c-0.4-1.1-0.7-2.3-0.7-3.5c0-1.2,0.2-2.5,0.6-3.6c0.4-1,1-1.9,2-2.5
									c0.5-0.3,1-0.5,1.6-0.6c0.3,0,0.6,0,0.9,0c0.3,0,0.6,0.1,0.9,0.2c1,0.4,1.9,1.1,2.5,1.9C168.9,19.3,169.6,20.8,169.9,22.7"
									/>
							</g>
						</g>
					</g>
				</g>
			</g>
		</g>
	</g>
</g>
</svg>
