<?xml version="1.0" encoding="utf-8"?>
<!-- Generator: Adobe Illustrator 19.2.0, SVG Export Plug-In . SVG Version: 6.00 Build 0)  -->
<!DOCTYPE svg PUBLIC "-//W3C//DTD SVG 1.1//EN" "http://www.w3.org/Graphics/SVG/1.1/DTD/svg11.dtd">
<svg version="1.1" id="Refs" xmlns="http://www.w3.org/2000/svg" xmlns:xlink="http://www.w3.org/1999/xlink" x="0px" y="0px"
	 viewBox="0 0 200 60" style="enable-background:new 0 0 200 60;" xml:space="preserve">
<g id="Gueldenpfennig">
	<path d="M20.5,56.1h-2L18,55c-0.5,0.5-1.2,0.8-2,1c-0.8,0.2-1.8,0.3-3,0.3c-2.6,0-4.5-0.5-5.8-1.5c-1.3-1-2-2.5-2-4.5
		c0-2,0.7-3.5,2-4.5c1.3-1,3.2-1.5,5.8-1.5c2.1,0,3.9,0.4,5.2,1.1c1.3,0.7,2,1.7,2.2,3h-4.9c-0.2-0.5-0.6-0.8-0.9-1
		c-0.4-0.2-0.9-0.4-1.4-0.4c-0.9,0-1.7,0.3-2.2,0.9c-0.6,0.6-0.9,1.4-0.9,2.4c0,1,0.3,1.8,0.8,2.3c0.6,0.6,1.3,0.9,2.3,0.9
		c0.7,0,1.3-0.1,1.9-0.4c0.5-0.3,0.8-0.6,0.9-1.1h-1.9v-2.5h6.4V56.1z M28.5,43.6h3.1v2.2h-3.1V43.6z M26.3,47.2v4.2
		c0,0.7,0.1,1.1,0.3,1.4c0.2,0.2,0.6,0.4,1.1,0.4c0.6,0,1-0.1,1.4-0.4c0.3-0.3,0.5-0.7,0.5-1.2v-4.4h4v8.9h-4v-0.9
		c-0.5,0.4-1.1,0.7-1.7,0.8c-0.6,0.2-1.2,0.3-1.9,0.3c-1.3,0-2.2-0.3-2.8-1c-0.6-0.7-0.9-1.7-0.9-3.2v-4.9H26.3z M24.3,43.6h3.2v2.2
		h-3.2V43.6z M39.9,56.1h-4V44.5h4V56.1z M49.2,53c0.4-0.4,0.6-0.8,0.6-1.4c0-0.6-0.2-1.1-0.6-1.5c-0.4-0.4-0.9-0.5-1.5-0.5
		c-0.6,0-1.1,0.2-1.5,0.5c-0.4,0.4-0.6,0.9-0.6,1.5c0,0.6,0.2,1.1,0.6,1.4c0.4,0.4,0.9,0.5,1.5,0.5C48.4,53.6,48.9,53.4,49.2,53
		 M49.8,44.5h4v11.6H50l0-0.9c-0.5,0.4-1,0.6-1.6,0.8c-0.6,0.2-1.2,0.3-2,0.3c-1.5,0-2.7-0.4-3.5-1.3c-0.9-0.8-1.3-2-1.3-3.4
		c0-1.4,0.4-2.6,1.3-3.4c0.9-0.9,2.1-1.3,3.6-1.3c0.6,0,1.2,0.1,1.8,0.3c0.5,0.2,1,0.4,1.5,0.7V44.5z M60.2,49.5
		c-0.4,0.3-0.7,0.6-0.8,1.2h4.7c0-0.5-0.3-0.9-0.7-1.2c-0.4-0.3-0.9-0.4-1.6-0.4C61.2,49.1,60.6,49.2,60.2,49.5 M66.5,48.2
		c1.1,0.9,1.7,2.3,1.7,4.1v0.1h-8.6c0,0.5,0.2,0.9,0.6,1.1c0.4,0.3,1,0.4,1.7,0.4c0.5,0,0.9-0.1,1.2-0.2c0.3-0.1,0.5-0.3,0.7-0.5
		h4.3c-0.3,1-1,1.7-2.1,2.3c-1.1,0.5-2.5,0.8-4.3,0.8c-2,0-3.6-0.4-4.7-1.2c-1.1-0.8-1.7-2-1.7-3.5c0-1.5,0.6-2.7,1.7-3.5
		c1.1-0.8,2.7-1.3,4.7-1.3C63.8,46.9,65.4,47.3,66.5,48.2 M90.5,53c0.4-0.4,0.6-0.8,0.6-1.4c0-0.6-0.2-1.1-0.6-1.5
		c-0.4-0.4-0.9-0.5-1.5-0.5c-0.6,0-1.1,0.2-1.5,0.5C87.1,50.5,87,51,87,51.6c0,0.6,0.2,1.1,0.5,1.4c0.4,0.4,0.9,0.5,1.5,0.5
		S90.1,53.4,90.5,53 M75.3,47.3c0.6-0.2,1.2-0.3,1.9-0.3c1.3,0,2.2,0.3,2.8,1c0.6,0.7,0.9,1.7,0.9,3.1v4.9h-4v-4.2
		c0-0.7-0.1-1.1-0.3-1.4c-0.2-0.2-0.6-0.4-1.1-0.4c-0.6,0-1,0.1-1.4,0.4c-0.3,0.3-0.5,0.6-0.5,1.2v4.3h-4v-8.9h4v0.9
		C74.2,47.7,74.7,47.4,75.3,47.3 M93.9,48.2c0.9,0.8,1.3,2,1.3,3.4c0,1.4-0.5,2.6-1.4,3.4c-0.9,0.8-2.1,1.3-3.6,1.3
		c-0.6,0-1.2-0.1-1.8-0.2c-0.6-0.2-1.1-0.4-1.5-0.7v3.6h-4V47.2h3.8l0,0.9c0.5-0.4,1-0.6,1.6-0.8c0.6-0.2,1.2-0.3,1.9-0.3
		C91.8,46.9,93,47.3,93.9,48.2 M109.9,46.9c2.1,0,3.8,0.5,4.9,1.4c1.1,0.9,1.7,2.3,1.7,4.1v0.1h-8.6c0,0.5,0.2,0.9,0.6,1.1
		c0.4,0.3,1,0.4,1.7,0.4c0.5,0,0.9-0.1,1.2-0.2c0.3-0.1,0.5-0.3,0.7-0.5h4.3c-0.3,1-1,1.7-2.1,2.3c-1.1,0.5-2.5,0.8-4.3,0.8
		c-2,0-3.6-0.4-4.7-1.2c-1.1-0.8-1.7-2-1.7-3.5c0-1.5,0.6-2.7,1.7-3.5C106.3,47.3,107.9,46.9,109.9,46.9 M110.1,49.1
		c-0.7,0-1.3,0.1-1.7,0.4c-0.4,0.3-0.7,0.6-0.8,1.2h4.7c0-0.5-0.3-0.9-0.7-1.2C111.3,49.2,110.8,49.1,110.1,49.1 M101.3,44.3
		c0.4,0,0.8,0,1.5,0.1v2.1h-0.8c-0.3,0-0.5,0-0.6,0.1c-0.1,0.1-0.2,0.3-0.2,0.5v0.1h1.6v2.5h-1.6v6.3h-4v-6.3h-1.5v-2.5h1.5v-0.5
		c0-0.9,0.2-1.6,0.7-2c0.5-0.4,1.3-0.6,2.5-0.6H101.3z M129.1,56.1h-4v-4.2c0-0.7-0.1-1.1-0.3-1.4c-0.2-0.2-0.6-0.4-1.1-0.4
		c-0.6,0-1,0.1-1.4,0.4c-0.3,0.3-0.5,0.6-0.5,1.2v4.3h-4v-8.9h4v0.9c0.5-0.4,1.1-0.7,1.7-0.8c0.6-0.2,1.2-0.3,1.9-0.3
		c1.3,0,2.2,0.3,2.8,1c0.6,0.7,0.9,1.7,0.9,3.1V56.1z M135.2,47.2v0.9c0.5-0.4,1.1-0.7,1.7-0.8c0.6-0.2,1.2-0.3,1.9-0.3
		c1.3,0,2.2,0.3,2.8,1c0.6,0.7,0.9,1.7,0.9,3.1v4.9h-4v-4.2c0-0.7-0.1-1.1-0.3-1.4c-0.2-0.2-0.6-0.4-1.1-0.4c-0.6,0-1,0.1-1.4,0.4
		c-0.3,0.3-0.5,0.6-0.5,1.2v4.3h-4v-8.9H135.2z M144.6,44.2h4v2.3h-4V44.2z M148.7,56.1h-4v-8.9h4V56.1z M157.2,47.2
		c0.6,0.2,1.1,0.4,1.6,0.8l0-0.9h3.8v6.9c0,0.8,0,1.4-0.1,1.7c-0.1,0.4-0.2,0.6-0.3,0.9c-0.5,0.8-1.2,1.4-2.1,1.8
		c-0.9,0.4-2.2,0.6-3.7,0.6c-1.8,0-3.1-0.2-4.1-0.7c-0.9-0.5-1.5-1.2-1.7-2.2h5.3c0.1,0.2,0.2,0.3,0.4,0.4c0.2,0.1,0.4,0.1,0.7,0.1
		c0.6,0,1-0.1,1.3-0.4c0.2-0.3,0.4-0.7,0.4-1.3v-0.3v-0.2c-0.4,0.3-0.9,0.6-1.5,0.7c-0.6,0.2-1.2,0.2-2,0.2c-1.4,0-2.6-0.4-3.4-1.2
		c-0.9-0.8-1.3-1.8-1.3-3.1c0-1.3,0.4-2.3,1.3-3.1c0.9-0.8,2-1.2,3.5-1.2C155.9,46.9,156.5,47,157.2,47.2 M155.1,50.1
		c-0.4,0.3-0.6,0.7-0.6,1.2c0,0.5,0.2,0.9,0.6,1.2c0.4,0.3,0.8,0.4,1.5,0.4c0.6,0,1.1-0.1,1.5-0.4c0.4-0.3,0.6-0.7,0.6-1.2
		c0-0.5-0.2-0.9-0.6-1.2c-0.4-0.3-0.9-0.5-1.5-0.5C155.9,49.6,155.5,49.8,155.1,50.1 M180.6,47.5h-4.1v8.6H172v-8.6h-4.1v-2.9H185
		l2.4,7.7l2.5-7.7h5l-5.3,11.5H185l-4.4-10V47.5z"/>
	<path d="M101.1,4.4c-0.1,0-0.2,0-0.3,0c-4.8,0-9,1.7-12.4,5.1c-3.4,3.4-5.1,7.6-5.1,12.4c0,0.6,0,1.1,0.1,1.6
		c0.9-1.8,2.1-3.8,3.5-5.9C90.6,12.2,95.4,7.8,101.1,4.4"/>
	<path d="M88,33.8c0.1,0.2,0.3,0.3,0.5,0.5c1.1,1.1,2.3,2.1,3.6,2.8c1.6,0.2,3.2-0.1,4.9-0.9c3.1-1.5,6.1-3.4,9-5.7
		c0.5-0.4,0.9-0.8,1.4-1.1c2.4-2,4.6-4.3,6.8-6.9c0.2-0.2,0.3-0.4,0.5-0.6h-10.7v2.2c4.4,0.3,5.3,1.7,2.9,4.3
		c-1.7,1.5-3.6,2.3-5.9,2.3c-2.4,0-4.5-0.9-6.2-2.6c-1.7-1.7-2.6-3.8-2.6-6.2c0-2.4,0.9-4.5,2.6-6.2c1.7-1.7,3.8-2.6,6.2-2.6
		c2.4,0,4.5,0.9,6.2,2.6c1,1,1.7,2.2,2.2,3.4l7.5,0c0.4-0.5,0.8-1.1,1.1-1.6c-0.7-3-2.3-5.6-4.6-8c-2.3-2.3-5-3.9-8-4.6
		C100.4,7,94.7,11.7,88.2,19c-1.8,2-3.3,4.2-4.5,6.6C84.2,28.7,85.7,31.4,88,33.8C88,33.8,88,33.8,88,33.8C88,33.8,88,33.8,88,33.8"
		/>
	<path d="M116.4,23.1c-1.6,2.3-3.5,4.4-5.4,6.3c-1.6,1.5-3.2,3-5,4.3c-1.3,1-2.7,1.9-4.1,2.7c-1.8,1.1-3.4,2-4.8,2.6
		c1.2,0.3,2.5,0.4,3.8,0.4c1.8,0,3.5-0.2,5.1-0.7c2.7-0.8,5.2-2.3,7.3-4.4c1.5-1.5,2.7-3.1,3.5-4.9c1.1-2.3,1.6-4.8,1.6-7.5h-1.2
		C117,22.3,116.7,22.7,116.4,23.1"/>
	<path d="M90,36.6c-1.2-0.5-1.9-1.4-2-2.7c0,0,0,0,0,0c-0.5,3.4,0.2,5.6,2.2,6.5c1.4,0.6,3.6,0.2,6.9-1.3c-1.8-0.4-3.4-1-5-1.9
		C91.3,37.1,90.7,36.9,90,36.6"/>
	<path d="M116.7,19.1c-0.7,0.9-1.4,1.9-2.1,2.8h2.7c3.4-5,5.3-9.7,5.8-14.2c-1.4,3.4-3.1,6.6-5.2,9.8c0.1,0.5,0.2,1.1,0.3,1.6
		L116.7,19.1z"/>
	<path d="M88,33.8C88,33.8,88,33.8,88,33.8C88,33.8,88,33.8,88,33.8C88,33.8,88,33.8,88,33.8"/>
	<path d="M81.4,31.1c0.6-2,1.4-3.8,2.3-5.6c-0.1-0.7-0.2-1.3-0.3-2C81.9,26.5,81.3,29,81.4,31.1"/>
	<path d="M105.5,4.8c4.9-2,7.4-1.2,7.5,2.5c0.3-1.7-0.1-3.4-1.1-5.1c-1.2-2-4.7-1.2-10.5,2.2c-0.1,0-0.1,0.1-0.2,0.1
		c1.4,0,2.8,0.2,4.1,0.5C105.3,4.8,105.4,4.8,105.5,4.8"/>
</g>
</svg>
