<?xml version="1.0" encoding="utf-8"?>
<!-- Generator: Adobe Illustrator 19.2.0, SVG Export Plug-In . SVG Version: 6.00 Build 0)  -->
<!DOCTYPE svg PUBLIC "-//W3C//DTD SVG 1.1//EN" "http://www.w3.org/Graphics/SVG/1.1/DTD/svg11.dtd">
<svg version="1.1" id="Refs" xmlns="http://www.w3.org/2000/svg" xmlns:xlink="http://www.w3.org/1999/xlink" x="0px" y="0px"
	 viewBox="0 0 200 60" style="enable-background:new 0 0 200 60;" xml:space="preserve">
<g id="Havit">
	<path d="M167.3,45.9c-0.2-0.2-0.5-0.4-0.8-0.4H32.7c-0.3,0-0.5,0.1-0.7,0.4l0,0h-0.3h0.2c-0.1,0.2-0.3,0.4-0.3,0.7
		c0,0.4,0.1,0.6,0.4,0.8c0.2,0.2,0.4,0.3,0.7,0.3h133.8c0.3,0,0.6-0.1,0.8-0.3c0.2-0.2,0.3-0.4,0.3-0.8
		C167.6,46.3,167.5,46.1,167.3,45.9h1.1H167.3L167.3,45.9L167.3,45.9z"/>
	<path d="M143.8,13c-1.2,0.7-2.5,1.1-4,1.1c-1.6,0-2.9-0.4-4.1-1.1v28.5h8.1V13L143.8,13z"/>
	<path d="M59.2,41.5h-8.1V22.9c0-2-0.4-3.4-1.2-4.2c-0.8-0.8-2.2-1.1-4.3-1.1c-3.6,0-5.4,2.5-5.4,7.5v16.4h-8.1L32.2,1.2h8.1v11.5
		c1.9-1.5,4.4-2.3,7.7-2.3c7.5,0,11.3,4.1,11.3,12.4V41.5L59.2,41.5z"/>
	<path d="M94.2,41.6h-8.1v-2.3c-2.4,2.2-5.3,3.3-8.7,3.3c-4.4,0-8-1.5-10.9-4.5c-2.9-3-4.3-6.7-4.3-11.2c0-4.4,1.4-8,4.3-10.9
		c2.9-2.9,6.5-4.4,10.8-4.4c5.3-0.2,9.1,1.1,11.5,3.8l5.3-3.1V41.6L94.2,41.6z M86.3,26.7c0-2.4-0.7-4.4-2.2-6
		c-1.5-1.6-3.4-2.3-5.7-2.3c-2.3,0-4.2,0.8-5.7,2.5c-1.5,1.6-2.3,3.6-2.3,6c0,2.2,0.7,4.2,2.1,6c1.5,1.9,3.3,2.8,5.5,2.8
		c2.5,0,4.6-0.8,6.1-2.5C85.6,31.4,86.3,29.3,86.3,26.7L86.3,26.7z"/>
	<polygon points="130.5,12.3 114,42.5 97.4,12.3 106.5,12.3 114,26.7 121.4,12.3 130.5,12.3 	"/>
	<polygon points="167.5,19 162,19 162,41.5 154,41.5 154,19 149.9,18.9 154,11.7 154,1.2 162,1.2 162,11.7 167.5,11.7 167.5,19 	"/>
	<path d="M134.5,6.3c0-2.9,2.4-5.3,5.3-5.3c2.9,0,5.3,2.4,5.3,5.3c0,2.9-2.4,5.3-5.3,5.3C136.8,11.6,134.5,9.2,134.5,6.3L134.5,6.3z
		"/>
	<polygon points="33.3,58.8 32.2,58.8 32.2,50.9 33.3,50.9 33.3,54.3 36.5,54.3 36.5,50.9 37.7,50.9 37.7,58.8 36.5,58.8 36.5,55.4 
		33.3,55.4 33.3,58.8 	"/>
	<path d="M42.1,55.8c0,0.6,0.2,1.1,0.6,1.5c0.4,0.4,0.9,0.6,1.4,0.6c0.6,0,1-0.2,1.4-0.6c0.4-0.4,0.6-0.9,0.6-1.5
		c0-0.6-0.2-1.1-0.6-1.5c-0.4-0.4-0.8-0.6-1.4-0.6c-0.6,0-1,0.2-1.4,0.6C42.3,54.7,42.1,55.2,42.1,55.8L42.1,55.8z M41,55.8
		c0-0.4,0.1-0.8,0.2-1.2c0.1-0.4,0.4-0.7,0.6-1c0.3-0.3,0.6-0.6,1-0.7c0.4-0.2,0.8-0.3,1.2-0.3c0.4,0,0.8,0.1,1.2,0.2
		c0.4,0.2,0.7,0.4,1,0.7c0.3,0.3,0.5,0.6,0.7,1c0.2,0.4,0.2,0.8,0.2,1.2c0,0.4-0.1,0.8-0.2,1.2c-0.1,0.4-0.4,0.7-0.6,1
		c-0.3,0.3-0.6,0.6-1,0.8c-0.4,0.2-0.8,0.3-1.2,0.3c-0.4,0-0.8-0.1-1.2-0.2c-0.4-0.2-0.7-0.4-1-0.7c-0.3-0.3-0.5-0.6-0.7-1
		C41.1,56.6,41,56.2,41,55.8L41,55.8z"/>
	<path d="M56.1,56.8c-0.3,0.7-0.6,1.3-1.1,1.6c-0.5,0.4-1.1,0.6-1.8,0.6c-0.4,0-0.9-0.1-1.2-0.2c-0.4-0.2-0.7-0.4-1-0.7
		c-0.3-0.3-0.5-0.6-0.7-1c-0.2-0.4-0.2-0.8-0.2-1.2c0-0.4,0.1-0.8,0.2-1.2c0.1-0.4,0.4-0.7,0.6-1c0.3-0.3,0.7-0.6,1-0.8
		c0.4-0.2,0.8-0.3,1.2-0.3c0.7,0,1.3,0.2,1.8,0.6c0.5,0.4,0.9,0.9,1.1,1.6H55c-0.2-0.4-0.4-0.6-0.7-0.8c-0.3-0.2-0.7-0.3-1.1-0.3
		c-0.5,0-1,0.2-1.4,0.6c-0.4,0.4-0.6,0.9-0.6,1.5c0,0.6,0.2,1.1,0.6,1.5s0.8,0.6,1.4,0.6c0.4,0,0.7-0.1,1-0.3
		c0.3-0.2,0.5-0.5,0.7-0.8H56.1L56.1,56.8z"/>
	<path d="M60.6,58.8h-1.1v-7.9h1.1v2.6c0.2-0.3,0.4-0.5,0.7-0.6c0.3-0.1,0.6-0.2,1-0.2c0.7,0,1.3,0.2,1.7,0.7c0.4,0.5,0.6,1.1,0.6,2
		v3.4h-1.1v-3.1c0-0.7-0.1-1.2-0.3-1.5c-0.2-0.3-0.6-0.5-1-0.5c-0.3,0-0.5,0.1-0.7,0.2s-0.4,0.3-0.5,0.6c-0.1,0.1-0.1,0.3-0.2,0.5
		c0,0.2-0.1,0.6-0.1,1V58.8L60.6,58.8z"/>
	<path d="M69,55.8c0,0.6,0.2,1.1,0.6,1.5c0.4,0.4,0.9,0.6,1.5,0.6c0.5,0,1-0.2,1.4-0.6c0.4-0.4,0.6-0.9,0.6-1.4
		c0-0.6-0.2-1.1-0.6-1.5c-0.4-0.4-0.9-0.6-1.4-0.6c-0.6,0-1,0.2-1.4,0.6C69.2,54.7,69,55.2,69,55.8L69,55.8z M73,58.8v-0.7
		c-0.3,0.3-0.6,0.5-0.9,0.6C71.8,58.9,71.4,59,71,59c-0.9,0-1.6-0.3-2.2-0.9c-0.6-0.6-0.9-1.4-0.9-2.3c0-0.4,0.1-0.8,0.2-1.2
		c0.1-0.4,0.4-0.7,0.6-1c0.3-0.3,0.6-0.5,1-0.7c0.4-0.2,0.8-0.2,1.2-0.2c0.4,0,0.8,0.1,1.1,0.2c0.3,0.1,0.7,0.4,1,0.7v-2.7h1.1v7.9
		H73L73,58.8z"/>
	<path d="M78.8,58.8h-1.1v-6h1v0.7c0.2-0.3,0.4-0.5,0.6-0.6c0.2-0.1,0.5-0.2,0.8-0.2v1.1c-0.5,0-0.8,0.2-1,0.4
		c-0.2,0.2-0.3,0.6-0.3,1.2V58.8L78.8,58.8z"/>
	<path d="M88.2,58.8h-1v-0.7c-0.2,0.3-0.5,0.5-0.7,0.6c-0.3,0.1-0.6,0.2-0.9,0.2c-0.8,0-1.3-0.2-1.8-0.7c-0.4-0.5-0.6-1.1-0.6-2
		v-3.4h1.1V56c0,0.6,0.1,1.1,0.3,1.5c0.2,0.3,0.6,0.5,1,0.5c0.3,0,0.5-0.1,0.8-0.2c0.2-0.1,0.4-0.3,0.5-0.6c0.1-0.2,0.1-0.3,0.2-0.5
		c0-0.2,0.1-0.6,0.1-1v-2.7h1.1V58.8L88.2,58.8z"/>
	<path d="M97.6,56.8c-0.3,0.7-0.6,1.3-1.1,1.6c-0.5,0.4-1.1,0.6-1.8,0.6c-0.4,0-0.9-0.1-1.2-0.2c-0.4-0.2-0.7-0.4-1-0.7
		c-0.3-0.3-0.5-0.6-0.7-1c-0.2-0.4-0.2-0.8-0.2-1.2c0-0.4,0.1-0.8,0.2-1.2c0.1-0.4,0.4-0.7,0.6-1c0.3-0.3,0.7-0.6,1-0.8
		c0.4-0.2,0.8-0.3,1.2-0.3c0.7,0,1.3,0.2,1.8,0.6c0.5,0.4,0.9,0.9,1.1,1.6h-1.2c-0.2-0.4-0.4-0.6-0.7-0.8c-0.3-0.2-0.7-0.3-1.1-0.3
		c-0.5,0-1,0.2-1.4,0.6c-0.4,0.4-0.6,0.9-0.6,1.5c0,0.6,0.2,1.1,0.6,1.5c0.4,0.4,0.8,0.6,1.4,0.6c0.4,0,0.7-0.1,1-0.3
		c0.3-0.2,0.5-0.5,0.7-0.8H97.6L97.6,56.8z"/>
	<polygon points="101,58.8 101,50.9 102,50.9 102,55.6 104.2,52.8 105.4,52.8 103.2,55.7 105.8,58.8 104.5,58.8 102,55.8 102,58.8 
		101,58.8 	"/>
	<path d="M110,58.8h-1.1v-5.1h-0.7v-0.9h0.7v-0.2c0-0.6,0.2-1.1,0.5-1.4c0.3-0.3,0.9-0.5,1.5-0.5v1h-0.1c-0.3,0-0.5,0.1-0.7,0.2
		c-0.1,0.1-0.2,0.4-0.2,0.7v0.1h1v0.9H110V58.8L110,58.8z"/>
	<polygon points="114.1,58.8 114.1,50.9 115.2,50.9 115.2,58.8 114.1,58.8 	"/>
	<path d="M119.6,55.8c0,0.6,0.2,1.1,0.6,1.5c0.4,0.4,0.9,0.6,1.5,0.6c0.5,0,1-0.2,1.4-0.6c0.4-0.4,0.6-0.9,0.6-1.4
		c0-0.6-0.2-1.1-0.6-1.5c-0.4-0.4-0.9-0.6-1.4-0.6c-0.6,0-1,0.2-1.4,0.6C119.8,54.7,119.6,55.2,119.6,55.8L119.6,55.8z M123.6,58.8
		v-0.7c-0.3,0.3-0.6,0.5-0.9,0.6c-0.3,0.1-0.7,0.2-1.1,0.2c-0.9,0-1.6-0.3-2.2-0.9c-0.6-0.6-0.9-1.4-0.9-2.3c0-0.4,0.1-0.8,0.2-1.2
		c0.1-0.4,0.4-0.7,0.6-1c0.3-0.3,0.6-0.5,1-0.7c0.4-0.2,0.8-0.2,1.2-0.2c0.4,0,0.8,0.1,1.1,0.2c0.3,0.1,0.7,0.4,0.9,0.7v-0.7h1.1v6
		H123.6L123.6,58.8z"/>
	<path d="M129.4,58.8h-1.1v-6h1v0.7c0.2-0.3,0.5-0.5,0.7-0.6c0.3-0.1,0.6-0.2,0.9-0.2c0.8,0,1.4,0.2,1.8,0.7c0.4,0.5,0.6,1.1,0.6,2
		v3.4h-1.1v-3.2c0-0.6-0.1-1.1-0.4-1.4c-0.2-0.3-0.6-0.5-1.1-0.5c-0.5,0-0.9,0.2-1.2,0.5c-0.2,0.4-0.4,1-0.4,1.8V58.8L129.4,58.8z"
		/>
	<path d="M136.6,56.9h1c0,0.3,0.1,0.6,0.3,0.8c0.2,0.2,0.4,0.3,0.7,0.3c0.3,0,0.5-0.1,0.6-0.2c0.2-0.2,0.2-0.4,0.2-0.6
		c0-0.2-0.1-0.4-0.2-0.5c-0.1-0.1-0.3-0.3-0.6-0.4c-0.1,0-0.2-0.1-0.4-0.1c-0.4-0.2-0.7-0.3-0.8-0.4c-0.2-0.2-0.4-0.4-0.5-0.6
		c-0.1-0.2-0.2-0.5-0.2-0.7c0-0.5,0.2-0.9,0.5-1.2c0.3-0.3,0.8-0.5,1.2-0.5c0.5,0,0.9,0.1,1.2,0.4c0.3,0.3,0.5,0.7,0.5,1.3h-1
		c0-0.2-0.1-0.4-0.2-0.5c-0.1-0.1-0.3-0.2-0.5-0.2c-0.2,0-0.4,0.1-0.5,0.2c-0.1,0.1-0.2,0.3-0.2,0.5c0,0.3,0.3,0.6,0.9,0.8
		c0.2,0.1,0.3,0.1,0.4,0.1c0.5,0.2,0.8,0.4,1,0.7c0.2,0.3,0.3,0.6,0.3,1.1c0,0.5-0.2,1-0.5,1.3c-0.4,0.4-0.8,0.5-1.4,0.5
		c-0.6,0-1-0.2-1.3-0.6C136.8,58.1,136.6,57.5,136.6,56.9L136.6,56.9z"/>
	<path d="M149.4,56.8c-0.3,0.7-0.6,1.3-1.1,1.6c-0.5,0.4-1.1,0.6-1.8,0.6c-0.4,0-0.9-0.1-1.2-0.2c-0.4-0.2-0.7-0.4-1-0.7
		c-0.3-0.3-0.5-0.6-0.7-1c-0.2-0.4-0.2-0.8-0.2-1.2c0-0.4,0.1-0.8,0.2-1.2c0.1-0.4,0.4-0.7,0.6-1c0.3-0.3,0.7-0.6,1-0.8
		c0.4-0.2,0.8-0.3,1.2-0.3c0.7,0,1.3,0.2,1.8,0.6c0.5,0.4,0.9,0.9,1.1,1.6h-1.2c-0.2-0.4-0.4-0.6-0.7-0.8c-0.3-0.2-0.7-0.3-1.1-0.3
		c-0.5,0-1,0.2-1.4,0.6c-0.4,0.4-0.6,0.9-0.6,1.5c0,0.6,0.2,1.1,0.6,1.5c0.4,0.4,0.8,0.6,1.4,0.6c0.4,0,0.7-0.1,1-0.3
		c0.3-0.2,0.5-0.5,0.7-0.8H149.4L149.4,56.8z"/>
	<path d="M153.9,58.8h-1.1v-7.9h1.1v2.6c0.2-0.3,0.4-0.5,0.7-0.6c0.3-0.1,0.6-0.2,1-0.2c0.7,0,1.3,0.2,1.7,0.7
		c0.4,0.5,0.6,1.1,0.6,2v3.4h-1.1v-3.1c0-0.7-0.1-1.2-0.3-1.5c-0.2-0.3-0.6-0.5-1-0.5c-0.3,0-0.5,0.1-0.8,0.2
		c-0.2,0.1-0.4,0.3-0.5,0.6c-0.1,0.1-0.1,0.3-0.2,0.5c0,0.2-0.1,0.6-0.1,1V58.8L153.9,58.8z"/>
	<path d="M166.1,55.3c-0.1-0.5-0.4-0.9-0.7-1.1c-0.3-0.3-0.7-0.4-1.2-0.4c-0.5,0-0.9,0.1-1.2,0.4c-0.3,0.3-0.6,0.7-0.7,1.1H166.1
		L166.1,55.3z M162.2,56.2c0.1,0.5,0.3,0.9,0.7,1.2c0.4,0.3,0.8,0.5,1.3,0.5c0.4,0,0.7-0.1,1-0.3c0.3-0.2,0.5-0.4,0.7-0.7h1.2
		c-0.3,0.7-0.7,1.2-1.2,1.5c-0.5,0.4-1.1,0.5-1.7,0.5c-0.4,0-0.8-0.1-1.2-0.2c-0.4-0.2-0.7-0.4-1-0.7c-0.3-0.3-0.5-0.6-0.7-1
		c-0.2-0.4-0.2-0.8-0.2-1.2c0-0.4,0.1-0.8,0.2-1.2c0.1-0.4,0.4-0.7,0.6-1c0.3-0.3,0.6-0.6,1-0.7c0.4-0.2,0.8-0.2,1.2-0.2
		c0.5,0,1,0.1,1.5,0.4c0.5,0.2,0.8,0.6,1.1,1c0.2,0.3,0.3,0.6,0.4,0.9c0.1,0.3,0.1,0.7,0.1,1.1v0.2H162.2L162.2,56.2z"/>
</g>
</svg>
