<?xml version="1.0" encoding="utf-8"?>
<!-- Generator: Adobe Illustrator 19.2.0, SVG Export Plug-In . SVG Version: 6.00 Build 0)  -->
<!DOCTYPE svg PUBLIC "-//W3C//DTD SVG 1.1//EN" "http://www.w3.org/Graphics/SVG/1.1/DTD/svg11.dtd">
<svg version="1.1" id="Refs" xmlns="http://www.w3.org/2000/svg" xmlns:xlink="http://www.w3.org/1999/xlink" x="0px" y="0px"
	 viewBox="0 0 200 60" style="enable-background:new 0 0 200 60;" xml:space="preserve">
<g id="Nordbraeu">
	<g>
		<path d="M140.5,46.2H140c-1,0-1.8,0.5-2.3,1.3l-0.2,0.4c-0.1,0.2-0.2,0.2-0.3,0.2c-0.1,0-0.1,0-0.2-0.1c0,0-0.1-0.1-0.1-0.2
			c0-0.1,0-0.2,0.1-0.3l0.7-2.3c0.1-0.2,0.2-0.3,0.3-0.3c0.1,0,0.2,0,0.2,0.2l0.1,0.2c0,0.1,0.1,0.2,0.1,0.2c0.1,0,0.2,0,0.4,0h5.8
			c0.2,0,0.3,0,0.4,0c0.1,0,0.1-0.1,0.2-0.2l0.1-0.2c0.1-0.1,0.2-0.2,0.2-0.2c0.1,0,0.1,0,0.2,0.1c0,0.1,0,0.2,0.1,0.5l0.1,2.2
			c0,0.2-0.1,0.4-0.2,0.4c-0.1,0-0.2-0.1-0.3-0.2l-0.1-0.3c-0.2-0.5-0.4-0.8-0.8-1c-0.2-0.1-0.4-0.2-0.7-0.3
			c-0.3-0.1-0.5-0.1-0.8-0.1h-0.6v5.9c0,0.6,0.1,1,0.2,1.2c0.1,0.2,0.3,0.3,0.8,0.4l0.4,0.1c0.2,0,0.3,0.1,0.3,0.3
			c0,0.1,0,0.1-0.1,0.2c-0.1,0-0.1,0.1-0.2,0.1c0,0-0.1,0-0.2,0l-0.5-0.1c-0.6-0.1-1.1-0.1-1.5-0.1c-0.5,0-1,0-1.5,0.1l-0.5,0.1
			c-0.1,0-0.2,0-0.2,0c-0.1,0-0.2,0-0.2-0.1c-0.1,0-0.1-0.1-0.1-0.2c0-0.2,0.1-0.3,0.4-0.3l0.4-0.1c0.4-0.1,0.6-0.2,0.7-0.4
			c0.1-0.2,0.2-0.6,0.2-1.2V46.2z M129.5,46v6c0,0.4,0,0.7,0,0.9c0,0.1,0.1,0.3,0.2,0.4c0.3,0.3,0.7,0.4,1.4,0.4
			c1,0,1.7-0.3,2.3-0.8c0.3-0.3,0.6-0.7,0.8-1.2c0.2-0.5,0.3-1.1,0.3-1.7c0-0.6-0.1-1.1-0.2-1.6c-0.3-0.8-0.7-1.5-1.3-1.9
			c-0.6-0.4-1.4-0.6-2.5-0.6C130.2,46,129.9,46,129.5,46z M127,46l-0.3-0.1c-0.2,0-0.3-0.1-0.3-0.3c0-0.2,0.1-0.3,0.3-0.3
			c0,0,0.1,0,0.2,0c0.1,0,0.2,0,0.2,0l0.5,0.1c0.2,0,0.5,0,0.8,0c0.2,0,0.5,0,0.9,0l0.6-0.1c0.5,0,0.9-0.1,1.3-0.1
			c0.7,0,1.4,0.1,1.9,0.2c0.5,0.1,1,0.3,1.4,0.6c1.2,0.9,1.9,2.1,1.9,3.8c0,1.6-0.5,2.7-1.6,3.5c-0.8,0.6-1.8,0.9-3.1,0.9
			c-0.2,0-0.5,0-0.8,0l-0.7,0c-0.5,0-0.9-0.1-1.3-0.1c-0.4,0-0.8,0-1.2,0.1l-0.6,0.1c-0.1,0-0.2,0-0.3,0c-0.2,0-0.3-0.1-0.3-0.2
			c0-0.2,0.1-0.2,0.3-0.3l0.3-0.1c0.3-0.1,0.5-0.2,0.6-0.3c0.1-0.2,0.1-0.5,0.1-1v-5c0-0.5,0-0.8-0.1-1C127.5,46.1,127.3,46,127,46z
			 M119.6,50.1h2.1l-1.1-2.6L119.6,50.1z M119.4,50.7l-0.6,1.5c-0.2,0.6-0.3,0.9-0.3,1.1c0,0.2,0.2,0.3,0.5,0.4l0.2,0.1
			c0.1,0,0.2,0.1,0.2,0.2c0,0.1,0,0.1-0.1,0.2c-0.1,0-0.1,0.1-0.2,0.1c-0.1,0-0.1,0-0.2,0l-0.3,0c-0.3,0-0.6-0.1-0.8-0.1
			c-0.3,0-0.5,0-0.7,0.1l-0.3,0.1c-0.1,0-0.1,0-0.2,0c-0.1,0-0.2,0-0.2-0.1c-0.1,0-0.1-0.1-0.1-0.2c0-0.1,0.1-0.2,0.2-0.2l0.2-0.1
			c0.3-0.1,0.4-0.2,0.5-0.2c0.1-0.1,0.3-0.4,0.6-1l3.4-7.6c0,0,0-0.1,0.1-0.1c0,0,0,0,0.1,0.1l3.4,7.6c0.2,0.5,0.4,0.8,0.5,0.9
			c0.1,0.1,0.3,0.2,0.4,0.3l0.2,0.1c0.1,0,0.2,0.1,0.2,0.2c0,0.1,0,0.1-0.1,0.2c-0.1,0-0.1,0.1-0.2,0.1c-0.1,0-0.1,0-0.2,0l-0.3,0
			c-0.4,0-0.7-0.1-0.9-0.1c-0.5,0-0.9,0-1.3,0.1l-0.4,0c-0.1,0-0.1,0-0.2,0c-0.1,0-0.1,0-0.2-0.1c-0.1,0-0.1-0.1-0.1-0.2
			c0-0.1,0.1-0.2,0.3-0.3l0.3-0.1c0.2-0.1,0.4-0.2,0.4-0.4c0-0.1-0.1-0.3-0.2-0.6l-0.8-2H119.4z M111.4,46.2h-0.5
			c-1,0-1.8,0.5-2.3,1.3l-0.2,0.4c-0.1,0.2-0.2,0.2-0.3,0.2c-0.1,0-0.1,0-0.2-0.1c0,0-0.1-0.1-0.1-0.2c0-0.1,0-0.2,0.1-0.3l0.7-2.3
			c0.1-0.2,0.2-0.3,0.3-0.3c0.1,0,0.2,0,0.2,0.2l0.1,0.2c0,0.1,0.1,0.2,0.1,0.2c0.1,0,0.2,0,0.4,0h5.8c0.2,0,0.3,0,0.4,0
			c0.1,0,0.1-0.1,0.2-0.2l0.1-0.2c0.1-0.1,0.2-0.2,0.2-0.2c0.1,0,0.1,0,0.2,0.1c0,0.1,0,0.2,0.1,0.5l0.1,2.2c0,0.2-0.1,0.4-0.2,0.4
			c-0.1,0-0.2-0.1-0.3-0.2l-0.1-0.3c-0.2-0.5-0.4-0.8-0.8-1c-0.2-0.1-0.4-0.2-0.7-0.3c-0.3-0.1-0.5-0.1-0.8-0.1h-0.6v5.9
			c0,0.6,0.1,1,0.2,1.2c0.1,0.2,0.3,0.3,0.8,0.4l0.4,0.1c0.2,0,0.3,0.1,0.3,0.3c0,0.1,0,0.1-0.1,0.2c-0.1,0-0.1,0.1-0.2,0.1
			c0,0-0.1,0-0.2,0l-0.5-0.1c-0.6-0.1-1.1-0.1-1.5-0.1c-0.5,0-1,0-1.5,0.1l-0.5,0.1c-0.1,0-0.2,0-0.2,0c-0.1,0-0.2,0-0.2-0.1
			c-0.1,0-0.1-0.1-0.1-0.2c0-0.2,0.1-0.3,0.4-0.3l0.4-0.1c0.4-0.1,0.6-0.2,0.7-0.4c0.1-0.2,0.2-0.6,0.2-1.2V46.2z M101.2,53.7V52
			c0-0.1,0-0.2,0-0.3c0-0.1,0.1-0.2,0.2-0.2c0.1,0,0.1,0,0.2,0.1c0,0.1,0.1,0.2,0.2,0.4l0.1,0.3c0.2,0.5,0.4,0.9,0.8,1.1
			c0.4,0.3,0.9,0.5,1.3,0.5c0.6,0,1.1-0.2,1.4-0.5c0.3-0.3,0.4-0.7,0.4-1.2c0-0.4-0.1-0.7-0.3-0.9c-0.2-0.3-0.6-0.5-1.1-0.7l-1-0.4
			c-0.5-0.2-0.8-0.3-1-0.4c-0.2-0.1-0.4-0.3-0.6-0.5c-0.3-0.4-0.5-0.9-0.5-1.5c0-0.4,0.1-0.8,0.3-1.2c0.5-1,1.5-1.5,2.8-1.5
			c0.4,0,0.8,0,1.1,0.1c0.3,0.1,0.7,0.2,1.1,0.4l0,1.5l0,0.1c0,0.2,0,0.4,0,0.5c0,0.1-0.1,0.1-0.2,0.1c-0.1,0-0.2-0.1-0.3-0.3
			l-0.1-0.2c-0.4-1.1-1-1.6-1.8-1.6c-0.5,0-0.8,0.1-1.1,0.4c-0.3,0.3-0.4,0.6-0.4,1c0,0.4,0.1,0.7,0.4,0.9c0.1,0.1,0.5,0.3,1,0.5
			l0.9,0.3c0.7,0.3,1.2,0.5,1.6,0.8c0.2,0.2,0.4,0.4,0.5,0.8c0.1,0.3,0.2,0.7,0.2,1c0,0.4-0.1,0.8-0.3,1.2c-0.3,0.6-0.7,1.1-1.2,1.4
			c-0.5,0.3-1.2,0.5-2,0.5c-0.6,0-1.1-0.1-1.5-0.2C102,54.2,101.6,54,101.2,53.7z M95.6,53.6h1c1.1,0,1.8-0.1,2.3-0.3
			c0.5-0.2,0.8-0.6,1.2-1.2l0.1-0.2c0.1-0.1,0.1-0.2,0.2-0.3c0,0,0.1-0.1,0.1-0.1c0.1,0,0.1,0,0.1,0.1c0,0,0.1,0.1,0.1,0.1
			c0,0.1,0,0.2,0,0.3l-0.6,2.1h-5.5c-0.6,0-1.1,0.1-1.4,0.1l-0.2,0c0,0,0,0-0.1,0c-0.1,0-0.2,0-0.2-0.1c-0.1,0-0.1-0.1-0.1-0.2
			c0-0.1,0.1-0.2,0.3-0.3l0.3-0.1c0.3-0.1,0.5-0.2,0.6-0.3c0.1-0.2,0.1-0.5,0.1-1v-5c0-0.6,0-0.9-0.1-1c-0.1-0.1-0.3-0.3-0.7-0.3
			l-0.2,0c-0.2,0-0.2-0.1-0.2-0.3c0-0.2,0.1-0.2,0.3-0.2c0,0,0.1,0,0.1,0l0.3,0c0.7,0.1,1.3,0.1,1.7,0.1c0.3,0,0.8,0,1.4-0.1l0.2,0
			c0.1,0,0.2,0,0.2,0c0.2,0,0.3,0.1,0.3,0.2c0,0.1,0,0.1-0.1,0.2c0,0-0.1,0.1-0.3,0.1l-0.2,0C96.2,46,96,46,95.9,46.1
			c-0.1,0-0.1,0.1-0.2,0.2c-0.1,0.1-0.1,0.6-0.2,1.5V53.6z M86.8,45.7c-1,0-1.7,0.5-2.2,1.4c-0.2,0.3-0.3,0.7-0.4,1.2
			c-0.1,0.5-0.1,1-0.1,1.6c0,1.3,0.2,2.2,0.7,2.9c0.5,0.8,1.2,1.2,2.1,1.2c0.9,0,1.6-0.4,2.1-1.3c0.2-0.3,0.3-0.8,0.4-1.3
			c0.1-0.5,0.2-1.1,0.2-1.6c0-0.9-0.1-1.7-0.4-2.5c-0.2-0.4-0.5-0.8-0.8-1.1C87.9,45.9,87.4,45.7,86.8,45.7z M86.7,45.1
			c1.4,0,2.6,0.4,3.4,1.2c0.5,0.5,0.8,1,1,1.7c0.2,0.5,0.3,1.1,0.3,1.7c0,0.8-0.2,1.6-0.5,2.3c-0.8,1.6-2.2,2.4-4.2,2.4
			c-0.8,0-1.6-0.2-2.3-0.5c-0.9-0.4-1.6-1.1-2-2.1c-0.3-0.6-0.4-1.3-0.4-2.1c0-1.1,0.3-2,0.8-2.8C83.6,45.8,84.9,45.1,86.7,45.1z
			 M80.1,53.5c-1.2,0.7-2.5,1-3.7,1c-1.3,0-2.4-0.3-3.2-1c-0.5-0.4-0.8-0.9-1.1-1.4c-0.3-0.7-0.4-1.4-0.4-2.2c0-1.5,0.5-2.6,1.4-3.5
			c0.9-0.9,2.2-1.3,3.8-1.3c1.1,0,2.2,0.2,3.2,0.7c0.1,0,0.1,0,0.1,0.1c0,0,0,0.1,0,0.2v1.6c0,0.2-0.1,0.3-0.2,0.3
			c-0.1,0-0.2-0.1-0.3-0.3l-0.1-0.4c-0.2-0.6-0.4-1-0.8-1.2c-0.5-0.3-1-0.5-1.7-0.5c-0.6,0-1.1,0.1-1.6,0.4c-0.7,0.4-1.2,1.1-1.5,2
			c-0.1,0.5-0.2,1-0.2,1.7c0,0.8,0.1,1.5,0.4,2.2c0.2,0.6,0.6,1.1,1.1,1.4c0.4,0.3,1,0.5,1.6,0.5c0.3,0,0.7-0.1,1-0.2
			c0.3-0.1,0.5-0.3,0.6-0.5c0-0.1,0-0.2,0.1-0.4c0-0.2,0-0.3,0-0.4c0,0,0,0,0,0v-0.3c0-0.3,0-0.5-0.1-0.7c-0.1-0.2-0.2-0.3-0.5-0.4
			l-0.3,0c-0.2,0-0.3-0.1-0.3-0.3c0-0.2,0.1-0.3,0.4-0.3c0,0,0.1,0,0.1,0l0.5,0c0.4,0,0.7,0.1,1,0.1c0.3,0,0.7,0,1.1-0.1l0.5,0
			c0.2,0,0.3,0,0.4,0c0.2,0,0.3,0.1,0.3,0.2c0,0.1-0.1,0.2-0.3,0.2L80.8,51c-0.2,0-0.4,0.1-0.5,0.2c-0.1,0.1-0.2,0.2-0.2,0.3
			c0,0.1,0,0.6,0,1.2V53.5z M68.9,51.7L68.8,47c0-0.2,0-0.3,0-0.4c0-0.2,0-0.4-0.1-0.5c-0.1-0.1-0.2-0.1-0.5-0.2l-0.3-0.1
			c-0.2,0-0.3-0.1-0.3-0.3c0-0.1,0-0.1,0.1-0.2c0.1,0,0.1-0.1,0.2-0.1c0,0,0.1,0,0.1,0l0.3,0c0.3,0,0.6,0.1,0.9,0.1
			c0.2,0,0.5,0,0.9-0.1l0.4,0c0.2,0,0.3,0,0.3,0c0.1,0,0.1,0,0.2,0.1c0,0,0.1,0.1,0.1,0.2c0,0.1-0.1,0.2-0.3,0.3L70.4,46
			c-0.3,0.1-0.5,0.2-0.6,0.3c-0.1,0.1-0.1,0.4-0.1,0.9l-0.3,7.2c0,0.2-0.1,0.2-0.1,0.2c0,0-0.1-0.1-0.2-0.2L63,47.6
			c-0.1-0.1-0.3-0.4-0.5-0.7l0.1,4.7c0,0.2,0,0.4,0,0.5c0,0.4,0,0.6,0,0.7c0,0.3,0,0.5,0.1,0.7c0.1,0.1,0.3,0.2,0.5,0.3l0.3,0.1
			c0.2,0,0.3,0.1,0.3,0.3c0,0.1,0,0.1-0.1,0.2c-0.1,0-0.1,0.1-0.2,0.1c0,0-0.1,0-0.2,0L63,54.2c-0.3,0-0.6-0.1-0.9-0.1
			c-0.2,0-0.5,0-0.7,0l-0.3,0c-0.2,0-0.3,0-0.3,0c-0.2,0-0.3-0.1-0.3-0.3c0-0.1,0.1-0.2,0.3-0.3l0.2-0.1c0.3-0.1,0.5-0.2,0.6-0.4
			c0.1-0.2,0.1-1,0.2-2.2l0.1-3.1l0-0.3l0-0.8c0-0.3,0-0.5-0.1-0.6c-0.1-0.1-0.3-0.2-0.6-0.2l-0.3-0.1c-0.3,0-0.4-0.1-0.4-0.3
			c0-0.2,0.1-0.2,0.3-0.2c0,0,0,0,0,0l0.3,0c0.3,0,0.6,0.1,0.9,0.1c0.3,0,0.7,0,1.1-0.1l0.2,0c0,0,0,0,0,0c0,0,0.1,0,0.1,0.1l5,5.6
			C68.7,51.3,68.8,51.5,68.9,51.7z M56.4,52.3v-5c0-0.5,0-0.8-0.1-1C56.2,46.2,56,46,55.8,46l-0.4-0.1c-0.2,0-0.2-0.1-0.2-0.3
			c0-0.2,0.1-0.2,0.3-0.2c0,0,0,0,0,0l0.3,0c0,0,0.1,0,0.3,0c0.3,0,0.7,0.1,1.2,0.1c0.5,0,0.9,0,1.2-0.1c0.2,0,0.3,0,0.3,0l0.3,0
			c0,0,0,0,0,0c0.2,0,0.3,0.1,0.3,0.2c0,0.1-0.1,0.2-0.2,0.3L58.9,46c-0.2,0-0.3,0.1-0.4,0.2c-0.1,0.1-0.1,0.2-0.2,0.3
			c0,0.2-0.1,0.5-0.1,0.8v5.1c0,0.5,0,0.8,0.1,1c0.1,0.2,0.3,0.3,0.5,0.3l0.4,0.1c0.2,0,0.2,0.1,0.2,0.3c0,0.2-0.1,0.3-0.3,0.3l0,0
			l-0.3,0c0,0-0.1,0-0.3,0c-0.3,0-0.7-0.1-1.2-0.1c-0.5,0-0.9,0-1.2,0.1c-0.2,0-0.2,0-0.3,0l-0.3,0l0,0c-0.2,0-0.3-0.1-0.3-0.3
			c0-0.1,0.1-0.2,0.2-0.3l0.4-0.1c0.2,0,0.3-0.1,0.4-0.2c0.1-0.1,0.1-0.2,0.2-0.3C56.4,53,56.4,52.7,56.4,52.3z"/>
	</g>
	<g>
		<path d="M180.5,11h2v0.9c-1.3,0.1-2.1,0.3-2.5,0.6c-0.4,0.3-0.6,1-0.6,2.1v12.3c0,2.3,0.4,4.1,1.2,5.2c0.7,0.9,1.6,1.4,2.9,1.6
			c-0.3,0-0.7,0.1-1.1,0.1c-1.7,0-3-0.6-3.8-1.7c-0.8-1.1-1.2-2.8-1.2-5.2V14.6c0-1,0.2-1.7,0.6-2.1c0.4-0.3,1.2-0.5,2.5-0.6V11z
			 M192.3,26.2c0,3.1-0.7,5.4-2.3,7c-1.5,1.5-3.8,2.3-7,2.3c-0.3,0-0.7,0-1,0c2.6-0.2,4.6-0.9,5.9-2.3c1.5-1.5,2.3-3.8,2.3-7V15.4
			c0-1.4,0.2-2.3,0.5-2.7c0.3-0.4,1.1-0.7,2.2-0.8V11h2v0.9c-1.1,0.1-1.9,0.3-2.2,0.8c-0.3,0.4-0.5,1.4-0.5,2.7V26.2z"/>
		<path d="M167,10.5c0.6,0,1.2,0.2,1.6,0.7c0.1,0.1,0.3,0.3,0.4,0.5v0.3l0.1,0c0.1,0.3,0.1,0.5,0.1,0.8c0,0.6-0.2,1.2-0.6,1.6
			c-0.4,0.4-1,0.7-1.6,0.7c-0.4,0-0.7-0.1-1-0.2c0.2-0.1,0.4-0.3,0.6-0.4c0.4-0.4,0.6-1,0.6-1.6c0-0.6-0.2-1.2-0.6-1.6
			c-0.2-0.2-0.4-0.3-0.6-0.4C166.3,10.6,166.6,10.5,167,10.5"/>
		<path d="M152.7,10.8c0.6,0,1.2,0.2,1.6,0.7c0.4,0.4,0.6,1,0.6,1.6c0,0.6-0.2,1.2-0.6,1.6c-0.4,0.4-1,0.7-1.6,0.7
			c-0.4,0-0.7-0.1-1-0.2c0.2-0.1,0.4-0.3,0.6-0.4c0.4-0.4,0.6-1,0.6-1.6c0-0.6-0.2-1.2-0.6-1.6c-0.2-0.2-0.4-0.3-0.6-0.4
			C152,10.9,152.3,10.8,152.7,10.8"/>
		<path d="M114.5,13.9v7.7c-0.4,0.1-0.9,0.1-1.4,0.1h-0.6v-7.8c0-0.7,0.1-1.1,0.4-1.4c0.3-0.3,0.7-0.4,1.4-0.4c0.4,0,0.8,0,1.1,0.1
			c-0.2,0.1-0.4,0.2-0.5,0.3C114.6,12.7,114.5,13.2,114.5,13.9 M114.5,22.8v8.7c0,0.7,0.2,1.2,0.5,1.5c0.2,0.2,0.4,0.3,0.7,0.4
			c-0.3,0.1-0.6,0.1-1,0.1h-0.2c-0.7,0-1.2-0.2-1.5-0.5c-0.3-0.3-0.5-0.8-0.5-1.5v-8.8h0.6C113.5,22.7,114,22.7,114.5,22.8z
			 M114.7,11h2c2.9,0,5.2,0.5,6.7,1.4c1.5,0.9,2.3,2.3,2.3,4c0,1.9-0.9,3.4-2.6,4.4c-0.9,0.5-1.9,0.9-3.2,1.1c1.6,0.3,2.9,0.7,4,1.4
			c2,1.1,3,2.7,3,4.6c0,2-0.9,3.7-2.6,4.9c-1.7,1.3-4,1.9-6.9,1.9h-2c2.8,0,5.1-0.6,6.9-1.9c1.7-1.3,2.6-2.9,2.6-4.9
			c0-2-1-3.5-3-4.6c-1.1-0.6-2.5-1.1-4-1.4c1.3-0.3,2.4-0.6,3.2-1.1c1.7-1,2.6-2.5,2.6-4.4c0-1.8-0.8-3.1-2.3-4
			C119.9,11.5,117.6,11,114.7,11z"/>
		<path d="M90.2,31.5c0,0.7,0.2,1.2,0.5,1.5c0.2,0.2,0.5,0.4,0.9,0.4c-0.3,0-0.6,0.1-1,0.1h-0.4c-0.7,0-1.2-0.2-1.5-0.5
			c-0.3-0.3-0.5-0.8-0.5-1.5V14c0-0.7,0.1-1.1,0.4-1.4c0.3-0.3,0.7-0.4,1.4-0.4h0.2c0.4,0,0.7,0,1.1,0.1c-0.3,0.1-0.5,0.2-0.6,0.3
			c-0.3,0.3-0.4,0.7-0.4,1.4V31.5z M90.3,11h2c4,0,7.1,1,9.5,3.1c2.3,2,3.5,4.8,3.5,8.3c0,3.8-1.1,6.8-3.4,9
			c-2.3,2.2-5.3,3.3-9.2,3.3h-2c3.8,0,6.9-1.1,9.2-3.3c2.3-2.2,3.4-5.2,3.4-9c0-3.5-1.2-6.2-3.5-8.3C97.4,12,94.3,11,90.3,11z"/>
		<path d="M44.1,11.7c-1.6,0.3-2.8,1.2-3.6,2.8c-1,1.9-1.6,4.8-1.6,8.6c0,3.7,0.5,6.5,1.6,8.3c0.9,1.5,2.1,2.5,3.6,2.7
			c-0.3,0.1-0.7,0.1-1,0.1c-2.1,0-3.6-0.9-4.6-2.8c-1-1.9-1.6-4.6-1.6-8.3c0-3.8,0.5-6.7,1.6-8.6c1-1.9,2.6-2.9,4.6-2.9
			C43.4,11.7,43.7,11.7,44.1,11.7 M45.1,35.4c-0.3,0-0.7,0-1,0c3.2-0.2,5.8-1.3,7.9-3.4c2.3-2.3,3.5-5.2,3.5-8.8
			c0-3.7-1.2-6.7-3.5-9.1c-2.1-2.1-4.7-3.3-7.9-3.5c0.3,0,0.7,0,1,0c3.6,0,6.6,1.2,8.9,3.5c2.3,2.4,3.5,5.4,3.5,9.1
			c0,3.6-1.2,6.5-3.5,8.8C51.7,34.3,48.7,35.4,45.1,35.4z"/>
		<path d="M29.9,11h2v0.9c-1.1,0.1-1.9,0.3-2.2,0.8c-0.4,0.4-0.5,1.4-0.5,2.7v20h-0.5h-1.5v-20c0-1.4,0.2-2.3,0.5-2.7
			c0.4-0.4,1.1-0.7,2.2-0.8V11z M13.2,11h2l10.3,12.6v2.4L13.2,11z M12.5,30.4c0,1.4,0.2,2.3,0.7,2.7c0.4,0.4,1.4,0.7,2.8,0.8v0.9
			h-2v-0.9c-1.4-0.1-2.4-0.3-2.8-0.8c-0.4-0.4-0.7-1.4-0.7-2.7V16.3l2,2.4V30.4z"/>
		<path d="M67.8,12.3c-0.3,0.1-0.5,0.2-0.7,0.3c-0.3,0.3-0.4,0.7-0.4,1.4v8.6c-0.2,0-0.4,0-0.6,0h-1.4V14c0-0.7,0.1-1.1,0.4-1.4
			c0.3-0.3,0.7-0.4,1.4-0.4h0.2C67.2,12.2,67.5,12.3,67.8,12.3 M66.8,25.2v6.1c0,1,0.2,1.7,0.6,2.1c0.4,0.3,1.2,0.5,2.5,0.6v0.9h-2
			v-0.9c-1.3-0.1-2.1-0.3-2.5-0.6c-0.4-0.3-0.6-1-0.6-2.1v-7.4h1.1L66.8,25.2z M91.3,37.7c1.1-0.4,1.9-0.8,2.2-1l0.3,0.3
			c-1.7,2.9-5.5,4.4-9.2,4C87.3,40.9,89.9,39.7,91.3,37.7z M82,34.7l1.1,1.5c0.9,1.3,2.3,1.9,3.6,2.1c-2,0.2-4.2-0.1-5.6-2.1
			L80,34.7H82z M67.4,11.1h2c3.2,0,5.6,0.5,7.3,1.6c1.7,1,2.5,2.6,2.5,4.6c0,2.2-0.9,3.8-2.7,4.9c-0.8,0.5-1.7,0.9-2.8,1.2l7.5,10.3
			c-0.5,0.1-1.1,0.2-1.8,0.3l-7.7-10.5c1.1-0.3,2.1-0.7,2.8-1.2c1.8-1.1,2.7-2.8,2.7-4.9c0-2-0.8-3.5-2.5-4.6
			C73.1,11.6,70.6,11.1,67.4,11.1z"/>
		<path d="M136.6,12.3c-0.3,0.1-0.5,0.2-0.7,0.3c-0.3,0.3-0.4,0.7-0.4,1.4v8.6c-0.2,0-0.4,0-0.6,0h-1.4V14c0-0.7,0.1-1.1,0.4-1.4
			c0.3-0.3,0.7-0.4,1.4-0.4h0.2C136,12.2,136.3,12.3,136.6,12.3 M156.9,20.6l-2.3,5.9h-2l3.3-8.4h0L156.9,20.6z M135.6,25.2v6.1
			c0,1,0.2,1.7,0.6,2.1c0.4,0.3,1.2,0.5,2.5,0.6v0.9h-2v-0.9c-1.3-0.1-2.1-0.3-2.5-0.6c-0.4-0.3-0.6-1-0.6-2.1v-7.4h1.1L135.6,25.2z
			 M160.2,37.7c1.1-0.4,1.9-0.8,2.2-1l0.3,0.3c-1.7,2.9-5.5,4.4-9.2,4C156.1,40.9,158.7,39.7,160.2,37.7z M150.9,34.7l1.1,1.5
			c0.9,1.3,2.3,1.9,3.6,2.1c-2,0.2-4.2-0.1-5.6-2.1l-1.1-1.5h1.1H150.9z M154,27.8l-0.7,1.9c-0.6,1.7-0.9,2.8-0.6,3.3
			c0.3,0.5,1.3,0.8,3,0.8v0.9h-2v-0.9c-1.7,0-2.7-0.3-3-0.8c-0.3-0.5,0-1.6,0.6-3.3l0.7-1.9H154z M157.9,10.5L157.9,10.5h2h0.5
			l8.6,20.7c0.4,1.1,0.9,1.8,1.3,2.1c0.4,0.3,1,0.5,1.7,0.6v0.9h-2v-0.9c-0.8,0-1.4-0.2-1.7-0.6c-0.4-0.3-0.8-1-1.3-2.1l-8.6-20.7
			H157.9z M136.2,11.1h2c3.2,0,5.6,0.5,7.3,1.6c1.7,1,2.5,2.6,2.5,4.6c0,2.2-0.9,3.8-2.7,4.9c-0.8,0.5-1.7,0.9-2.8,1.2l6.3,8.6
			c-0.3,0.7-0.6,1.1-0.9,1.4c0,0-0.1,0-0.1,0.1l-7.3-10c1.1-0.3,2.1-0.7,2.8-1.2c1.8-1.1,2.7-2.8,2.7-4.9c0-2-0.8-3.5-2.5-4.6
			C141.9,11.6,139.4,11.1,136.2,11.1z"/>
		<path d="M17.2,35.3l0.2-0.2C17.4,35.2,17.3,35.3,17.2,35.3"/>
		<path d="M189.4,26.1c0,3.1-0.7,5.4-2.3,7c-1.5,1.5-3.8,2.3-7,2.3c-3,0-5.2-0.8-6.8-2.3c-1.6-1.5-2.4-3.7-2.4-6.5v-12
			c0-1-0.2-1.7-0.5-2.1c-0.4-0.3-1.1-0.5-2.3-0.6V11h5.8h5.8v0.9c-1.3,0.1-2.1,0.3-2.5,0.6c-0.4,0.3-0.6,1-0.6,2.1v12.3
			c0,2.3,0.4,4.1,1.2,5.2c0.8,1.1,2.1,1.7,3.8,1.7c2.1,0,3.7-0.6,4.7-1.9c1-1.3,1.5-3.3,1.5-6V15.3c0-1.4-0.2-2.2-0.7-2.7
			c-0.4-0.4-1.4-0.7-2.8-0.8V11h3.9h3.9v0.9c-1.1,0.1-1.9,0.3-2.2,0.8c-0.3,0.4-0.5,1.4-0.5,2.7V26.1z"/>
		<path d="M164.2,10.4c0.6,0,1.2,0.2,1.6,0.7c0.4,0.4,0.6,1,0.6,1.6c0,0.6-0.2,1.2-0.6,1.6c-0.4,0.4-1,0.7-1.6,0.7
			c-0.6,0-1.2-0.2-1.6-0.7c-0.4-0.4-0.6-1-0.6-1.6c0-0.6,0.2-1.2,0.6-1.6C163,10.6,163.5,10.4,164.2,10.4"/>
		<path d="M149.8,10.8c0.6,0,1.2,0.2,1.6,0.7c0.4,0.4,0.6,1,0.6,1.6c0,0.6-0.2,1.2-0.6,1.6c-0.4,0.4-1,0.7-1.6,0.7
			c-0.6,0-1.2-0.2-1.6-0.7c-0.4-0.4-0.6-1-0.6-1.6c0-0.6,0.2-1.2,0.6-1.6C148.7,11,149.2,10.8,149.8,10.8"/>
		<path d="M111.6,13.8v7.8h0.6c1.8,0,3-0.4,3.7-1.1c0.7-0.8,1.1-2,1.1-3.9c0-1.6-0.3-2.8-0.9-3.5c-0.6-0.7-1.5-1.1-2.8-1.1
			c-0.7,0-1.1,0.1-1.4,0.4C111.7,12.7,111.6,13.1,111.6,13.8 M111.6,22.6v8.8c0,0.7,0.2,1.2,0.5,1.5c0.3,0.3,0.8,0.5,1.5,0.5h0.2
			c1.4,0,2.4-0.5,3.1-1.4c0.7-0.9,1-2.3,1-4.3c0-1.8-0.5-3.1-1.4-3.9c-0.9-0.9-2.4-1.3-4.4-1.3H111.6z M105.9,31.1V14.5
			c0-1-0.2-1.7-0.6-2.1c-0.4-0.3-1.2-0.5-2.5-0.6V11h5.9h5.1c2.9,0,5.2,0.5,6.7,1.4c1.5,0.9,2.3,2.3,2.3,4c0,1.9-0.9,3.4-2.6,4.4
			c-0.9,0.5-1.9,0.9-3.2,1.1c1.6,0.3,2.9,0.7,4,1.4c2,1.1,3,2.7,3,4.6c0,2-0.9,3.7-2.6,4.9c-1.7,1.3-4,1.9-6.9,1.9h-5.8h-5.9v-0.9
			c1.3-0.1,2.1-0.3,2.5-0.6C105.7,32.8,105.9,32.2,105.9,31.1z"/>
		<path d="M87.3,31.5c0,0.7,0.2,1.2,0.5,1.5c0.3,0.3,0.8,0.5,1.5,0.5h0.4c2.2,0,3.8-0.9,5-2.7c1.1-1.8,1.7-4.4,1.7-7.8
			c0-3.5-0.6-6.2-1.8-8.1c-1.2-1.9-3-2.8-5.3-2.8h-0.2c-0.7,0-1.1,0.1-1.4,0.4c-0.3,0.3-0.4,0.7-0.4,1.4V31.5z M81.6,31.1V14.5
			c0-1-0.2-1.7-0.6-2.1c-0.4-0.3-1.2-0.5-2.4-0.6V11h5.8h5c4,0,7.1,1,9.5,3.1c2.3,2,3.5,4.8,3.5,8.3c0,3.8-1.1,6.8-3.4,9
			c-2.3,2.2-5.3,3.3-9.2,3.3h-5.4h-5.8l-0.3-0.9c1.2-0.1,2.3-0.3,2.6-0.6C81.5,32.8,81.6,32.2,81.6,31.1z"/>
		<path d="M42.2,34.2c2.1,0,3.6-0.9,4.7-2.8c1-1.9,1.6-4.6,1.6-8.3c0-3.8-0.5-6.7-1.6-8.6c-1-1.9-2.6-2.9-4.7-2.9
			c-2.1,0-3.6,1-4.6,2.9c-1,1.9-1.6,4.8-1.6,8.6c0,3.7,0.5,6.5,1.6,8.3C38.6,33.3,40.2,34.2,42.2,34.2 M42.2,35.3
			c-3.6,0-6.6-1.1-8.9-3.4c-2.3-2.3-3.5-5.2-3.5-8.8c0-3.7,1.2-6.7,3.5-9.1c2.3-2.4,5.3-3.5,8.9-3.5c3.6,0,6.6,1.2,8.9,3.5
			c2.3,2.4,3.5,5.4,3.5,9.1c0,3.6-1.2,6.5-3.5,8.8C48.8,34.2,45.9,35.3,42.2,35.3z"/>
		<path d="M9.6,30.3c0,1.4,0.2,2.3,0.7,2.7c0.4,0.4,1.4,0.7,2.8,0.8v0.9H9H5v-0.9c1.3-0.1,2.1-0.3,2.5-0.8c0.4-0.4,0.6-1.3,0.6-2.7
			V14.4c-0.9-1-1.5-1.7-1.9-2.1C5.8,12,5.4,11.9,5,11.8V11h3.7h3.7l12.3,15V15.3c0-1.4-0.2-2.3-0.7-2.7c-0.4-0.4-1.4-0.7-2.8-0.8V11
			h3.9H29v0.9c-1.1,0.1-1.9,0.3-2.2,0.8c-0.4,0.4-0.5,1.4-0.5,2.7v20h-0.5h-0.5L9.6,16.2V30.3z"/>
		<path d="M63.9,22.6L63.9,22.6h1.4c1.9,0,3.2-0.4,4-1.2c0.8-0.8,1.2-2.2,1.2-4.2c0-1.7-0.4-3-1.1-3.8c-0.7-0.8-1.8-1.2-3.4-1.2
			h-0.2c-0.7,0-1.1,0.1-1.4,0.4c-0.3,0.3-0.4,0.7-0.4,1.4V22.6z M58.2,31.2V14.6c0-1-0.2-1.7-0.6-2.1c-0.4-0.3-1.2-0.5-2.5-0.6V11
			h5.9h5.5c3.2,0,5.6,0.5,7.3,1.6c1.7,1,2.5,2.6,2.5,4.6c0,2.2-0.9,3.8-2.7,4.9c-0.8,0.5-1.7,0.9-2.8,1.2l9.4,12.9
			c3,4.1,9.5,1.1,10.4,0.5l0.3,0.3c-3.1,5.2-12.9,5.9-17-0.5L65,23.8h-1.1v7.4c0,1,0.2,1.7,0.6,2.1c0.4,0.3,1.2,0.5,2.5,0.6v0.9
			h-5.9h-5.9v-0.9c1.3-0.1,2.1-0.3,2.5-0.6C58,32.9,58.2,32.2,58.2,31.2z"/>
		<path d="M132.7,22.6L132.7,22.6h1.4c1.9,0,3.2-0.4,4-1.2c0.8-0.8,1.2-2.2,1.2-4.2c0-1.7-0.4-3-1.1-3.8c-0.7-0.8-1.8-1.2-3.4-1.2
			h-0.2c-0.7,0-1.1,0.1-1.4,0.4c-0.3,0.3-0.4,0.7-0.4,1.4V22.6z M155,18l-3.3,8.4h6.7L155,18L155,18z M127.1,31.2V14.6
			c0-1-0.2-1.7-0.6-2.1c-0.4-0.3-1.2-0.5-2.5-0.6V11h5.9h5.5c3.2,0,5.6,0.5,7.3,1.6c1.7,1,2.5,2.6,2.5,4.6c0,2.2-0.9,3.8-2.7,4.9
			c-0.8,0.5-1.7,0.9-2.8,1.2l7.3,10c0,0,0.1,0,0.1-0.1c0.4-0.3,0.8-1,1.2-2.1l8.3-20.7h0.5h0.5l8.6,20.7c0.4,1.1,0.9,1.8,1.3,2.1
			c0.4,0.3,1,0.5,1.7,0.6v0.9h-5.7h-5.7v-0.9c1.5,0,2.5-0.2,2.8-0.6c0.3-0.3,0.3-1-0.2-2.1l-1.4-3.4h-7.8l-0.7,1.9
			c-0.6,1.7-0.9,2.8-0.6,3.3c0.3,0.5,1.3,0.8,3,0.8v0.9h-3.8H148l1.1,1.5c3,4.1,9.5,1.1,10.4,0.5l0.3,0.3c-3.1,5.2-12.9,5.9-17-0.5
			l-8.9-12.8h-1.1v7.4c0,1,0.2,1.7,0.6,2.1c0.4,0.3,1.2,0.5,2.5,0.6v0.9h-5.9H124v-0.9c1.3-0.1,2.1-0.3,2.5-0.6
			C126.9,32.9,127.1,32.2,127.1,31.2z"/>
	</g>
</g>
</svg>
