<?xml version="1.0" encoding="utf-8"?>
<!-- Generator: Adobe Illustrator 19.2.0, SVG Export Plug-In . SVG Version: 6.00 Build 0)  -->
<!DOCTYPE svg PUBLIC "-//W3C//DTD SVG 1.1//EN" "http://www.w3.org/Graphics/SVG/1.1/DTD/svg11.dtd">
<svg version="1.1" id="Refs" xmlns="http://www.w3.org/2000/svg" xmlns:xlink="http://www.w3.org/1999/xlink" x="0px" y="0px"
	 viewBox="0 0 200 60" style="enable-background:new 0 0 200 60;" xml:space="preserve">
<g id="Percom">
	<rect x="2.5" y="35" width="195" height="3.9"/>
	<polygon points="181,29 184.1,29 192.6,15.5 192.6,29 197.3,29 197.3,10.7 190.6,10.7 182.7,23.3 174.2,10.7 167.7,10.7 167.7,29 
		172.4,29 172.4,15.5 172.5,15.5 	"/>
	<g>
		<path d="M94.8,11c-0.7-0.2-1.5-0.3-2.4-0.3H68.7v4.8h24.8v2.1H68.7V29h4.7v-7.1h13.8l5.9,7.1h5.2l-6-7.1c2,0,3.5-0.3,4.5-1
			c1-0.6,1.4-1.8,1.4-3.4v-2.1c0-0.8-0.2-1.5-0.5-2.1c-0.3-0.6-0.7-1.1-1.2-1.5C96.1,11.5,95.5,11.2,94.8,11"/>
		<path d="M101.7,15.2v9.2c0,1.3,0.6,2.3,1.7,3.3c1.2,0.9,2.6,1.3,4.2,1.3h23.7v-5h-21c-0.6,0-1.1-0.1-1.6-0.2
			c-0.5-0.1-0.9-0.3-1.3-0.5c-0.4-0.2-0.6-0.5-0.8-0.8c-0.2-0.3-0.3-0.6-0.3-1V18c0-0.7,0.4-1.3,1.2-1.8c0.7-0.5,1.7-0.7,2.8-0.7h21
			v-4.8h-23.7c-1.7,0-3,0.5-4.2,1.4C102.3,12.9,101.7,14,101.7,15.2"/>
		<path d="M139.4,21.5V18c0-0.7,0.4-1.3,1.2-1.8c0.7-0.5,1.7-0.7,2.8-0.7h12.2c1.1,0,2,0.2,2.8,0.7c0.7,0.5,1.1,1,1.3,1.7v3.5
			c0,0.7-0.4,1.3-1.2,1.8c-0.8,0.5-1.7,0.7-2.8,0.7h-12.3c-0.6,0-1.1-0.1-1.5-0.2c-0.5-0.1-0.9-0.3-1.3-0.5
			c-0.4-0.2-0.6-0.5-0.9-0.8C139.5,22.1,139.4,21.8,139.4,21.5 M140.6,10.7c-1.7,0-3,0.5-4.2,1.4c-1.1,0.9-1.7,1.9-1.7,3.2v9.2
			c0,1.3,0.6,2.3,1.7,3.3c1.2,0.9,2.6,1.3,4.2,1.3h17.8c1.6,0,3-0.5,4.2-1.3c1.1-0.9,1.7-2,1.7-3.3v-9.1c0-1.3-0.6-2.3-1.7-3.2
			c-1.2-0.9-2.6-1.4-4.2-1.4H140.6z"/>
		<path d="M2.7,17.6V29h4.7v-7.1h18.9c2.1,0,3.5-0.3,4.5-1c1-0.6,1.4-1.8,1.4-3.4v-2.1c0-0.8-0.2-1.5-0.5-2.1
			c-0.3-0.6-0.7-1.1-1.2-1.5c-0.5-0.4-1.1-0.7-1.9-0.9c-0.7-0.2-1.5-0.3-2.3-0.3H2.7v4.8h24.7v2.1H2.7z"/>
		<path d="M35.7,17.6v6.8c0,1.3,0.6,2.3,1.7,3.3c1.2,0.9,2.6,1.3,4.2,1.3h23.7v-5H40.4v-2.1h24.9v-4.3H35.7z"/>
		<path d="M35.7,15.2v0.3h29.7v-4.8H41.6c-1.7,0-3,0.5-4.2,1.4C36.2,12.9,35.7,14,35.7,15.2"/>
	</g>
	<polygon points="90.9,45.4 89.2,48.1 87.3,45.4 85.9,45.4 85.9,46.4 85.9,46.9 85.9,46.9 85.9,49.3 87,49.3 87,47.1 87,46.4 
		88.8,49.3 89.5,49.3 91.4,46.4 91.4,49.3 92.4,49.3 92.4,45.4 	"/>
	<g>
		<path d="M99.6,45.4h-5.2c-0.4,0-0.7,0.1-0.9,0.3c-0.3,0.2-0.4,0.4-0.4,0.7v0.1v0.5v1.5c0,0.3,0.1,0.5,0.4,0.7
			c0.2,0.2,0.6,0.3,0.9,0.3h5.2v-1.1h-5.4v-0.5h5.4v-0.9h-5.4l0-0.5h5.4V45.4z"/>
		<path d="M106.8,45.4h-5.2c-0.4,0-0.7,0.1-0.9,0.3c-0.3,0.2-0.4,0.4-0.4,0.7v0.1l0,0.5h0v1.5c0,0.3,0.1,0.5,0.4,0.7
			c0.2,0.2,0.6,0.3,0.9,0.3h5.2v-1.1h-5.4v-0.5h5.4v-0.9h-5.4v-0.5h5.4V45.4z"/>
	</g>
	<polygon points="107.5,45.4 107.5,46.4 110.2,46.4 110.2,49.3 111.2,49.3 111.2,46.4 113.9,46.4 113.9,45.4 	"/>
	<g>
		<path d="M121.1,45.4H116c-0.4,0-0.7,0.1-0.9,0.3c-0.3,0.2-0.4,0.4-0.4,0.7v0.3v0.3c0,0.3,0.1,0.5,0.3,0.7c0.2,0.2,0.5,0.2,0.9,0.2
			h4.1v0.5h-5.4v1.1h5.2c0.2,0,0.4,0,0.5-0.1c0.2,0,0.3-0.1,0.4-0.2c0.1-0.1,0.2-0.2,0.3-0.3c0.1-0.1,0.1-0.3,0.1-0.5v-0.5
			c0-0.3-0.1-0.6-0.3-0.7c-0.2-0.1-0.5-0.2-1-0.2h-4.1v-0.5h5.4V45.4z"/>
		<path d="M37,47.7v-0.8c0-0.1-0.1-0.3-0.3-0.4c-0.2-0.1-0.4-0.2-0.6-0.2h-2.7c-0.2,0-0.4,0.1-0.6,0.2c-0.2,0.1-0.3,0.2-0.3,0.4v0.8
			c0,0.1,0,0.1,0.1,0.2c0,0.1,0.1,0.1,0.2,0.2c0.1,0.1,0.2,0.1,0.3,0.1c0.1,0,0.2,0,0.3,0h2.7c0.2,0,0.4-0.1,0.6-0.2
			C36.9,48,37,47.8,37,47.7 M31.5,48.3v-2c0-0.3,0.1-0.5,0.4-0.7c0.3-0.2,0.6-0.3,0.9-0.3h3.9c0.4,0,0.7,0.1,0.9,0.3
			c0.3,0.2,0.4,0.4,0.4,0.7v2c0,0.3-0.1,0.5-0.4,0.7c-0.3,0.2-0.6,0.3-0.9,0.3h-3.9c-0.4,0-0.7-0.1-0.9-0.3
			C31.7,48.9,31.5,48.6,31.5,48.3"/>
		<path d="M73.9,48.3v1.1h-5.2c-0.4,0-0.7-0.1-0.9-0.3c-0.3-0.2-0.4-0.4-0.4-0.7v-2c0-0.3,0.1-0.5,0.4-0.7c0.3-0.2,0.6-0.3,0.9-0.3
			h5.2v1.1h-4.6c-0.2,0-0.4,0.1-0.6,0.2c-0.2,0.1-0.3,0.2-0.3,0.4v0.8c0,0.1,0,0.1,0.1,0.2c0,0.1,0.1,0.1,0.2,0.2
			c0.1,0,0.2,0.1,0.3,0.1c0.1,0,0.2,0,0.3,0H73.9z"/>
		<path d="M2.8,47.1V46v-0.6H8c0.2,0,0.4,0,0.5,0.1c0.2,0,0.3,0.1,0.4,0.2c0.1,0.1,0.2,0.2,0.3,0.3c0.1,0.1,0.1,0.3,0.1,0.5v0.5
			c0,0.3-0.1,0.6-0.3,0.7c-0.2,0.1-0.5,0.2-1,0.2H3.8v1.5h-1v-2.5h1h4.4v-0.5H3.8l0,1.2L2.8,47.1z"/>
		<path d="M21.2,47.8h-3v1.5h-1v-2.5h5.4v-0.5h-4.4v1l-1,0.2l0-1.2v-1.1h5.2c0.2,0,0.4,0,0.5,0.1c0.2,0,0.3,0.1,0.4,0.2
			c0.1,0.1,0.2,0.2,0.3,0.3c0.1,0.1,0.1,0.3,0.1,0.5v0.5c0,0.3-0.1,0.6-0.3,0.7c-0.2,0.1-0.5,0.2-1,0.2l1.3,1.5h-1.1L21.2,47.8z"/>
		<path d="M16.4,48.3v1.1h-5.2c-0.4,0-0.7-0.1-0.9-0.3c-0.3-0.2-0.4-0.4-0.4-0.7v-1.5h6.5v0.9H11v0.5H16.4z M10,46.4L10,46.4
			c0-0.3,0.1-0.6,0.4-0.8c0.3-0.2,0.6-0.3,0.9-0.3h5.2v1.1H11l0,0.9l-1,0V46.4z"/>
		<path d="M25.4,49.3h-1v-2.5h6.5v0.9h-5.4V49.3z M24.4,46.4L24.4,46.4c0-0.3,0.1-0.6,0.4-0.8c0.3-0.2,0.6-0.3,0.9-0.3h5.2v1.1h-5.4
			v0.9l-1,0.1L24.4,46.4z"/>
		<path d="M42.8,47.8h-3v1.5h-1v-2.5h5.4v-0.5l-4.4,0l0,0.9l-1,0.2l0-1.1v-1.1h5.2c0.2,0,0.4,0,0.5,0.1c0.2,0,0.3,0.1,0.4,0.2
			c0.1,0.1,0.2,0.2,0.3,0.3c0.1,0.1,0.1,0.3,0.1,0.5v0.5c0,0.3-0.1,0.6-0.3,0.7c-0.2,0.1-0.5,0.2-1,0.2l1.3,1.5h-1.1L42.8,47.8z"/>
	</g>
	<polygon points="50.9,45.4 49.2,48.1 47.3,45.4 45.9,45.4 45.9,46.4 45.9,47.7 45.9,47.7 45.9,49.3 46.9,49.3 46.9,47 47,46.4 
		48.8,49.3 49.5,49.3 51.3,46.4 51.3,49.3 52.4,49.3 52.4,45.4 	"/>
	<path d="M56.2,46.4h0.2l0.4,0.5l-0.9,0L56.2,46.4z M55.8,45.4l-0.7,1.1l-0.7,1l-1.3,1.9h1l1.2-1.5h2.1l1.1,1.5h1.1l-2.7-4H55.8z"/>
	<polygon points="65.7,45.4 65.7,48.3 61.3,45.4 60.3,45.4 60.3,46.4 60.3,46.9 60.3,46.9 60.3,49.3 61.3,49.3 61.3,48.2 61.3,46.4 
		65.7,49.3 66.7,49.3 66.7,45.4 	"/>
	<g>
		<path d="M81.1,48.3v1.1h-5.2c-0.4,0-0.7-0.1-0.9-0.3c-0.3-0.2-0.4-0.4-0.4-0.7v-1.5h6.5v0.9h-5.4v0.5H81.1z M74.6,46.4L74.6,46.4
			c0-0.3,0.1-0.6,0.4-0.8c0.3-0.2,0.6-0.3,0.9-0.3h5.2v1.1l-5.4,0l0,1l-1,0.1L74.6,46.4z"/>
		<path d="M132.4,48.3v1.1h-5.2c-0.4,0-0.7-0.1-0.9-0.3c-0.3-0.2-0.4-0.4-0.4-0.7v-2c0-0.3,0.1-0.5,0.4-0.7c0.3-0.2,0.6-0.3,0.9-0.3
			h5.2v1.1h-4.6c-0.2,0-0.4,0.1-0.6,0.2c-0.2,0.1-0.3,0.2-0.3,0.4v0.8c0,0.1,0,0.1,0.1,0.2c0,0.1,0.1,0.1,0.2,0.2
			c0.1,0,0.2,0.1,0.3,0.1c0.1,0,0.2,0,0.3,0H132.4z"/>
		<path d="M138.6,47.7v-0.8c0-0.1-0.1-0.3-0.3-0.4c-0.2-0.1-0.4-0.2-0.6-0.2H135c-0.2,0-0.4,0.1-0.6,0.2c-0.2,0.1-0.3,0.2-0.3,0.4
			v0.8c0,0.1,0,0.1,0.1,0.2c0,0.1,0.1,0.1,0.2,0.2c0.1,0.1,0.2,0.1,0.3,0.1c0.1,0,0.2,0,0.3,0h2.7c0.2,0,0.4-0.1,0.6-0.2
			C138.5,48,138.6,47.8,138.6,47.7 M133.1,48.3v-2c0-0.3,0.1-0.5,0.4-0.7c0.3-0.2,0.6-0.3,0.9-0.3h3.9c0.4,0,0.7,0.1,0.9,0.3
			c0.3,0.2,0.4,0.4,0.4,0.7v2c0,0.3-0.1,0.5-0.4,0.7c-0.3,0.2-0.6,0.3-0.9,0.3h-3.9c-0.4,0-0.7-0.1-0.9-0.3
			C133.3,48.9,133.1,48.6,133.1,48.3"/>
	</g>
	<polygon points="161.9,45.4 161.9,46.4 164.6,46.4 164.6,49.3 165.6,49.3 165.6,46.4 168.3,46.4 168.3,45.4 	"/>
	<g>
		<path d="M189.9,48.3v1.1h-5.2c-0.4,0-0.7-0.1-0.9-0.3c-0.3-0.2-0.4-0.4-0.4-0.7v-2c0-0.3,0.1-0.5,0.4-0.7c0.2-0.2,0.6-0.3,0.9-0.3
			h5.2v1.1h-4.6c-0.2,0-0.4,0.1-0.6,0.2c-0.2,0.1-0.3,0.2-0.3,0.4v0.8c0,0.1,0,0.1,0.1,0.2c0,0.1,0.1,0.1,0.2,0.2
			c0.1,0,0.2,0.1,0.3,0.1c0.1,0,0.2,0,0.3,0H189.9z"/>
	</g>
	<polygon points="145.3,45.4 143.6,48.1 141.7,45.4 140.3,45.4 140.3,46.4 140.3,46.9 140.3,46.9 140.3,49.3 141.4,49.3 141.4,48.7 
		141.4,46.4 143.2,49.3 143.9,49.3 145.8,46.4 145.8,49.3 146.8,49.3 146.8,45.4 	"/>
	<g>
		<path d="M147.5,46.4v-1.1h5.2c0.2,0,0.4,0,0.5,0.1c0.2,0,0.3,0.1,0.4,0.2c0.1,0.1,0.2,0.2,0.3,0.3c0.1,0.1,0.1,0.3,0.1,0.5v0.5
			c0,0.3-0.1,0.6-0.3,0.7c-0.2,0.1-0.5,0.2-1,0.2h-4.1v1.5h-1v-2.5h5.4v-0.5h-4.4l0,0.9l-1-0.1L147.5,46.4z"/>
		<path d="M161.1,48.3v1.1H156c-0.4,0-0.7-0.1-0.9-0.3c-0.3-0.2-0.4-0.4-0.4-0.7v-1.5h6.5v0.9h-5.4v0.5H161.1z M154.7,46.4
			L154.7,46.4c0-0.3,0.1-0.6,0.4-0.8c0.3-0.2,0.6-0.3,0.9-0.3h5.2v1.1h-5.4l0,0.9l-1-0.1L154.7,46.4z"/>
		<path d="M175.5,48.3v1.1h-5.2c-0.4,0-0.7-0.1-0.9-0.3c-0.2-0.2-0.4-0.4-0.4-0.7v-1.5h6.5v0.9h-5.4v0.5H175.5z M169.1,46.4
			L169.1,46.4c0-0.3,0.1-0.6,0.4-0.8c0.3-0.2,0.6-0.3,0.9-0.3h5.2v1.1h-5.4l0,0.8l-1-0.1L169.1,46.4z"/>
	</g>
	<polygon points="181.7,45.4 181.7,48.3 177.3,45.4 176.2,45.4 176.2,46.4 176.2,46.9 176.2,46.9 176.2,49.3 177.3,49.3 177.3,48.4 
		177.3,46.4 181.7,49.3 182.7,49.3 182.7,45.4 	"/>
	<g>
		<path d="M197.1,48.3v1.1h-5.2c-0.4,0-0.7-0.1-0.9-0.3c-0.3-0.2-0.4-0.4-0.4-0.7v-1.5h6.5v0.9h-5.4v0.5H197.1z M190.6,46.4
			L190.6,46.4c0-0.3,0.1-0.6,0.4-0.8c0.2-0.2,0.6-0.3,0.9-0.3h5.2v1.1h-5.4l0,1l-1-0.3V46.4z"/>
	</g>
</g>
</svg>
