<?xml version="1.0" encoding="utf-8"?>
<!-- Generator: Adobe Illustrator 19.2.0, SVG Export Plug-In . SVG Version: 6.00 Build 0)  -->
<!DOCTYPE svg PUBLIC "-//W3C//DTD SVG 1.1//EN" "http://www.w3.org/Graphics/SVG/1.1/DTD/svg11.dtd">
<svg version="1.1" id="Refs" xmlns="http://www.w3.org/2000/svg" xmlns:xlink="http://www.w3.org/1999/xlink" x="0px" y="0px"
	 viewBox="0 0 200 60" style="enable-background:new 0 0 200 60;" xml:space="preserve">
<g id="Reisch">
	<path d="M28.3,19.4V8.5H35l0.1,10.9H28.3L28.3,19.4z M16.4,34h11.9V23.5h6.8V34l12,0V23.8c0-1.5-1.5-2.9-2.9-2.9
		c1.5,0,2.9-1.5,2.9-2.9V7.5c0-1.5-1.5-2.9-2.9-2.9H16.4L16.4,34L16.4,34z"/>
	<polygon points="81.1,8.5 92.3,8.5 92.3,34 81.1,34 81.1,8.5 	"/>
	<polygon points="81.1,4.5 92.3,4.5 92.3,7 81.1,7 81.1,4.5 	"/>
	<path d="M98.5,8.5h21.4c1.5,0,2.9,1.5,2.9,2.9l0,4.5l-11.2,0l0-2.7h-4.4v5.5l12.6,0c1.5,0,2.9,1.5,2.9,2.9V31
		c0,1.5-1.5,2.9-2.9,2.9H98.5c-1.5,0-2.9-1.5-2.9-2.9l0-5.4l11.7,0l0,3.6h4.4v-6.5H98.3c-2,0-2.7-0.8-2.7-2.8l0-8.4
		C95.5,10,97.1,8.5,98.5,8.5L98.5,8.5z"/>
	<path d="M129.1,8.5h21.5c1.5,0,2.9,1.5,2.9,2.9l0,6.7H142l0-4.9h-4.3v16h4.3v-6.1h11.6V31c0,1.5-1.5,2.9-2.9,2.9h-21.5
		c-1.5,0-2.9-1.5-2.9-2.9V11.4C126.2,10,127.6,8.5,129.1,8.5L129.1,8.5z"/>
	<path d="M156.7,4.5h10.9v4h13.2c1.5,0,2.9,1.5,2.9,2.9V34l-11.3,0V13.2h-4.8V34h-10.9V4.5L156.7,4.5z"/>
	<path d="M77.9,11.4c0-1.5-1.5-2.9-2.9-2.9H53.2c-1.5,0-2.9,1.5-2.9,2.9l0,19.6c0,1.5,1.5,2.9,3,2.9H75c1.5,0,2.9-1.5,2.9-2.9v-5.4
		H66.5v3.8H62v-6.3l15.9,0V11.4L77.9,11.4z M66.5,18.8H62v-5.6h4.5V18.8L66.5,18.8z"/>
	<path d="M67,56.2h4.2v-6.8h2.6v-3.1h-2.6v-3.1h2.9V40H67V56.2L67,56.2z M76.4,40l-2.1,16.2h4.3l0.3-2.9h1.5l0.2,2.9h4.3L82.5,40
		H76.4L76.4,40z M78.8,50.4c0.1-1.4,0.4-3.7,0.8-6.8c0.2,2.7,0.4,5,0.6,6.8H78.8L78.8,50.4z M91.6,40v5.8h-1.3V40h-4.2v16.2h4.2
		v-6.8h1.3v6.8h4.2V40H91.6L91.6,40z M98,56.2h4.2v-7.3c0.6,0,0.9,0.1,1.1,0.3c0.1,0.2,0.2,0.7,0.2,1.6v5.4h3.9v-4.3
		c0-1.3,0-2.1-0.1-2.4c-0.1-0.3-0.2-0.6-0.5-1c-0.3-0.3-0.8-0.6-1.7-0.8c0.9-0.1,1.5-0.3,1.8-0.8c0.3-0.4,0.5-1.3,0.5-2.5
		c0-1.4-0.2-2.4-0.7-3c-0.4-0.6-1-1-1.7-1.2c-0.7-0.2-2-0.2-4-0.2h-3V56.2L98,56.2z M103.2,43c0.2,0.2,0.3,0.5,0.3,1v0.9
		c0,0.7-0.1,1.1-0.3,1.3c-0.2,0.1-0.5,0.2-1,0.2v-3.6C102.7,42.8,103,42.9,103.2,43L103.2,43z M109.2,40v3.2h2.9l-3.2,10.6v2.3h7.8
		V53h-3.1l3.1-9.7V40H109.2L109.2,40z M118.2,56.2h7.3V53h-3.1v-3.6h2.6v-3.1h-2.6v-3.1h2.8V40h-7V56.2L118.2,56.2z M132.5,40v11.9
		c0,0.8,0,1.3-0.1,1.5c-0.1,0.2-0.2,0.3-0.5,0.3c-0.2,0-0.4-0.1-0.5-0.3c-0.1-0.2-0.1-0.6-0.1-1.4V40h-4.2v9.6c0,1.8,0,3,0.1,3.6
		c0.1,0.6,0.3,1.1,0.6,1.6c0.4,0.5,0.9,0.9,1.7,1.2c0.7,0.3,1.6,0.5,2.6,0.5c0.9,0,1.6-0.1,2.3-0.4c0.6-0.3,1.2-0.7,1.6-1.2
		c0.4-0.5,0.6-1,0.7-1.5c0.1-0.5,0.1-1.4,0.1-2.6V40H132.5L132.5,40z M148.5,45.3c0-1.3-0.1-2.3-0.4-3c-0.2-0.7-0.8-1.3-1.6-1.8
		c-0.8-0.5-1.8-0.8-3.1-0.8c-1.3,0-2.3,0.3-3.1,0.9c-0.8,0.6-1.3,1.2-1.4,1.9c-0.2,0.7-0.2,1.8-0.2,3.4v4.8c0,1.1,0,1.9,0.1,2.5
		c0.1,0.6,0.3,1.1,0.6,1.6c0.3,0.5,0.8,0.9,1.4,1.3c0.6,0.3,1.3,0.5,2,0.5c0.6,0,1.1-0.1,1.5-0.4c0.4-0.2,0.8-0.6,1.1-1.1l0.4,1.2
		h2.6v-8.7h-4.9V50h0.8v1.9c0,0.8-0.1,1.3-0.2,1.5c-0.1,0.3-0.3,0.4-0.6,0.4c-0.3,0-0.5-0.1-0.6-0.3c-0.1-0.2-0.1-0.7-0.1-1.4v-7.8
		c0-0.8,0-1.3,0.1-1.5c0.1-0.2,0.3-0.3,0.5-0.3c0.3,0,0.5,0.1,0.6,0.3c0.1,0.2,0.1,0.8,0.1,1.7V46h4.2V45.3L148.5,45.3z M150.7,56.2
		h4.9c1.7,0,2.8-0.1,3.4-0.3c0.5-0.2,0.9-0.6,1.2-1.1c0.2-0.5,0.4-1.3,0.4-2.4v-1.5c0-1.1-0.2-1.8-0.5-2.3c-0.3-0.5-1-0.9-2-1.1
		c0.9-0.2,1.5-0.5,1.8-0.9c0.3-0.4,0.4-1,0.4-2c0-1.4-0.2-2.4-0.6-3c-0.4-0.6-1-1-1.7-1.3c-0.7-0.2-1.7-0.3-3-0.3h-4.2V56.2
		L150.7,56.2z M155.7,42.9c0.1,0.1,0.3,0.2,0.4,0.4c0.1,0.2,0.1,0.6,0.1,1.1c0,1-0.1,1.5-0.2,1.7c-0.1,0.2-0.4,0.3-0.8,0.3
		c-0.1,0-0.2,0-0.4,0v-3.6C155.3,42.8,155.6,42.8,155.7,42.9L155.7,42.9z M156,49.2c0.1,0.1,0.2,0.6,0.2,1.3v1.5
		c0,0.7-0.1,1.1-0.2,1.2c-0.2,0.2-0.5,0.3-1.1,0.3v-4.5C155.5,48.9,155.9,49,156,49.2L156,49.2z M163.7,40l-2.1,16.2h4.3l0.3-2.9
		h1.5l0.2,2.9h4.3L169.7,40H163.7L163.7,40z M166.1,50.4c0.1-1.4,0.4-3.7,0.8-6.8c0.2,2.7,0.4,5,0.6,6.8H166.1L166.1,50.4z
		 M178.7,40v11.9c0,0.8,0,1.3-0.1,1.5c-0.1,0.2-0.2,0.3-0.5,0.3c-0.2,0-0.4-0.1-0.5-0.3c-0.1-0.2-0.1-0.6-0.1-1.4V40h-4.2v9.6
		c0,1.8,0,3,0.1,3.6c0.1,0.6,0.3,1.1,0.6,1.6c0.4,0.5,0.9,0.9,1.7,1.2c0.7,0.3,1.6,0.5,2.6,0.5c0.9,0,1.6-0.1,2.3-0.4
		c0.6-0.3,1.2-0.7,1.6-1.2c0.4-0.5,0.6-1,0.7-1.5c0.1-0.5,0.1-1.4,0.1-2.6V40H178.7L178.7,40z"/>
</g>
</svg>
