<?xml version="1.0" encoding="utf-8"?>
<!-- Generator: Adobe Illustrator 19.2.0, SVG Export Plug-In . SVG Version: 6.00 Build 0)  -->
<!DOCTYPE svg PUBLIC "-//W3C//DTD SVG 1.1//EN" "http://www.w3.org/Graphics/SVG/1.1/DTD/svg11.dtd">
<svg version="1.1" id="Refs" xmlns="http://www.w3.org/2000/svg" xmlns:xlink="http://www.w3.org/1999/xlink" x="0px" y="0px"
	 viewBox="0 0 200 60" style="enable-background:new 0 0 200 60;" xml:space="preserve">
<g id="Singer_Deutsch">
	<g>
		<path d="M8.6,23.3c0.8,0.7,1,1.6,1,2.4c0,2.2-1.4,3.7-3.7,3.7c-1,0-2.6-0.3-3.3-1.1c-0.1-0.6-0.1-1.9,0.2-2.8H3
			c-0.2,2,1.1,3.3,2.9,3.2c1.4-0.1,2.7-1.1,2.7-2.7c0-0.8-0.3-1.4-0.8-1.8l-3.8-3.5c-0.8-0.7-1.1-1.7-1.1-2.5c0-1.7,1.2-3.3,3.5-3.3
			c0.5,0,1.2,0.1,1.7,0.2h0.8v0.2v2.2H8.6c0-1.3-1-2-2.2-2c-1.5,0-2.4,1.1-2.4,2.3c0,0.5,0.2,1.2,0.8,1.8L8.6,23.3z"/>
		<path d="M11.8,29.1l0-0.2h0.3c0.7,0,1.3-0.5,1.3-1.1v-9.3c0-0.6-0.6-1.1-1.3-1.1h-0.3l0-0.2h4.5v0.2h-0.3c-0.7,0-1.3,0.5-1.3,1
			v9.4c0,0.6,0.6,1.1,1.3,1.1h0.3l0,0.2H11.8z"/>
		<path d="M32.1,17.3l0,0.2h-0.3c-0.6,0-1.1,0.4-1.1,1v8.4c0,1.3,0.2,2.5,0.2,2.5h-0.2l-10.3-9.8v8.3c0,0.6,0.5,1,1.1,1h0.3l0,0.2
			h-3.7l0-0.2h0.3c0.6,0,1.1-0.5,1.1-1v-8.5c0-1.4-0.2-2.5-0.2-2.5l0.2,0l10.3,9.7v-8.2c0-0.6-0.5-1-1.1-1h-0.3l0-0.2H32.1z"/>
		<path d="M45.8,26.8c-0.9,1.2-2.8,2.5-5.6,2.5c-3.9,0-6.5-2.4-6.5-6.2c0-3.9,2.6-6.2,6.5-6.2c1.8,0,3.3,0.4,4.6,1.2l0.4,2.8h-0.2
			c-0.6-2.3-2.1-3.4-4.9-3.4c-3,0-5,2.1-5,5.6c0,3.5,2,5.6,5.1,5.6c1.6,0,3.1-0.5,4.3-1.7l0-2.6c0-0.5-0.3-0.8-0.9-0.8h-0.3v-0.2H47
			v0.2h-0.3c-0.6,0-0.9,0.3-0.9,0.8L45.8,26.8z"/>
		<path d="M56.2,29.1h-8l0-0.2h0.3c0.6,0,1.1-0.5,1.1-1v-9.4c0-0.6-0.5-1-1.1-1h-0.3l0-0.2h5.8c0.8,0,1.9-0.2,2.2-0.3v2.2l-0.2,0
			v-0.3c0-0.6-0.4-1-1-1h-4.1v5h3.4c0.5,0,0.8-0.4,0.8-0.8v-0.3l0.2,0v2.8l-0.2,0v-0.3c0-0.4-0.2-0.8-0.8-0.8h-3.4v5h3.1
			c1.9,0,2.6-1,3.1-2.2h0.2L56.2,29.1z"/>
		<path d="M63.7,17.3c2.5,0,4,1.2,4,3.2c0,1.7-1.3,3.1-3.1,3.3c0.4,0.2,1.1,0.9,1.5,1.5c0,0,0.9,1.2,1.7,2.2
			c0.8,0.9,1.4,1.5,2.5,1.5v0.2h-0.6c-2.2,0-3.1-1-3.7-1.7c-0.2-0.3-1.8-2.5-1.9-2.7c-0.5-0.7-1.2-1.3-2-1.3v-0.2c0,0,0.5,0,1.1,0
			c1.1,0,2.3,0,2.9-1.7c0.1-0.3,0.2-0.7,0.1-1.1c0-1.5-1-2.4-2.6-2.4c-1.1-0.1-2.1,0-2.3,0v10c0,0.6,0.5,1.1,1.1,1.1h0.3l0,0.2h-4
			l0-0.2H59c0.6,0,1.1-0.5,1.1-1v-9.4c0-0.6-0.5-1-1.1-1h-0.3l0-0.2H63.7z"/>
		<path d="M82.9,15.3c4.2,0,7.1,2.8,7.1,6.9c0,4.1-2.9,6.9-7.1,6.9h-6.7l0-0.2h0.2c0.7,0,1.3-0.6,1.3-1.2V16.6
			c0-0.6-0.6-1.1-1.3-1.1h-0.2l0-0.2L82.9,15.3z M79,28.5h3.9c3.4,0,5.6-2.5,5.6-6.3c0-3.8-2.2-6.3-5.6-6.3H79V28.5z"/>
		<path d="M99.7,29.1h-8l0-0.2H92c0.6,0,1.1-0.5,1.1-1v-9.4c0-0.6-0.5-1-1.1-1h-0.3l0-0.2h5.8c0.8,0,1.9-0.2,2.2-0.3v2.2l-0.2,0
			v-0.3c0-0.6-0.4-1-1-1h-4.1v5h3.4c0.5,0,0.8-0.4,0.8-0.8v-0.3l0.2,0v2.8l-0.2,0v-0.3c0-0.4-0.2-0.8-0.8-0.8h-3.4v5h3.1
			c1.9,0,2.6-1,3.1-2.2h0.2L99.7,29.1z"/>
		<path d="M114.5,17.3v0.2h-0.3c-0.5,0-0.9,0.4-1,0.8v6.7c0,2.8-1.9,4.5-4.9,4.5c-3.1,0-4.9-1.7-4.9-4.4v-6.7c0-0.5-0.4-0.9-1-0.9
			h-0.3v-0.2h3.8v0.2h-0.3c-0.5,0-0.9,0.4-1,0.9v6.4c0,2.6,1.4,4.1,3.7,4.1c2.5,0,4-1.5,4-3.9v-6.6c0-0.5-0.4-0.8-1-0.8h-0.3v-0.2
			L114.5,17.3z"/>
		<path d="M124.2,17.2c0.8,0,1.9-0.2,2.2-0.3v2.2l-0.2,0v-0.3c0-0.6-0.4-1-1-1h-3.6v10c0,0.6,0.5,1,1.2,1h0.2l0,0.2h-4.1l0-0.2h0.2
			c0.6,0,1.1-0.5,1.2-1.1v-10h-3.6c-0.6,0-1,0.5-1,1v0.3l-0.2,0v-2.2c0.3,0.1,1.4,0.3,2.2,0.3H124.2z"/>
		<path d="M133.8,24.1c0.6,0.5,0.9,1.4,0.9,2.1c0,1.8-1.5,3.2-3.5,3.2c-1.2,0-2.7-0.3-3.4-0.9c-0.1-0.5-0.1-1.7,0.2-2.5h0.2
			c-0.2,1.8,1,2.8,2.8,2.8c1.6,0,2.6-0.9,2.6-2.2c0-0.6-0.2-1.1-0.7-1.6l-4-3.1c-0.7-0.6-0.9-1.5-0.9-2.1c0-1.6,1.4-2.9,3.3-2.9
			c0.9,0,1.5,0.1,2,0.2h0.7l0,2.2h-0.2c0-1.1-0.7-1.7-2.3-1.7c-1.3,0-2.4,0.8-2.4,1.9c0,0.5,0.2,1.1,0.8,1.6L133.8,24.1z"/>
		<path d="M149,24.1l-0.2,2.7c-1,1.6-3.1,2.6-5.4,2.6c-4,0-6.5-2.4-6.5-6.2c0-3.9,2.5-6.2,6.5-6.2c1.6,0,3.4,0.5,4.6,1.2l0.4,2.8
			h-0.2c-0.6-2.4-2.5-3.4-4.9-3.4c-3.1,0-5.1,2.1-5.1,5.6c0,3.4,2,5.6,5.1,5.6c2.9,0,5.3-1.4,5.5-4.6L149,24.1z"/>
		<path d="M159.4,29.1l0-0.2h0.2c0.6,0,1.1-0.5,1.2-1.1v-4.3h-7.3v4.3c0,0.6,0.5,1.1,1.2,1.1h0.2l0,0.2h-4l0-0.2h0.2
			c0.6,0,1.1-0.5,1.2-1.1v-9.3c0-0.6-0.5-1.1-1.2-1.1h-0.2l0-0.2h4l0,0.2h-0.2c-0.6,0-1.1,0.5-1.2,1V23h7.3v-4.4
			c0-0.6-0.5-1.1-1.2-1.1h-0.2l0-0.2h4l0,0.2h-0.2c-0.6,0-1.1,0.5-1.2,1v9.4c0,0.6,0.5,1.1,1.2,1.1h0.2l0,0.2H159.4z"/>
		<path d="M178.7,26.3l-1,2.8h-7.2l0-0.2h0.2c0.6,0,1.1-0.5,1.1-1.1v-9.6c0-0.6-0.5-1.1-1.1-1.1h-0.2l0-0.2h3.8l0,0.2H174
			c-0.6,0-1.1,0.5-1.1,1.1v10.3h2.5c1.8,0,2.5-0.9,3.1-2.3L178.7,26.3z"/>
		<path d="M188.1,26.3l-1,2.8H180l0-0.2h0.2c0.6,0,1.1-0.5,1.1-1.1v-9.6c0-0.6-0.5-1.1-1.1-1.1H180l0-0.2h3.8l0,0.2h-0.2
			c-0.6,0-1.1,0.5-1.1,1.1v10.3h2.5c1.8,0,2.5-0.9,3.1-2.3L188.1,26.3z"/>
		<path d="M193.9,17c2.2,0,3.6,1.3,3.6,3.3c0,2.6-2.9,4-5,2.9l0-0.2c0,0,2.8,0.6,3.6-1.9c0.1-0.2,0.1-0.7,0.1-1
			c0-1.6-0.9-2.6-2.3-2.6h-2v10.3c0,0.6,0.5,1.1,1.1,1.1h0.2l0,0.2h-3.8l0-0.2h0.2c0.6,0,1.1-0.5,1.1-1.1v-9.7c-0.1-0.6-0.5-1-1.1-1
			h-0.2l0-0.2L193.9,17z"/>
	</g>
	<g>
		<path d="M5.9,41.9c0.4,0.4,0.5,0.8,0.5,1.2c0,1.1-0.7,1.8-1.9,1.8c-0.5,0-1.3-0.1-1.7-0.5c-0.1-0.3,0-0.9,0.1-1.4H3
			c-0.1,1,0.5,1.7,1.4,1.6c0.7,0,1.3-0.5,1.3-1.3c0-0.4-0.1-0.7-0.4-0.9l-1.9-1.8C3.1,40.3,3,39.9,3,39.5c0-0.8,0.6-1.7,1.7-1.7
			c0.3,0,0.6,0,0.8,0.1h0.4V38v1.1H5.9c0-0.6-0.5-1-1.1-1c-0.7,0-1.2,0.5-1.2,1.1c0,0.3,0.1,0.6,0.4,0.9L5.9,41.9z"/>
		<path d="M14.5,44.9h-4l0-0.1h0.1c0.3,0,0.6-0.2,0.6-0.5v-4.7c0-0.3-0.3-0.5-0.6-0.5h-0.1l0-0.1h2.9c0.4,0,0.9-0.1,1.1-0.2v1.1
			l-0.1,0v-0.2c0-0.3-0.2-0.5-0.5-0.5h-2.1v2.5h1.7c0.3,0,0.4-0.2,0.4-0.4v-0.1l0.1,0v1.4l-0.1,0v-0.1c0-0.2-0.1-0.4-0.4-0.4h-1.7
			v2.5h1.5c1,0,1.3-0.5,1.6-1.1H15L14.5,44.9z"/>
		<path d="M24.8,42.4l-0.1,1.4C24.2,44.5,23.2,45,22,45c-2,0-3.3-1.2-3.3-3.1c0-1.9,1.3-3.1,3.3-3.1c0.8,0,1.7,0.2,2.3,0.6l0.2,1.4
			h-0.1c-0.3-1.2-1.2-1.7-2.5-1.7c-1.6,0-2.5,1.1-2.5,2.8c0,1.7,1,2.8,2.6,2.8C23.5,44.7,24.6,44,24.8,42.4L24.8,42.4z"/>
		<path d="M34.8,38.9L34.8,38.9L34.6,39c-0.3,0-0.5,0.2-0.5,0.4v3.3c0,1.4-0.9,2.2-2.5,2.2c-1.5,0-2.5-0.8-2.5-2.2v-3.3
			c0-0.2-0.2-0.4-0.5-0.4h-0.1v-0.1h1.9V39h-0.1c-0.3,0-0.5,0.2-0.5,0.4v3.2c0,1.3,0.7,2.1,1.8,2.1c1.2,0,2-0.7,2-2v-3.3
			c0-0.2-0.2-0.4-0.5-0.4h-0.1v-0.1L34.8,38.9z"/>
		<path d="M41.1,38.9c1.2,0,2,0.6,2,1.6c0,0.8-0.7,1.5-1.5,1.6c0.2,0.1,0.6,0.5,0.8,0.8c0,0,0.5,0.6,0.9,1.1
			c0.4,0.5,0.7,0.7,1.2,0.8v0.1h-0.3c-1.1,0-1.5-0.5-1.8-0.9c-0.1-0.1-0.9-1.3-1-1.4c-0.3-0.3-0.6-0.7-1-0.7v-0.1c0,0,0.2,0,0.6,0
			c0.5,0,1.2,0,1.5-0.9c0-0.1,0.1-0.3,0.1-0.6c0-0.7-0.5-1.2-1.3-1.2c-0.6,0-1,0-1.1,0v5c0,0.3,0.2,0.5,0.6,0.5h0.1l0,0.1h-2l0-0.1
			h0.1c0.3,0,0.5-0.2,0.6-0.5v-4.7c0-0.3-0.2-0.5-0.6-0.5h-0.1l0-0.1H41.1z"/>
		<path d="M47.8,44.9L47.8,44.9l0.1-0.1c0.4,0,0.7-0.2,0.7-0.5v-4.7c0-0.3-0.3-0.5-0.7-0.5h-0.1l0-0.1H50V39h-0.1
			c-0.4,0-0.7,0.2-0.7,0.5v4.7c0,0.3,0.3,0.5,0.7,0.5H50l0,0.1H47.8z"/>
		<path d="M58,38.9c0.4,0,0.9-0.1,1.1-0.2v1.1l-0.1,0v-0.2c0-0.3-0.2-0.5-0.5-0.5h-1.8v5c0,0.3,0.3,0.5,0.6,0.5h0.1l0,0.1h-2l0-0.1
			h0.1c0.3,0,0.6-0.2,0.6-0.5v-5h-1.8c-0.3,0-0.5,0.2-0.5,0.5v0.2l-0.1,0v-1.1c0.2,0.1,0.7,0.2,1.1,0.2H58z"/>
		<path d="M62.8,44.9L62.8,44.9l0.1-0.1c0.4,0,0.7-0.2,0.7-0.5v-4.7c0-0.3-0.3-0.5-0.7-0.5h-0.1l0-0.1H65V39h-0.1
			c-0.4,0-0.7,0.2-0.7,0.5v4.7c0,0.3,0.3,0.5,0.7,0.5H65l0,0.1H62.8z"/>
		<path d="M73.1,44.9h-4l0-0.1h0.1c0.3,0,0.6-0.2,0.6-0.5v-4.7c0-0.3-0.3-0.5-0.6-0.5h-0.1l0-0.1h2.9c0.4,0,0.9-0.1,1.1-0.2v1.1
			l-0.1,0v-0.2c0-0.3-0.2-0.5-0.5-0.5h-2.1v2.5h1.7c0.3,0,0.4-0.2,0.4-0.4v-0.1l0.1,0v1.4l-0.1,0v-0.1c0-0.2-0.1-0.4-0.4-0.4h-1.7
			v2.5h1.5c1,0,1.3-0.5,1.6-1.1h0.1L73.1,44.9z"/>
		<path d="M80.5,42.3c0.3,0.3,0.4,0.7,0.4,1.1c0,0.9-0.8,1.6-1.8,1.6c-0.6,0-1.3-0.1-1.7-0.5c-0.1-0.3,0-0.8,0.1-1.2h0.1
			c-0.1,0.9,0.5,1.4,1.4,1.4c0.8,0,1.3-0.4,1.3-1.1c0-0.3-0.1-0.6-0.4-0.8l-2-1.5c-0.4-0.3-0.5-0.7-0.5-1.1c0-0.8,0.7-1.4,1.6-1.4
			c0.5,0,0.8,0,1,0.1h0.3l0,1.1h-0.1c0-0.5-0.4-0.9-1.1-0.9c-0.7,0-1.2,0.4-1.2,0.9c0,0.3,0.1,0.5,0.4,0.8L80.5,42.3z"/>
		<path d="M96.1,41.2c-0.3,0-0.4,0.2-0.4,0.4c0.2,0.8,0,1.6-0.3,2.2c0.5,0.5,1.1,1,1.7,1v0.1c-0.4,0-1.3,0.1-2.1-0.6
			c-0.4,0.4-1.1,0.7-1.8,0.7c-1.9,0-3-0.8-3-2.3c0-0.9,0.5-1.5,1.2-1.8C91.1,40.4,91,40,91,39.5c0-1,0.8-1.7,2-1.7
			c0.7,0,1.3,0.3,1.7,0.7l-0.2,1.1h-0.1c0-0.9-0.6-1.5-1.4-1.5c-0.8,0-1.3,0.6-1.3,1.4c0,0.8,0.6,1.5,1.6,2.4c0.4,0.4,1,0.9,1.8,1.6
			c0.3-0.6,0.3-1.3,0-1.8c-0.1-0.3-0.3-0.5-0.6-0.5h-0.2v-0.1h2v0.1H96.1z M94.7,44c-0.8-0.7-1.4-1.2-1.9-1.6
			c-0.5-0.5-1-0.9-1.3-1.3c-0.5,0.4-0.6,1-0.6,1.6c0,1.2,0.8,2,2.3,2C93.8,44.7,94.3,44.4,94.7,44z"/>
		<path d="M109.3,44.9h-4.1l0-0.1h0.1c0.3,0,0.6-0.3,0.6-0.6v-5.5c0-0.3-0.3-0.6-0.6-0.6h-0.1l0-0.1h2.9c0.4,0,1-0.1,1.2-0.2V38v0.2
			V39l-0.1,0v-0.2c0-0.3-0.2-0.6-0.6-0.6h-2v3.1h1.7c0.3,0,0.5-0.2,0.5-0.5v-0.1l0.1,0v1.6l-0.1,0v-0.1c0-0.3-0.2-0.5-0.5-0.5h-1.7
			v3h1.4c1,0,1.5-0.5,1.8-1.3h0.1L109.3,44.9z"/>
		<path d="M121.1,44.2c0.1,0.3,0.3,0.5,0.7,0.5h0.1v0.1h-2.1v-0.1h0.1c0.2,0,0.4-0.2,0.4-0.4l-0.5-4.1L118,44c0,0-0.3,0.6-0.4,1
			h-0.1l-2.4-4.6l-0.4,4c0,0.2,0.2,0.4,0.4,0.4h0.1v0.1h-1.8v-0.1h0.1c0.3,0,0.6-0.2,0.7-0.6l0.8-5.4h0.1l2.6,5l2.5-5h0.1
			L121.1,44.2z"/>
		<path d="M127.8,38.9c1.4,0,2.3,0.6,2.3,1.7c0,1.5-1.5,2.2-2.8,1.5v-0.1c0,0,1.6,0.4,2.1-1c0-0.1,0.1-0.4,0.1-0.5
			c0-0.8-0.6-1.3-1.6-1.3h-1v5c0,0.3,0.3,0.5,0.6,0.5h0.1l0,0.1h-2.1l0-0.1h0.1c0.3,0,0.6-0.2,0.6-0.5v-4.7c0-0.3-0.2-0.5-0.6-0.5
			h-0.1l0-0.1H127.8z"/>
		<path d="M138.5,43.4l-0.5,1.4h-4l0-0.1h0.1c0.3,0,0.6-0.2,0.6-0.5v-4.7c0-0.3-0.3-0.5-0.6-0.5h-0.1l0-0.1h2l0,0.1h-0.1
			c-0.3,0-0.6,0.2-0.6,0.5v5h1.5c0.9,0,1.3-0.5,1.6-1.1H138.5z"/>
		<path d="M148.8,41.9c0,1.8-1.5,3.1-3.3,3.1c-1.8,0-3.3-1.3-3.3-3.1s1.5-3.1,3.3-3.1C147.3,38.8,148.8,40.1,148.8,41.9z
			 M148.1,41.9c0-1.7-1.2-2.8-2.6-2.8c-1.5,0-2.6,1.1-2.6,2.8c0,1.7,1.1,2.8,2.6,2.8C146.9,44.7,148.1,43.6,148.1,41.9z"/>
		<path d="M158.3,38.9L158.3,38.9l-0.1,0.1c-0.4,0-0.7,0.2-0.9,0.5l-1.9,2.9v1.8c0,0.3,0.3,0.5,0.6,0.5h0.1l0,0.1h-2l0-0.1h0.1
			c0.3,0,0.6-0.2,0.6-0.5v-1.8l-1.8-2.9c-0.2-0.3-0.5-0.5-0.9-0.5h-0.1v-0.1h2.3V39H154c-0.3,0-0.4,0.2-0.3,0.5l1.4,2.6l1.5-2.6
			c0.1-0.2-0.1-0.5-0.3-0.5h-0.1v-0.1L158.3,38.9z"/>
		<path d="M168.7,44.2c0.1,0.3,0.3,0.5,0.7,0.5h0.1v0.1h-2.1v-0.1h0.1c0.2,0,0.4-0.2,0.4-0.4l-0.5-4.1l-1.9,3.7c0,0-0.3,0.6-0.4,1
			h-0.1l-2.4-4.6l-0.4,4c0,0.2,0.2,0.4,0.4,0.4h0.1v0.1H161v-0.1h0.1c0.3,0,0.6-0.2,0.7-0.6l0.8-5.4h0.1l2.6,5l2.5-5h0.1L168.7,44.2
			z"/>
		<path d="M177.2,44.9h-4l0-0.1h0.1c0.3,0,0.6-0.2,0.6-0.5v-4.7c0-0.3-0.3-0.5-0.6-0.5h-0.1l0-0.1h2.9c0.4,0,0.9-0.1,1.1-0.2v1.1
			l-0.1,0v-0.2c0-0.3-0.2-0.5-0.5-0.5h-2.1v2.5h1.7c0.3,0,0.4-0.2,0.4-0.4v-0.1l0.1,0v1.4l-0.1,0v-0.1c0-0.2-0.1-0.4-0.4-0.4h-1.7
			v2.5h1.5c1,0,1.3-0.5,1.6-1.1h0.1L177.2,44.9z"/>
		<path d="M188.3,38.9L188.3,38.9l-0.2,0.1c-0.3,0-0.5,0.2-0.5,0.5v4.2c0,0.6,0.1,1.3,0.1,1.3h-0.1l-5.1-4.9v4.1
			c0,0.3,0.2,0.5,0.6,0.5h0.2l0,0.1h-1.9l0-0.1h0.2c0.3,0,0.5-0.2,0.6-0.5V40c0-0.7-0.1-1.2-0.1-1.2l0.1,0l5.1,4.8v-4.1
			c0-0.3-0.3-0.5-0.5-0.5h-0.2l0-0.1H188.3z"/>
		<path d="M196.1,38.9c0.4,0,0.9-0.1,1.1-0.2v1.1l-0.1,0v-0.2c0-0.3-0.2-0.5-0.5-0.5h-1.8v5c0,0.3,0.3,0.5,0.6,0.5h0.1l0,0.1h-2
			l0-0.1h0.1c0.3,0,0.6-0.2,0.6-0.5v-5h-1.8c-0.3,0-0.5,0.2-0.5,0.5v0.2l-0.1,0v-1.1c0.2,0.1,0.7,0.2,1.1,0.2H196.1z"/>
	</g>
</g>
</svg>
