<?xml version="1.0" encoding="utf-8"?>
<!-- Generator: Adobe Illustrator 19.2.0, SVG Export Plug-In . SVG Version: 6.00 Build 0)  -->
<!DOCTYPE svg PUBLIC "-//W3C//DTD SVG 1.1//EN" "http://www.w3.org/Graphics/SVG/1.1/DTD/svg11.dtd">
<svg version="1.1" id="Refs" xmlns="http://www.w3.org/2000/svg" xmlns:xlink="http://www.w3.org/1999/xlink" x="0px" y="0px"
	 viewBox="0 0 200 60" style="enable-background:new 0 0 200 60;" xml:space="preserve">
<g id="Timetalent">
	<path id="XMLID_90_" d="M17.9,47.9c0,0,5.9,2.8,7.6-4.8l-12.3-8.8C13.1,40.8,17.9,47.9,17.9,47.9z"/>
	<path id="XMLID_89_" d="M36.9,32.9c8.7,5.6,8.9,12.6,8.9,12.6s-6.9,3.5-16.4-1.8L36.9,32.9z"/>
	<g id="XMLID_67_">
		<path id="XMLID_87_" d="M50.2,36.3V19.8h-1.3c-0.7,0-1.2,0.1-1.6,0.2c-0.4,0.1-0.7,0.3-1,0.5c-0.2,0.2-0.4,0.5-0.5,0.8
			c-0.1,0.3-0.2,0.7-0.3,1l-0.2,1.4h-0.4l0.1-4.9h12.6l0.1,4.9h-0.4l-0.2-1.4c0-0.4-0.1-0.8-0.2-1.1c-0.1-0.3-0.3-0.6-0.6-0.8
			c-0.3-0.2-0.6-0.4-1.1-0.5c-0.4-0.1-1-0.2-1.6-0.2h-1.2v16.5H50.2z"/>
		<path id="XMLID_85_" d="M60.9,21.5c0-0.5-0.1-0.9-0.2-1.2c-0.1-0.3-0.3-0.5-0.4-0.6c-0.2-0.1-0.4-0.2-0.7-0.3
			c-0.3,0-0.6-0.1-1-0.1v-0.5h4.6v2.7v14.8h-2.3V21.5z"/>
		<path id="XMLID_83_" d="M68.7,21.5c0-0.5-0.1-0.9-0.2-1.2c-0.1-0.3-0.3-0.5-0.4-0.6c-0.2-0.1-0.4-0.2-0.7-0.3
			c-0.3,0-0.6-0.1-1-0.1v-0.5h5.5L77,33.7H77l5.1-14.9h3.1v17.5h-2.2v-16h-0.1l-5.5,16h-1.9l-5.5-16h-0.1v16h-1.5V21.5z"/>
		<path id="XMLID_81_" d="M90.6,21.5c0-0.5-0.1-0.9-0.2-1.2c-0.1-0.3-0.3-0.5-0.4-0.6c-0.2-0.1-0.4-0.2-0.7-0.3
			c-0.3,0-0.6-0.1-1-0.1v-0.5h11.9l0.3,4.9H100L99.7,22c-0.2-0.8-0.5-1.4-0.9-1.7c-0.5-0.3-1.2-0.5-2.1-0.5h-2.3
			c-0.3,0-0.6,0-0.8,0.1c-0.2,0.1-0.3,0.2-0.4,0.3c-0.1,0.2-0.1,0.4-0.2,0.7c0,0.3,0,0.7,0,1.1v4.6h2.7c0.4,0,0.8,0,1.1-0.1
			c0.3-0.1,0.6-0.2,0.7-0.3c0.2-0.2,0.3-0.4,0.4-0.7c0.1-0.3,0.1-0.7,0.1-1.1h0.6v5.4H98c0-0.7-0.2-1.3-0.5-1.7
			c-0.4-0.4-1-0.6-1.9-0.6h-2.7V33c0,0.5,0,0.9,0,1.2c0,0.3,0.1,0.5,0.2,0.7c0.1,0.1,0.2,0.2,0.4,0.3c0.2,0,0.5,0.1,0.8,0.1h2.5
			c1,0,1.8-0.2,2.2-0.5c0.5-0.4,0.8-1,1-1.9h0.7l-0.2,3.5h-10V21.5z"/>
		<path id="XMLID_79_" d="M107.7,36.3V19.8h-1.3c-0.7,0-1.2,0.1-1.6,0.2c-0.4,0.1-0.7,0.3-1,0.5c-0.2,0.2-0.4,0.5-0.5,0.8
			c-0.1,0.3-0.2,0.7-0.3,1l-0.2,1.4h-0.4l0.1-4.9h12.6l0.1,4.9h-0.4l-0.2-1.4c0-0.4-0.1-0.8-0.2-1.1c-0.1-0.3-0.3-0.6-0.6-0.8
			c-0.3-0.2-0.6-0.4-1.1-0.5c-0.4-0.1-1-0.2-1.6-0.2H110v16.5H107.7z"/>
		<path id="XMLID_76_" d="M125.4,18.5c0.8,2,1.4,3.8,2,5.4c0.6,1.6,1.1,3,1.6,4.2c0.5,1.2,0.8,2.2,1.2,3.1s0.6,1.6,0.8,2.2
			c0.5,1.4,0.9,2.4,1.1,2.8h-2.5c-0.2-0.6-0.4-1.1-0.6-1.5c-0.2-0.4-0.3-0.9-0.5-1.4c-0.2-0.5-0.4-1-0.5-1.4
			c-0.2-0.4-0.3-0.9-0.6-1.5h-6.6c-1.4,3.8-2.1,5.8-2.1,5.8h-1.6c0.1-0.2,0.2-0.6,0.4-0.9c0.1-0.4,0.3-0.9,0.6-1.6
			c0.3-0.7,0.6-1.7,1.1-2.9c0.5-1.2,1-2.7,1.7-4.5c0.7-1.8,1.5-3.9,2.4-6.4c0,0,0-0.1,0-0.1c0.1-0.3,0-0.5-0.3-0.7
			c-0.3-0.1-0.7-0.2-1.4-0.2v-0.5H125.4z M121.3,29.5h5.9l-2.9-8L121.3,29.5z"/>
		<path id="XMLID_74_" d="M136.4,21.5c0-0.5-0.1-0.9-0.2-1.2c-0.1-0.3-0.3-0.5-0.4-0.6c-0.2-0.1-0.4-0.2-0.7-0.3
			c-0.3,0-0.6-0.1-1-0.1v-0.5h4.6v2.7v12.1c0,0.4,0,0.7,0.1,0.9c0,0.2,0.1,0.4,0.2,0.5c0.1,0.1,0.3,0.2,0.5,0.2c0.2,0,0.6,0.1,1,0.1
			h1.8c0.6,0,1-0.1,1.4-0.2c0.4-0.1,0.7-0.3,0.9-0.5c0.2-0.2,0.4-0.5,0.5-0.9c0.1-0.3,0.2-0.8,0.4-1.3l0.2-1.1h0.3l-0.2,4.9h-9.4
			V21.5z"/>
		<path id="XMLID_72_" d="M149.5,21.5c0-0.5-0.1-0.9-0.2-1.2c-0.1-0.3-0.3-0.5-0.4-0.6c-0.2-0.1-0.4-0.2-0.7-0.3
			c-0.3,0-0.6-0.1-1-0.1v-0.5h11.9l0.3,4.9H159l-0.3-1.7c-0.2-0.8-0.5-1.4-0.9-1.7c-0.5-0.3-1.2-0.5-2.1-0.5h-2.3
			c-0.3,0-0.6,0-0.8,0.1c-0.2,0.1-0.3,0.2-0.4,0.3c-0.1,0.2-0.1,0.4-0.2,0.7c0,0.3,0,0.7,0,1.1v4.6h2.7c0.4,0,0.8,0,1.1-0.1
			c0.3-0.1,0.6-0.2,0.7-0.3c0.2-0.2,0.3-0.4,0.4-0.7c0.1-0.3,0.1-0.7,0.1-1.1h0.6v5.4h-0.6c0-0.7-0.2-1.3-0.5-1.7
			c-0.4-0.4-1-0.6-1.9-0.6h-2.7V33c0,0.5,0,0.9,0,1.2c0,0.3,0.1,0.5,0.2,0.7c0.1,0.1,0.2,0.2,0.4,0.3c0.2,0,0.5,0.1,0.8,0.1h2.5
			c1,0,1.8-0.2,2.2-0.5c0.5-0.4,0.8-1,1-1.9h0.7l-0.2,3.5h-10V21.5z"/>
		<path id="XMLID_70_" d="M163.8,21.5c0-0.5-0.1-0.9-0.2-1.2c-0.1-0.3-0.3-0.5-0.4-0.6c-0.2-0.1-0.4-0.2-0.7-0.3
			c-0.3,0-0.6-0.1-1-0.1v-0.5h4.8l8.1,14.1h0.1V18.8h1.5v17.5H174l-8.6-15.1h-0.1v15.1h-1.5V21.5z"/>
		<path id="XMLID_68_" d="M183.1,36.3V19.8h-1.3c-0.7,0-1.2,0.1-1.6,0.2c-0.4,0.1-0.7,0.3-1,0.5c-0.2,0.2-0.4,0.5-0.5,0.8
			c-0.1,0.3-0.2,0.7-0.3,1l-0.2,1.4h-0.4l0.1-4.9h12.6l0.1,4.9h-0.4l-0.2-1.4c0-0.4-0.1-0.8-0.2-1.1c-0.1-0.3-0.3-0.6-0.6-0.8
			c-0.3-0.2-0.6-0.4-1.1-0.5c-0.4-0.1-1-0.2-1.6-0.2h-1.2v16.5H183.1z"/>
	</g>
	<g id="XMLID_20_">
		<path id="XMLID_65_" d="M102.3,42.2h0.6v2.3l2.5-2.3h0.8l-3,2.8l3.2,3.5h-0.8l-2.7-2.9v2.9h-0.6V42.2z"/>
		<path id="XMLID_62_" d="M112.9,43.8v4.6h-0.6v-0.8c-0.2,0.3-0.5,0.5-0.8,0.7c-0.3,0.2-0.7,0.2-1,0.2c-0.7,0-1.2-0.2-1.7-0.7
			c-0.5-0.5-0.7-1.1-0.7-1.7c0-0.7,0.2-1.2,0.7-1.7c0.5-0.5,1-0.7,1.7-0.7c0.4,0,0.7,0.1,1,0.2c0.3,0.2,0.6,0.4,0.8,0.7v-0.9H112.9z
			 M110.5,44.3c-0.3,0-0.6,0.1-0.9,0.2c-0.3,0.2-0.5,0.4-0.7,0.7c-0.2,0.3-0.2,0.6-0.2,0.9c0,0.3,0.1,0.6,0.3,0.9
			c0.2,0.3,0.4,0.5,0.7,0.7c0.3,0.2,0.6,0.2,0.9,0.2c0.3,0,0.6-0.1,0.9-0.2c0.3-0.2,0.5-0.4,0.7-0.7c0.2-0.3,0.2-0.6,0.2-0.9
			c0-0.5-0.2-1-0.5-1.3C111.4,44.5,111,44.3,110.5,44.3z"/>
		<path id="XMLID_60_" d="M114.9,43.8h0.6v0.7c0.2-0.3,0.4-0.5,0.6-0.6c0.2-0.1,0.4-0.2,0.6-0.2c0.2,0,0.3,0.1,0.5,0.2l-0.3,0.5
			c-0.1-0.1-0.2-0.1-0.3-0.1c-0.2,0-0.4,0.1-0.6,0.2c-0.2,0.2-0.3,0.4-0.4,0.8c-0.1,0.3-0.1,0.8-0.1,1.6v1.6h-0.6V43.8z"/>
		<path id="XMLID_58_" d="M118.4,43.8h0.6v0.7c0.2-0.3,0.4-0.5,0.6-0.6c0.2-0.1,0.4-0.2,0.6-0.2c0.2,0,0.3,0.1,0.5,0.2l-0.3,0.5
			c-0.1-0.1-0.2-0.1-0.3-0.1c-0.2,0-0.4,0.1-0.6,0.2c-0.2,0.2-0.3,0.4-0.4,0.8c-0.1,0.3-0.1,0.8-0.1,1.6v1.6h-0.6V43.8z"/>
		<path id="XMLID_55_" d="M122.3,41.9c0.1,0,0.3,0,0.3,0.1c0.1,0.1,0.1,0.2,0.1,0.3c0,0.1,0,0.2-0.1,0.3c-0.1,0.1-0.2,0.1-0.3,0.1
			c-0.1,0-0.2,0-0.3-0.1c-0.1-0.1-0.1-0.2-0.1-0.3c0-0.1,0-0.3,0.1-0.3C122,42,122.1,41.9,122.3,41.9z M122,43.8h0.6v4.6H122V43.8z"
			/>
		<path id="XMLID_52_" d="M128.6,46.9l0.5,0.3c-0.2,0.3-0.4,0.6-0.6,0.8c-0.2,0.2-0.5,0.3-0.7,0.5c-0.3,0.1-0.6,0.2-0.9,0.2
			c-0.8,0-1.3-0.2-1.8-0.7c-0.4-0.5-0.6-1.1-0.6-1.7c0-0.6,0.2-1.1,0.5-1.6c0.5-0.6,1.1-0.9,1.8-0.9c0.8,0,1.4,0.3,1.9,0.9
			c0.3,0.4,0.5,1,0.5,1.6h-4.2c0,0.5,0.2,1,0.5,1.3s0.7,0.5,1.2,0.5c0.2,0,0.5,0,0.7-0.1c0.2-0.1,0.4-0.2,0.6-0.3
			C128.2,47.5,128.4,47.2,128.6,46.9z M128.6,45.7c-0.1-0.3-0.2-0.6-0.3-0.8c-0.2-0.2-0.4-0.3-0.6-0.5c-0.2-0.1-0.5-0.2-0.8-0.2
			c-0.5,0-0.8,0.1-1.2,0.4c-0.2,0.2-0.4,0.5-0.5,1H128.6z"/>
		<path id="XMLID_50_" d="M131,43.8h0.6v0.7c0.2-0.3,0.4-0.5,0.6-0.6c0.2-0.1,0.4-0.2,0.6-0.2c0.2,0,0.3,0.1,0.5,0.2l-0.3,0.5
			c-0.1-0.1-0.2-0.1-0.3-0.1c-0.2,0-0.4,0.1-0.6,0.2c-0.2,0.2-0.3,0.4-0.4,0.8c-0.1,0.3-0.1,0.8-0.1,1.6v1.6H131V43.8z"/>
		<path id="XMLID_47_" d="M138.6,46.9l0.5,0.3c-0.2,0.3-0.4,0.6-0.6,0.8c-0.2,0.2-0.5,0.3-0.7,0.5c-0.3,0.1-0.6,0.2-0.9,0.2
			c-0.8,0-1.3-0.2-1.8-0.7c-0.4-0.5-0.6-1.1-0.6-1.7c0-0.6,0.2-1.1,0.5-1.6c0.5-0.6,1.1-0.9,1.8-0.9c0.8,0,1.4,0.3,1.9,0.9
			c0.3,0.4,0.5,1,0.5,1.6h-4.2c0,0.5,0.2,1,0.5,1.3s0.7,0.5,1.2,0.5c0.2,0,0.5,0,0.7-0.1c0.2-0.1,0.4-0.2,0.6-0.3
			C138.2,47.5,138.4,47.2,138.6,46.9z M138.6,45.7c-0.1-0.3-0.2-0.6-0.3-0.8c-0.2-0.2-0.4-0.3-0.6-0.5c-0.2-0.1-0.5-0.2-0.8-0.2
			c-0.5,0-0.8,0.1-1.2,0.4c-0.2,0.2-0.4,0.5-0.5,1H138.6z"/>
		<path id="XMLID_44_" d="M145,48.5V42h0.6v2.6c0.2-0.3,0.5-0.5,0.8-0.7c0.3-0.2,0.6-0.2,1-0.2c0.7,0,1.2,0.2,1.7,0.7
			c0.5,0.5,0.7,1.1,0.7,1.7c0,0.7-0.2,1.2-0.7,1.7c-0.5,0.5-1,0.7-1.7,0.7c-0.4,0-0.7-0.1-1-0.2s-0.6-0.4-0.8-0.7v0.9H145z
			 M147.4,48c0.3,0,0.6-0.1,0.9-0.2c0.3-0.2,0.5-0.4,0.7-0.7c0.2-0.3,0.2-0.6,0.2-0.9c0-0.3-0.1-0.6-0.3-0.9
			c-0.2-0.3-0.4-0.5-0.7-0.7c-0.3-0.2-0.6-0.2-0.9-0.2c-0.3,0-0.6,0.1-0.9,0.2c-0.3,0.2-0.5,0.4-0.7,0.7c-0.2,0.3-0.2,0.6-0.2,0.9
			c0,0.5,0.2,1,0.5,1.3C146.4,47.8,146.8,48,147.4,48z"/>
		<path id="XMLID_41_" d="M155.7,46.9l0.5,0.3c-0.2,0.3-0.4,0.6-0.6,0.8c-0.2,0.2-0.5,0.3-0.7,0.5c-0.3,0.1-0.6,0.2-0.9,0.2
			c-0.8,0-1.3-0.2-1.8-0.7c-0.4-0.5-0.6-1.1-0.6-1.7c0-0.6,0.2-1.1,0.5-1.6c0.5-0.6,1.1-0.9,1.8-0.9c0.8,0,1.4,0.3,1.9,0.9
			c0.3,0.4,0.5,1,0.5,1.6h-4.2c0,0.5,0.2,1,0.5,1.3c0.3,0.3,0.7,0.5,1.2,0.5c0.2,0,0.5,0,0.7-0.1c0.2-0.1,0.4-0.2,0.6-0.3
			C155.3,47.5,155.5,47.2,155.7,46.9z M155.7,45.7c-0.1-0.3-0.2-0.6-0.3-0.8c-0.2-0.2-0.4-0.3-0.6-0.5c-0.2-0.1-0.5-0.2-0.8-0.2
			c-0.5,0-0.8,0.1-1.2,0.4c-0.2,0.2-0.4,0.5-0.5,1H155.7z"/>
		<path id="XMLID_37_" d="M160.2,42v0.6c-0.2-0.1-0.4-0.1-0.6-0.1c-0.1,0-0.2,0-0.3,0.1c-0.1,0-0.1,0.1-0.1,0.2c0,0.1,0,0.2,0,0.5
			l0,0.6h1v0.5h-1l0,4.1h-0.6v-4.1H158v-0.5h0.6v-0.7c0-0.3,0-0.6,0.1-0.7c0.1-0.1,0.2-0.3,0.3-0.3c0.1-0.1,0.3-0.1,0.5-0.1
			C159.7,41.9,159.9,42,160.2,42z"/>
		<path id="XMLID_35_" d="M161.8,42h0.6v6.4h-0.6V42z"/>
		<path id="XMLID_31_" d="M164.4,43.8h0.6V46c0,0.5,0,0.9,0.1,1.1c0.1,0.3,0.2,0.5,0.5,0.7s0.5,0.2,0.9,0.2c0.3,0,0.6-0.1,0.8-0.2
			c0.2-0.2,0.4-0.4,0.5-0.6c0.1-0.2,0.1-0.6,0.1-1.1v-2.2h0.6v2.3c0,0.6-0.1,1.1-0.2,1.4c-0.1,0.3-0.4,0.6-0.7,0.8
			c-0.3,0.2-0.7,0.3-1.1,0.3c-0.5,0-0.8-0.1-1.1-0.3c-0.3-0.2-0.5-0.4-0.7-0.8c-0.1-0.3-0.2-0.8-0.2-1.5V43.8z M165.6,42
			c0.1,0,0.3,0,0.3,0.1c0.1,0.1,0.1,0.2,0.1,0.3s0,0.3-0.1,0.3c-0.1,0.1-0.2,0.1-0.3,0.1s-0.3,0-0.3-0.1c-0.1-0.1-0.1-0.2-0.1-0.3
			s0-0.3,0.1-0.3C165.4,42.1,165.5,42,165.6,42z M167.4,42c0.1,0,0.3,0,0.3,0.1c0.1,0.1,0.1,0.2,0.1,0.3s0,0.3-0.1,0.3
			c-0.1,0.1-0.2,0.1-0.3,0.1s-0.3,0-0.3-0.1c-0.1-0.1-0.1-0.2-0.1-0.3s0-0.3,0.1-0.3C167.1,42.1,167.2,42,167.4,42z"/>
		<path id="XMLID_28_" d="M174.7,43.8h0.6v3.7c0,0.6-0.1,1.1-0.2,1.4c-0.2,0.4-0.4,0.8-0.8,1c-0.4,0.2-0.8,0.3-1.4,0.3
			c-0.4,0-0.8-0.1-1.1-0.2c-0.3-0.1-0.6-0.3-0.8-0.5c-0.2-0.2-0.4-0.5-0.5-0.8h0.6c0.2,0.3,0.4,0.5,0.7,0.7s0.6,0.2,1,0.2
			c0.4,0,0.7-0.1,1-0.2c0.3-0.2,0.5-0.3,0.6-0.6c0.1-0.2,0.2-0.6,0.2-1.1v-0.2c-0.2,0.3-0.5,0.5-0.8,0.7c-0.3,0.2-0.7,0.2-1,0.2
			c-0.4,0-0.8-0.1-1.2-0.3c-0.4-0.2-0.7-0.5-0.9-0.9c-0.2-0.4-0.3-0.8-0.3-1.2c0-0.4,0.1-0.8,0.3-1.2c0.2-0.4,0.5-0.7,0.9-0.9
			c0.4-0.2,0.8-0.3,1.2-0.3c0.3,0,0.7,0.1,1,0.2c0.3,0.1,0.6,0.4,0.9,0.7V43.8z M172.9,44.3c-0.3,0-0.7,0.1-0.9,0.2
			c-0.3,0.2-0.5,0.4-0.7,0.7c-0.2,0.3-0.2,0.6-0.2,0.9c0,0.5,0.2,0.9,0.5,1.3c0.3,0.3,0.8,0.5,1.3,0.5c0.5,0,1-0.2,1.3-0.5
			c0.3-0.3,0.5-0.8,0.5-1.3c0-0.3-0.1-0.7-0.2-0.9c-0.2-0.3-0.4-0.5-0.7-0.6C173.5,44.4,173.2,44.3,172.9,44.3z"/>
		<path id="XMLID_25_" d="M181.3,46.9l0.5,0.3c-0.2,0.3-0.4,0.6-0.6,0.8c-0.2,0.2-0.5,0.3-0.7,0.5c-0.3,0.1-0.6,0.2-0.9,0.2
			c-0.8,0-1.3-0.2-1.8-0.7c-0.4-0.5-0.6-1.1-0.6-1.7c0-0.6,0.2-1.1,0.5-1.6c0.5-0.6,1.1-0.9,1.8-0.9c0.8,0,1.4,0.3,1.9,0.9
			c0.3,0.4,0.5,1,0.5,1.6h-4.2c0,0.5,0.2,1,0.5,1.3c0.3,0.3,0.7,0.5,1.2,0.5c0.2,0,0.5,0,0.7-0.1c0.2-0.1,0.4-0.2,0.6-0.3
			C181,47.5,181.1,47.2,181.3,46.9z M181.3,45.7c-0.1-0.3-0.2-0.6-0.3-0.8c-0.2-0.2-0.4-0.3-0.6-0.5c-0.2-0.1-0.5-0.2-0.8-0.2
			c-0.5,0-0.8,0.1-1.2,0.4c-0.2,0.2-0.4,0.5-0.5,1H181.3z"/>
		<path id="XMLID_23_" d="M183.9,42h0.6v6.4h-0.6V42z"/>
		<path id="XMLID_21_" d="M186.6,43.8h0.6v0.8c0.2-0.3,0.5-0.6,0.8-0.7c0.3-0.2,0.6-0.2,0.9-0.2c0.3,0,0.7,0.1,0.9,0.3
			c0.3,0.2,0.5,0.4,0.6,0.7c0.1,0.3,0.2,0.8,0.2,1.4v2.4H190v-2.2c0-0.5,0-0.9-0.1-1.1c-0.1-0.3-0.2-0.5-0.4-0.7
			c-0.2-0.2-0.5-0.2-0.8-0.2c-0.4,0-0.7,0.1-1,0.4c-0.3,0.2-0.5,0.5-0.6,0.9c-0.1,0.2-0.1,0.6-0.1,1.3v1.7h-0.6V43.8z"/>
	</g>
	<g id="XMLID_14_">
		<path id="XMLID_15_" d="M197.5,20.3c0,0.5-0.1,0.9-0.4,1.3c-0.2,0.4-0.6,0.7-1,1c-0.4,0.2-0.9,0.4-1.3,0.4s-0.9-0.1-1.3-0.4
			c-0.4-0.2-0.7-0.6-1-1c-0.2-0.4-0.4-0.9-0.4-1.3c0-0.5,0.1-0.9,0.4-1.3c0.2-0.4,0.6-0.7,1-1s0.9-0.4,1.3-0.4s0.9,0.1,1.3,0.4
			c0.4,0.2,0.7,0.6,1,1C197.4,19.4,197.5,19.9,197.5,20.3z M197.1,20.3c0-0.4-0.1-0.8-0.3-1.1c-0.2-0.4-0.5-0.6-0.8-0.8
			c-0.4-0.2-0.7-0.3-1.1-0.3c-0.4,0-0.8,0.1-1.1,0.3c-0.4,0.2-0.6,0.5-0.8,0.8c-0.2,0.4-0.3,0.7-0.3,1.2c0,0.4,0.1,0.8,0.3,1.1
			c0.2,0.4,0.5,0.6,0.8,0.8c0.4,0.2,0.7,0.3,1.1,0.3c0.4,0,0.8-0.1,1.1-0.3c0.4-0.2,0.6-0.5,0.8-0.8C197,21.1,197.1,20.8,197.1,20.3
			z M193.7,18.8h1.3c0.3,0,0.5,0,0.6,0.1c0.1,0.1,0.2,0.2,0.3,0.3c0.1,0.1,0.1,0.3,0.1,0.5c0,0.2,0,0.3-0.1,0.4
			c0,0.1-0.1,0.2-0.3,0.3c0.1,0.1,0.2,0.1,0.3,0.2c0,0.1,0.1,0.2,0.1,0.5v0.3c0,0.2,0,0.3,0.1,0.4l0.1,0.1h-0.5
			c0-0.1-0.1-0.3-0.1-0.5l0-0.4c0-0.1,0-0.2-0.1-0.3c0-0.1-0.1-0.1-0.1-0.1c-0.1,0-0.2,0-0.4,0h-0.8v1.3h-0.5V18.8z M194.2,19.2v0.9
			h0.8c0.2,0,0.4,0,0.5-0.1c0.1-0.1,0.2-0.2,0.2-0.4c0-0.2,0-0.3-0.1-0.3s-0.2-0.1-0.5-0.1H194.2z"/>
	</g>
	<path id="XMLID_13_" d="M2.5,15.8c0.4-2.6,3.3-1.7,4.8-1.3c3.5,1,8.8,6.8,9.7,8.2c1.1,1.7,1,2.6,1.3,4.4c0.3,1.9,0.2,6.8,7.3,15.9
		c0,0-12.4-5.8-20.1-18C4.1,23,2.2,18.2,2.5,15.8z"/>
	<path id="XMLID_12_" d="M26.4,10.7c2.1-1.2,3.8-1.2,5.4-0.5c2,1,7,5.3,6.7,15.7c-0.4,11.2-9,17.7-9,17.7s-9.9-7.3-9.1-19.8
		C20.9,14.4,24.1,11.9,26.4,10.7z"/>
</g>
</svg>
