<?xml version="1.0" standalone="no"?><!DOCTYPE svg PUBLIC "-//W3C//DTD SVG 1.1//EN" "http://www.w3.org/Graphics/SVG/1.1/DTD/svg11.dtd"><svg t="1607407315769" class="icon" viewBox="0 0 1088 1024" version="1.1" xmlns="http://www.w3.org/2000/svg" p-id="3922" xmlns:xlink="http://www.w3.org/1999/xlink" width="212.5" height="200"><defs><style type="text/css"></style></defs><path d="M1025.728 36.352V36.224c0-0.96 0-1.92-0.128-2.944l-0.064-0.832a34.368 34.368 0 0 0-0.32-2.432l-0.128-0.64a35.648 35.648 0 0 0-0.64-2.88L1024.064 25.6a35.584 35.584 0 0 0-0.64-1.984l-0.448-1.024a35.968 35.968 0 0 0-1.088-2.496L1021.44 19.2a35.712 35.712 0 0 0-3.136-4.8l-0.448-0.576a35.2 35.2 0 0 0-4.672-4.8l-0.256-0.192V8.768a35.776 35.776 0 0 0-2.112-1.6l-0.448-0.32L1009.536 6.4a35.456 35.456 0 0 0-1.92-1.216L1006.72 4.672a36.608 36.608 0 0 0-2.56-1.28l-1.088-0.384a35.2 35.2 0 0 0-1.856-0.64L1000.128 1.92a35.072 35.072 0 0 0-2.752-0.64l-0.768-0.192A35.328 35.328 0 0 0 990.72 0.64h-0.448c-0.96 0-1.984 0-3.008 0.128l-0.768 0.064a35.2 35.2 0 0 0-2.432 0.32l-0.704 0.128a35.264 35.264 0 0 0-2.944 0.704l-0.64 0.256a35.392 35.392 0 0 0-3.2 1.152c-0.704 0.256-1.344 0.128-1.984 0.448-0.32 0.128-0.64 0-0.896 0L19.2 502.912a35.84 35.84 0 0 0 0.448 63.552l256.32 129.472a35.584 35.584 0 1 0 32.064-63.488L113.536 534.272l735.168-384.128-453.12 543.296a35.584 35.584 0 0 0-8.32 22.784v271.616a35.584 35.584 0 0 0 71.168 0v-258.752l478.08-573.056-108.928 735.872-256.512-127.36a35.584 35.584 0 0 0-31.616 63.808l300.352 149.056a35.584 35.584 0 0 0 50.944-26.688L1025.344 41.344l0.128-0.96 0.128-1.024a35.84 35.84 0 0 0 0.128-3.008z" p-id="3923" fill="#ffffff"></path></svg>