<?xml version="1.0" standalone="no"?><!DOCTYPE svg PUBLIC "-//W3C//DTD SVG 1.1//EN" "http://www.w3.org/Graphics/SVG/1.1/DTD/svg11.dtd"><svg t="1607397846203" class="icon" viewBox="0 0 1024 1024" version="1.1" xmlns="http://www.w3.org/2000/svg" p-id="29106" xmlns:xlink="http://www.w3.org/1999/xlink" width="200" height="200"><defs><style type="text/css"></style></defs><path d="M119.340511 387.950968h785.321237v438.966534H119.340511z" p-id="29107" fill="#ffffff"></path><path d="M994.635273 270.117093H762.81882l-198.916664-136.943536c0.027106-0.655059 0.051953-1.312377 0.051953-1.974213 0-28.693856-23.261382-51.952979-51.955238-51.95298-28.693856 0-51.952979 23.259123-51.95298 51.95298 0 0.880942 0.022588 1.757366 0.065506 2.627013l-197.647204 136.290736H29.364727c-16.1506 0-29.364727 13.216386-29.364727 29.364727V915.388908c0 16.1506 13.214127 29.364727 29.364727 29.364728h965.270546c16.1506 0 29.364727-13.214127 29.364727-29.364728V299.48182c0-16.1506-13.214127-29.364727-29.364727-29.364727zM482.003931 173.606528a51.706767 51.706767 0 0 0 29.99494 9.545795c11.388997 0 21.910604-3.67285 30.47381-9.884619l140.679633 96.849389H342.044863l139.959068-96.510565zM949.835993 849.505754c0 12.473233-10.115019 22.588252-22.588252 22.588252H96.752259c-12.475492 0-22.588252-10.115019-22.588252-22.588252V365.364975c0-12.473233 10.11276-22.588252 22.588252-22.588252l830.49774-0.002259a22.595028 22.595028 0 0 1 22.588252 22.588252v484.143038z" p-id="29108" fill="#ffffff"></path></svg>